{
	"asset":{
		"version":"2.0",
		"generator":"Created using the official Cinema 4D glTF Exporter 1.000x284978"
	},
	"scenes":[{
		"nodes":[0]
	}],
	"nodes":[{
		"name":"Groves",
		"translation":[0.0,
		-293.2507019042969,
		0.0],
		"rotation":[0.0,
		0.0,
		0.0,
		-1.0],
		"scale":[1.0,
		1.0,
		1.0],
		"mesh":0
	}],
	"meshes":[{
		"name":"Groves",
		"primitives":[{
			"attributes":{
				"POSITION":1,
				"NORMAL":2,
				"TEXCOORD_0":3
			},
			"indices":0
		}]
	}],
	"accessors":[{
		"bufferView":0,
		"min":[0],
		"type":"SCALAR",
		"componentType":5123,
		"byteOffset":0,
		"count":5268,
		"max":[1904]
	},
	{
		"bufferView":1,
		"min":[-145.91847229003907,
		-432.709716796875,
		-146.0],
		"type":"VEC3",
		"componentType":5126,
		"byteOffset":0,
		"count":1905,
		"max":[145.91847229003907,
		140.76979064941407,
		145.67396545410157]
	},
	{
		"bufferView":1,
		"min":[-1.0,
		-1.0,
		-1.0],
		"type":"VEC3",
		"componentType":5126,
		"byteOffset":12,
		"count":1905,
		"max":[1.0,
		1.0,
		1.0]
	},
	{
		"bufferView":1,
		"min":[0.0,
		0.0],
		"type":"VEC2",
		"componentType":5126,
		"byteOffset":24,
		"count":1905,
		"max":[1.0,
		1.0]
	}],
	"bufferViews":[{
		"target":34963,
		"buffer":0,
		"byteOffset":0,
		"byteLength":10536
	},
	{
		"target":34962,
		"buffer":0,
		"byteOffset":10536,
		"byteLength":60960,
		"byteStride":32
	}],
	"buffers":[{
		"uri":"data:application/octet-stream;base64,",
		"byteLength":71496
	}]
}