{
	"asset":{
		"version":"2.0",
		"generator":"Created using the official Cinema 4D glTF Exporter 1.000x284978"
	},
	"scenes":[{
		"nodes":[0]
	}],
	"nodes":[{
		"name":"Surprised",
		"translation":[0.22834298014640809,
		12.887091636657715,
		4.453120231628418],
		"rotation":[0.0,
		0.0,
		0.0,
		-1.0],
		"scale":[1.0,
		1.0,
		1.0],
		"children":[1,
		2,
		12,
		14]
	},
	{
		"name":"wow.ai",
		"translation":[14.887861251831055,
		428.0157165527344,
		-20.97370719909668],
		"rotation":[0.0,
		0.0,
		0.0,
		-1.0],
		"scale":[1.0,
		1.0,
		1.0],
		"mesh":0
	},
	{
		"name":"Body",
		"translation":[-0.22834298014640809,
		16.66217041015625,
		-4.453120231628418],
		"rotation":[0.0,
		0.0,
		0.0,
		-1.0],
		"scale":[1.0,
		1.0,
		1.0],
		"children":[3,
		4,
		8]
	},
	{
		"name":"Tail",
		"translation":[0.0,
		128.38851928710938,
		-41.99739074707031],
		"rotation":[0.0,
		-0.3594539761543274,
		0.0,
		-0.9331628084182739],
		"scale":[1.0,
		1.0,
		1.0],
		"mesh":1
	},
	{
		"name":"SurprisedHip_R",
		"translation":[-12.95439624786377,
		7.647857189178467,
		0.5556597709655762],
		"rotation":[0.63836270570755,
		0.3036622703075409,
		0.30459046363830569,
		-0.63836270570755],
		"scale":[1.0,
		1.0,
		1.0],
		"children":[5]
	},
	{
		"name":"SurprisedKnee_R",
		"translation":[0.0,
		-5.440092820663267e-15,
		-88.22969818115235],
		"rotation":[-0.001445082132704556,
		0.0,
		0.0,
		-0.999998927116394],
		"scale":[1.0,
		1.0,
		1.0],
		"children":[6]
	},
	{
		"name":"SurprisedAnkle_R",
		"translation":[0.0,
		0.002188877435401082,
		-97.08753204345703],
		"rotation":[-3.3978499674276397e-14,
		-0.7081278562545776,
		-0.7060841917991638,
		3.4076846975716199e-14],
		"scale":[1.0,
		1.0,
		1.0],
		"children":[7]
	},
	{
		"name":"SurprisedToe_R",
		"translation":[-0.004266280680894852,
		-1.8841938972473145,
		-46.22784423828125],
		"rotation":[6.544334518743256e-10,
		-0.43009963631629946,
		0.0006563168135471642,
		-0.9027811884880066],
		"scale":[1.0,
		1.0,
		1.0]
	},
	{
		"name":"SurprisedHip_L",
		"translation":[14.324454307556153,
		7.647857189178467,
		0.5556597709655762],
		"rotation":[0.63836270570755,
		-0.3036622703075409,
		-0.3045904338359833,
		-0.63836270570755],
		"scale":[1.0,
		1.0,
		1.0],
		"children":[9]
	},
	{
		"name":"SurprisedKnee_L",
		"translation":[1.2521816916688522e-11,
		1.5444923118224098e-11,
		-88.22969818115235],
		"rotation":[-0.001445082132704556,
		0.0,
		0.0,
		-0.999998927116394],
		"scale":[1.0,
		1.0,
		1.0],
		"children":[10]
	},
	{
		"name":"SurprisedAnkle_L",
		"translation":[-2.3592239273284578e-15,
		0.002188877435401082,
		-97.08753204345703],
		"rotation":[1.3683286173235294e-14,
		-0.7081278562545776,
		-0.7060841917991638,
		-1.3722890045717116e-14],
		"scale":[1.0,
		1.0,
		1.0],
		"children":[11]
	},
	{
		"name":"SurprisedToe_L",
		"translation":[0.0042629060335457329,
		-1.8841938972473145,
		-46.22784423828125],
		"rotation":[-1.5464795243003149e-12,
		0.43009963631629946,
		-0.0006563181523233652,
		-0.9027811884880066],
		"scale":[1.0,
		1.0,
		1.0]
	},
	{
		"name":"SurprisedLegs",
		"translation":[0.45668596029281618,
		25.77418327331543,
		8.906240463256836],
		"rotation":[0.0,
		0.0,
		0.0,
		-1.0],
		"scale":[1.0,
		1.0,
		1.0],
		"children":[13]
	},
	{
		"name":"SurprisedLegs",
		"mesh":2,
		"skin":0
	},
	{
		"name":"Body",
		"translation":[-0.22834298014640809,
		16.66217041015625,
		-4.453120231628418],
		"rotation":[0.0,
		0.0,
		0.0,
		-1.0],
		"scale":[1.0,
		1.0,
		1.0],
		"mesh":3,
		"children":[15,
		16]
	},
	{
		"name":"Ears",
		"translation":[-27.549463272094728,
		183.15719604492188,
		57.23564910888672],
		"rotation":[0.0,
		0.0,
		0.0,
		-1.0],
		"scale":[1.0,
		1.0,
		1.0],
		"mesh":4
	},
	{
		"name":"Eyes",
		"translation":[3.552713678800501e-15,
		123.28394317626953,
		109.73260498046875],
		"rotation":[0.0,
		0.0,
		0.0,
		-1.0],
		"scale":[1.0,
		1.0,
		1.0],
		"mesh":5
	}],
	"meshes":[{
		"name":"wow.ai",
		"primitives":[{
			"attributes":{
				"POSITION":1,
				"NORMAL":2,
				"TEXCOORD_0":3
			},
			"indices":0,
			"material":0
		}]
	},
	{
		"name":"Tail",
		"primitives":[{
			"attributes":{
				"POSITION":7,
				"NORMAL":8,
				"TEXCOORD_0":9
			},
			"indices":6,
			"material":1
		}]
	},
	{
		"name":"SurprisedLegs",
		"primitives":[{
			"attributes":{
				"POSITION":31,
				"NORMAL":32,
				"TEXCOORD_0":33,
				"JOINTS_0":34,
				"WEIGHTS_0":35
			},
			"indices":30,
			"material":1
		}]
	},
	{
		"name":"Body",
		"primitives":[{
			"attributes":{
				"POSITION":37,
				"NORMAL":38,
				"TEXCOORD_0":39
			},
			"indices":36,
			"material":1
		}]
	},
	{
		"name":"Ears",
		"primitives":[{
			"attributes":{
				"POSITION":45,
				"NORMAL":46,
				"TEXCOORD_0":47
			},
			"indices":44,
			"material":1
		}]
	},
	{
		"name":"Eyes",
		"primitives":[{
			"attributes":{
				"POSITION":51,
				"NORMAL":52,
				"TEXCOORD_0":53
			},
			"indices":50,
			"material":2
		}]
	}],
	"skins":[{
		"inverseBindMatrices":56,
		"joints":[4,
		5,
		6,
		7,
		8,
		9,
		10,
		11]
	}],
	"accessors":[{
		"bufferView":0,
		"type":"SCALAR",
		"componentType":5123,
		"count":549,
		"byteOffset":0,
		"min":[0],
		"max":[190]
	},
	{
		"bufferView":1,
		"type":"VEC3",
		"componentType":5126,
		"count":191,
		"byteOffset":0,
		"min":[-99.70038604736328,
		-23.513519287109376,
		-1.3229166269302369],
		"max":[99.70038604736328,
		23.513519287109376,
		1.3229166269302369]
	},
	{
		"bufferView":1,
		"type":"VEC3",
		"componentType":5126,
		"count":191,
		"byteOffset":12,
		"min":[0.0,
		0.0,
		1.0],
		"max":[0.0,
		0.0,
		1.0]
	},
	{
		"bufferView":1,
		"type":"VEC2",
		"componentType":5126,
		"count":191,
		"byteOffset":24,
		"min":[0.0,
		0.0],
		"max":[1.0,
		1.0]
	},
	{
		"bufferView":2,
		"type":"SCALAR",
		"componentType":5126,
		"count":61,
		"byteOffset":0,
		"min":[0.0],
		"max":[2.0]
	},
	{
		"bufferView":2,
		"type":"VEC3",
		"componentType":5126,
		"count":61,
		"byteOffset":244,
		"min":[-0.22834298014640809,
		-12.887091636657715,
		-4.453120231628418],
		"max":[-0.22834298014640809,
		37.11290740966797,
		-4.453120231628418]
	},
	{
		"bufferView":3,
		"type":"SCALAR",
		"componentType":5123,
		"count":1968,
		"byteOffset":0,
		"min":[0],
		"max":[382]
	},
	{
		"bufferView":4,
		"type":"VEC3",
		"componentType":5126,
		"count":383,
		"byteOffset":0,
		"min":[-18.308977127075197,
		-277.9295959472656,
		-4.141380786895752],
		"max":[78.69154357910156,
		-73.15151977539063,
		17.2997989654541]
	},
	{
		"bufferView":4,
		"type":"VEC3",
		"componentType":5126,
		"count":383,
		"byteOffset":12,
		"min":[-0.9981281161308289,
		-0.9998079538345337,
		-0.9987600445747376],
		"max":[0.9981282353401184,
		0.9998080134391785,
		0.9987600445747376]
	},
	{
		"bufferView":4,
		"type":"VEC2",
		"componentType":5126,
		"count":383,
		"byteOffset":24,
		"min":[0.0,
		0.0],
		"max":[1.0,
		1.0]
	},
	{
		"bufferView":5,
		"type":"SCALAR",
		"componentType":5126,
		"count":0,
		"byteOffset":0,
		"min":[],
		"max":[]
	},
	{
		"bufferView":5,
		"type":"SCALAR",
		"componentType":5126,
		"count":0,
		"byteOffset":0,
		"min":[],
		"max":[]
	},
	{
		"bufferView":6,
		"type":"SCALAR",
		"componentType":5126,
		"count":61,
		"byteOffset":0,
		"min":[0.0],
		"max":[2.0]
	},
	{
		"bufferView":6,
		"type":"VEC4",
		"componentType":5126,
		"count":61,
		"byteOffset":244,
		"min":[0.6378815770149231,
		0.19961997866630555,
		0.3042750060558319,
		-0.638848066329956],
		"max":[0.7989092469215393,
		0.3038916289806366,
		0.38115447759628298,
		-0.42025837302207949]
	},
	{
		"bufferView":7,
		"type":"SCALAR",
		"componentType":5126,
		"count":61,
		"byteOffset":0,
		"min":[0.0],
		"max":[2.0]
	},
	{
		"bufferView":7,
		"type":"VEC4",
		"componentType":5126,
		"count":61,
		"byteOffset":244,
		"min":[-0.5423486232757568,
		-3.9646896461586667e-16,
		0.0,
		-1.0],
		"max":[0.000011263749001955148,
		0.0,
		2.559346313726923e-16,
		-0.8401535749435425]
	},
	{
		"bufferView":8,
		"type":"SCALAR",
		"componentType":5126,
		"count":61,
		"byteOffset":0,
		"min":[0.0],
		"max":[2.0]
	},
	{
		"bufferView":8,
		"type":"VEC3",
		"componentType":5126,
		"count":61,
		"byteOffset":244,
		"min":[-0.021426448598504068,
		-22.403148651123048,
		-46.232765197753909],
		"max":[0.004725617356598377,
		22.199735641479493,
		-40.592315673828128]
	},
	{
		"bufferView":9,
		"type":"SCALAR",
		"componentType":5126,
		"count":61,
		"byteOffset":0,
		"min":[0.0],
		"max":[2.0]
	},
	{
		"bufferView":9,
		"type":"VEC4",
		"componentType":5126,
		"count":61,
		"byteOffset":244,
		"min":[6.544334518743256e-10,
		-0.43009963631629946,
		0.0006563168135471642,
		-0.9028217196464539],
		"max":[0.24134379625320435,
		0.4297952353954315,
		0.11428103595972061,
		0.9020799398422241]
	},
	{
		"bufferView":10,
		"type":"SCALAR",
		"componentType":5126,
		"count":61,
		"byteOffset":0,
		"min":[0.0],
		"max":[2.0]
	},
	{
		"bufferView":10,
		"type":"VEC4",
		"componentType":5126,
		"count":61,
		"byteOffset":244,
		"min":[0.6378815770149231,
		-0.3038916289806366,
		-0.38115447759628298,
		-0.638848066329956],
		"max":[0.7989092469215393,
		-0.19961997866630555,
		-0.3042750060558319,
		-0.42025837302207949]
	},
	{
		"bufferView":11,
		"type":"SCALAR",
		"componentType":5126,
		"count":61,
		"byteOffset":0,
		"min":[0.0],
		"max":[2.0]
	},
	{
		"bufferView":11,
		"type":"VEC4",
		"componentType":5126,
		"count":61,
		"byteOffset":244,
		"min":[-0.5423486232757568,
		-5.104028369554506e-16,
		-1.2212181138251204e-24,
		-1.0],
		"max":[0.5296273231506348,
		0.0,
		3.0006242741646078e-16,
		0.9008901715278626]
	},
	{
		"bufferView":12,
		"type":"SCALAR",
		"componentType":5126,
		"count":61,
		"byteOffset":0,
		"min":[0.0],
		"max":[2.0]
	},
	{
		"bufferView":12,
		"type":"VEC4",
		"componentType":5126,
		"count":61,
		"byteOffset":244,
		"min":[-2.7080083780852555e-14,
		-0.7081278562545776,
		-0.7060841917991638,
		-3.400632978879138e-14],
		"max":[3.390818916339071e-14,
		0.7081278562545776,
		0.7060841917991638,
		2.7158463127593785e-14]
	},
	{
		"bufferView":13,
		"type":"SCALAR",
		"componentType":5126,
		"count":61,
		"byteOffset":0,
		"min":[0.0],
		"max":[2.0]
	},
	{
		"bufferView":13,
		"type":"VEC3",
		"componentType":5126,
		"count":61,
		"byteOffset":244,
		"min":[-0.004725323058664799,
		-22.403148651123048,
		-46.232765197753909],
		"max":[0.021426409482955934,
		22.199735641479493,
		-40.592315673828128]
	},
	{
		"bufferView":14,
		"type":"SCALAR",
		"componentType":5126,
		"count":61,
		"byteOffset":0,
		"min":[0.0],
		"max":[2.0]
	},
	{
		"bufferView":14,
		"type":"VEC4",
		"componentType":5126,
		"count":61,
		"byteOffset":244,
		"min":[-1.5128162394670297e-12,
		-0.4297952353954315,
		-0.11428103595972061,
		-0.9028217196464539],
		"max":[0.24134379625320435,
		0.43009963631629946,
		-0.0006563181523233652,
		0.9020799398422241]
	},
	{
		"bufferView":15,
		"type":"SCALAR",
		"componentType":5123,
		"count":2112,
		"byteOffset":0,
		"min":[0],
		"max":[417]
	},
	{
		"bufferView":16,
		"type":"VEC3",
		"componentType":5126,
		"count":418,
		"byteOffset":0,
		"min":[-51.573707580566409,
		-194.16331481933595,
		-18.33674430847168],
		"max":[51.573707580566409,
		1.5526665511026578e-13,
		18.336742401123048]
	},
	{
		"bufferView":16,
		"type":"VEC3",
		"componentType":5126,
		"count":418,
		"byteOffset":12,
		"min":[-0.9993075132369995,
		-0.9996673464775086,
		-0.9993253350257874],
		"max":[0.9993075132369995,
		0.999982476234436,
		0.9993253350257874]
	},
	{
		"bufferView":16,
		"type":"VEC2",
		"componentType":5126,
		"count":418,
		"byteOffset":24,
		"min":[0.0,
		0.0],
		"max":[1.0,
		1.0]
	},
	{
		"bufferView":17,
		"type":"VEC4",
		"componentType":5123,
		"count":418,
		"byteOffset":0,
		"min":[0,
		0,
		0,
		0],
		"max":[7,
		6,
		5,
		4]
	},
	{
		"bufferView":18,
		"type":"VEC4",
		"componentType":5126,
		"count":418,
		"byteOffset":0,
		"min":[0.7856565117835999,
		0.0,
		0.0,
		0.0],
		"max":[1.0,
		0.21431295573711396,
		0.0,
		0.0]
	},
	{
		"bufferView":19,
		"type":"SCALAR",
		"componentType":5123,
		"count":36,
		"byteOffset":0,
		"min":[0],
		"max":[23]
	},
	{
		"bufferView":20,
		"type":"VEC3",
		"componentType":5126,
		"count":24,
		"byteOffset":0,
		"min":[-107.47821807861328,
		0.0,
		-107.47821807861328],
		"max":[107.47821807861328,
		214.95643615722657,
		107.47821807861328]
	},
	{
		"bufferView":20,
		"type":"VEC3",
		"componentType":5126,
		"count":24,
		"byteOffset":12,
		"min":[-1.0,
		-1.0,
		-1.0],
		"max":[1.0,
		1.0,
		1.0]
	},
	{
		"bufferView":20,
		"type":"VEC2",
		"componentType":5126,
		"count":24,
		"byteOffset":24,
		"min":[0.0,
		0.0],
		"max":[1.0,
		1.0]
	},
	{
		"bufferView":21,
		"type":"SCALAR",
		"componentType":5126,
		"count":61,
		"byteOffset":0,
		"min":[0.0],
		"max":[2.0]
	},
	{
		"bufferView":21,
		"type":"VEC3",
		"componentType":5126,
		"count":61,
		"byteOffset":244,
		"min":[-0.22834298014640809,
		-12.887091636657715,
		-4.453120231628418],
		"max":[-0.22834298014640809,
		37.11290740966797,
		-4.453120231628418]
	},
	{
		"bufferView":22,
		"type":"SCALAR",
		"componentType":5126,
		"count":61,
		"byteOffset":0,
		"min":[0.0],
		"max":[2.0]
	},
	{
		"bufferView":22,
		"type":"VEC3",
		"componentType":5126,
		"count":61,
		"byteOffset":244,
		"min":[1.0,
		0.8999999761581421,
		1.0],
		"max":[1.100000023841858,
		1.2000000476837159,
		1.0]
	},
	{
		"bufferView":23,
		"type":"SCALAR",
		"componentType":5123,
		"count":3456,
		"byteOffset":0,
		"min":[0],
		"max":[667]
	},
	{
		"bufferView":24,
		"type":"VEC3",
		"componentType":5126,
		"count":668,
		"byteOffset":0,
		"min":[-31.015317916870118,
		17.275585174560548,
		-80.35018157958985],
		"max":[86.11424255371094,
		157.2755889892578,
		-34.121116638183597]
	},
	{
		"bufferView":24,
		"type":"VEC3",
		"componentType":5126,
		"count":668,
		"byteOffset":12,
		"min":[-0.9898358583450317,
		-1.0,
		-0.9898358583450317],
		"max":[0.9898358583450317,
		1.0,
		0.9898358583450317]
	},
	{
		"bufferView":24,
		"type":"VEC2",
		"componentType":5126,
		"count":668,
		"byteOffset":24,
		"min":[0.0,
		0.0],
		"max":[1.0,
		1.0]
	},
	{
		"bufferView":25,
		"type":"SCALAR",
		"componentType":5126,
		"count":61,
		"byteOffset":0,
		"min":[0.0],
		"max":[2.0]
	},
	{
		"bufferView":25,
		"type":"VEC3",
		"componentType":5126,
		"count":61,
		"byteOffset":244,
		"min":[1.0,
		0.699999988079071,
		1.0],
		"max":[1.0,
		1.0,
		1.0]
	},
	{
		"bufferView":26,
		"type":"SCALAR",
		"componentType":5123,
		"count":6912,
		"byteOffset":0,
		"min":[0],
		"max":[1331]
	},
	{
		"bufferView":27,
		"type":"VEC3",
		"componentType":5126,
		"count":1332,
		"byteOffset":0,
		"min":[-83.55374145507813,
		-27.007402420043947,
		-2.0],
		"max":[83.55374145507813,
		27.007402420043947,
		2.0]
	},
	{
		"bufferView":27,
		"type":"VEC3",
		"componentType":5126,
		"count":1332,
		"byteOffset":12,
		"min":[-1.0,
		-1.0,
		-0.9999300837516785],
		"max":[1.0,
		1.0,
		0.9999300837516785]
	},
	{
		"bufferView":27,
		"type":"VEC2",
		"componentType":5126,
		"count":1332,
		"byteOffset":24,
		"min":[0.0,
		0.0],
		"max":[1.0,
		1.0]
	},
	{
		"bufferView":28,
		"type":"SCALAR",
		"componentType":5126,
		"count":61,
		"byteOffset":0,
		"min":[0.0],
		"max":[2.0]
	},
	{
		"bufferView":28,
		"type":"VEC3",
		"componentType":5126,
		"count":61,
		"byteOffset":244,
		"min":[1.0,
		0.0,
		1.0],
		"max":[1.0,
		1.0,
		1.0]
	},
	{
		"bufferView":29,
		"type":"MAT4",
		"componentType":5126,
		"count":8,
		"byteOffset":0,
		"min":[-1.0,
		-0.7765718698501587,
		-0.7765716910362244,
		0.0,
		-0.0011850413866341115,
		-0.000564564426895231,
		-0.000564564426895231,
		0.0,
		-0.7765716910362244,
		-0.6300286054611206,
		-1.0,
		0.0,
		-49.538204193115237,
		2.5244667530059816,
		1.487545371055603,
		1.0],
		"max":[0.6300277709960938,
		0.7765718698501587,
		0.7765716910362244,
		0.0,
		0.0011850413866341115,
		1.0,
		0.9999991655349731,
		0.0,
		0.7765716910362244,
		0.0005645783967338502,
		0.00238546053878963,
		0.0,
		49.5382080078125,
		188.63906860351563,
		89.7095718383789,
		1.0]
	}],
	"bufferViews":[{
		"buffer":0,
		"byteOffset":0,
		"byteLength":1098,
		"target":34963
	},
	{
		"buffer":0,
		"byteOffset":1100,
		"byteLength":6112,
		"target":34962,
		"byteStride":32
	},
	{
		"buffer":1,
		"byteOffset":0,
		"byteLength":976
	},
	{
		"buffer":2,
		"byteOffset":0,
		"byteLength":3936,
		"target":34963
	},
	{
		"buffer":2,
		"byteOffset":3936,
		"byteLength":12256,
		"target":34962,
		"byteStride":32
	},
	{
		"buffer":3,
		"byteOffset":0,
		"byteLength":0
	},
	{
		"buffer":4,
		"byteOffset":0,
		"byteLength":1220
	},
	{
		"buffer":5,
		"byteOffset":0,
		"byteLength":1220
	},
	{
		"buffer":6,
		"byteOffset":0,
		"byteLength":976
	},
	{
		"buffer":6,
		"byteOffset":976,
		"byteLength":1220
	},
	{
		"buffer":7,
		"byteOffset":0,
		"byteLength":1220
	},
	{
		"buffer":8,
		"byteOffset":0,
		"byteLength":1220
	},
	{
		"buffer":9,
		"byteOffset":0,
		"byteLength":1220
	},
	{
		"buffer":10,
		"byteOffset":0,
		"byteLength":976
	},
	{
		"buffer":10,
		"byteOffset":976,
		"byteLength":1220
	},
	{
		"buffer":11,
		"byteOffset":0,
		"byteLength":4224,
		"target":34963
	},
	{
		"buffer":11,
		"byteOffset":4224,
		"byteLength":13376,
		"target":34962,
		"byteStride":32
	},
	{
		"buffer":11,
		"byteOffset":17600,
		"byteLength":3344,
		"target":34962
	},
	{
		"buffer":11,
		"byteOffset":20944,
		"byteLength":6688,
		"target":34962
	},
	{
		"buffer":12,
		"byteOffset":0,
		"byteLength":72,
		"target":34963
	},
	{
		"buffer":12,
		"byteOffset":72,
		"byteLength":768,
		"target":34962,
		"byteStride":32
	},
	{
		"buffer":13,
		"byteOffset":0,
		"byteLength":976
	},
	{
		"buffer":13,
		"byteOffset":976,
		"byteLength":976
	},
	{
		"buffer":14,
		"byteOffset":0,
		"byteLength":6912,
		"target":34963
	},
	{
		"buffer":14,
		"byteOffset":6912,
		"byteLength":21376,
		"target":34962,
		"byteStride":32
	},
	{
		"buffer":15,
		"byteOffset":0,
		"byteLength":976
	},
	{
		"buffer":16,
		"byteOffset":0,
		"byteLength":13824,
		"target":34963
	},
	{
		"buffer":16,
		"byteOffset":13824,
		"byteLength":42624,
		"target":34962,
		"byteStride":32
	},
	{
		"buffer":17,
		"byteOffset":0,
		"byteLength":976
	},
	{
		"buffer":18,
		"byteOffset":0,
		"byteLength":512
	}],
	"buffers":[{
		"uri":"data:application/octet-stream;base64,",
		"byteLength":7212
	},
	{
		"uri":"data:application/octet-stream;base64,",
		"byteLength":976
	},
	{
		"uri":"data:application/octet-stream;base64,",
		"byteLength":16192
	},
	{
		"uri":"data:application/octet-stream;base64,",
		"byteLength":0
	},
	{
		"uri":"data:application/octet-stream;base64,",
		"byteLength":1220
	},
	{
		"uri":"data:application/octet-stream;base64,",
		"byteLength":1220
	},
	{
		"uri":"data:application/octet-stream;base64,",
		"byteLength":2196
	},
	{
		"uri":"data:application/octet-stream;base64,",
		"byteLength":1220
	},
	{
		"uri":"data:application/octet-stream;base64,",
		"byteLength":1220
	},
	{
		"uri":"data:application/octet-stream;base64,",
		"byteLength":1220
	},
	{
		"uri":"data:application/octet-stream;base64,",
		"byteLength":2196
	},
	{
		"uri":"data:application/octet-stream;base64,",
		"byteLength":27632
	},
	{
		"uri":"data:application/octet-stream;base64,",
		"byteLength":840
	},
	{
		"uri":"data:application/octet-stream;base64,",
		"byteLength":1952
	},
	{
		"uri":"data:application/octet-stream;base64,",
		"byteLength":28288
	},
	{
		"uri":"data:application/octet-stream;base64,",
		"byteLength":976
	},
	{
		"uri":"data:application/octet-stream;base64,",
		"byteLength":56448
	},
	{
		"uri":"data:application/octet-stream;base64,",
		"byteLength":976
	},
	{
		"uri":"data:application/octet-stream;base64,",
		"byteLength":512
	}],
	"materials":[{
		"pbrMetallicRoughness":{
			"baseColorFactor":[0.2,
			0.2,
			0.2,
			1.0],
			"metallicFactor":0.0,
			"roughnessFactor":0.5
		},
		"emissiveFactor":[0.0,
		0.0,
		0.0],
		"alphaMode":"OPAQUE",
		"doubleSided":true,
		"name":"Mat.2"
	},
	{
		"pbrMetallicRoughness":{
			"baseColorFactor":[0.93,
			0.23498000000000006,
			0.2232,
			1.0],
			"metallicFactor":0.0,
			"roughnessFactor":0.5
		},
		"emissiveFactor":[0.0,
		0.0,
		0.0],
		"alphaMode":"OPAQUE",
		"doubleSided":true,
		"name":"Mat.1"
	},
	{
		"pbrMetallicRoughness":{
			"baseColorFactor":[0.8,
			0.8,
			0.8,
			1.0],
			"metallicFactor":0.0,
			"roughnessFactor":0.5
		},
		"emissiveFactor":[0.0,
		0.0,
		0.0],
		"alphaMode":"OPAQUE",
		"doubleSided":true,
		"name":"Mat.2"
	}],
	"animations":[{
		"samplers":[{
			"input":4,
			"interpolation":"LINEAR",
			"output":5
		},
		{
			"input":10,
			"interpolation":"LINEAR",
			"output":11
		},
		{
			"input":12,
			"interpolation":"LINEAR",
			"output":13
		},
		{
			"input":14,
			"interpolation":"LINEAR",
			"output":15
		},
		{
			"input":16,
			"interpolation":"LINEAR",
			"output":17
		},
		{
			"input":18,
			"interpolation":"LINEAR",
			"output":19
		},
		{
			"input":20,
			"interpolation":"LINEAR",
			"output":21
		},
		{
			"input":22,
			"interpolation":"LINEAR",
			"output":23
		},
		{
			"input":24,
			"interpolation":"LINEAR",
			"output":25
		},
		{
			"input":26,
			"interpolation":"LINEAR",
			"output":27
		},
		{
			"input":28,
			"interpolation":"LINEAR",
			"output":29
		},
		{
			"input":40,
			"interpolation":"LINEAR",
			"output":41
		},
		{
			"input":42,
			"interpolation":"LINEAR",
			"output":43
		},
		{
			"input":48,
			"interpolation":"LINEAR",
			"output":49
		},
		{
			"input":54,
			"interpolation":"LINEAR",
			"output":55
		}],
		"channels":[{
			"sampler":0,
			"target":{
				"path":"translation",
				"node":2
			}
		},
		{
			"sampler":1,
			"target":{
				"path":"weights",
				"node":3
			}
		},
		{
			"sampler":2,
			"target":{
				"path":"rotation",
				"node":4
			}
		},
		{
			"sampler":3,
			"target":{
				"path":"rotation",
				"node":5
			}
		},
		{
			"sampler":4,
			"target":{
				"path":"translation",
				"node":7
			}
		},
		{
			"sampler":5,
			"target":{
				"path":"rotation",
				"node":7
			}
		},
		{
			"sampler":6,
			"target":{
				"path":"rotation",
				"node":8
			}
		},
		{
			"sampler":7,
			"target":{
				"path":"rotation",
				"node":9
			}
		},
		{
			"sampler":8,
			"target":{
				"path":"rotation",
				"node":10
			}
		},
		{
			"sampler":9,
			"target":{
				"path":"translation",
				"node":11
			}
		},
		{
			"sampler":10,
			"target":{
				"path":"rotation",
				"node":11
			}
		},
		{
			"sampler":11,
			"target":{
				"path":"translation",
				"node":14
			}
		},
		{
			"sampler":12,
			"target":{
				"path":"scale",
				"node":14
			}
		},
		{
			"sampler":13,
			"target":{
				"path":"scale",
				"node":15
			}
		},
		{
			"sampler":14,
			"target":{
				"path":"scale",
				"node":16
			}
		}]
	}]
}