{
	"asset":{
		"version":"2.0",
		"generator":"Created using the official Cinema 4D glTF Exporter 1.000x284978"
	},
	"scenes":[{
		"nodes":[0]
	}],
	"nodes":[{
		"name":"Surprised(195Frames)",
		"translation":[0.22834298014640809,
		12.887091636657715,
		4.453120231628418],
		"rotation":[0.0,
		0.0,
		0.0,
		-1.0],
		"scale":[1.0,
		1.0,
		1.0],
		"children":[1,
		2,
		16,
		18]
	},
	{
		"name":"wow.ai",
		"translation":[14.887861251831055,
		428.0157165527344,
		-20.97370719909668],
		"rotation":[0.0,
		0.0,
		0.0,
		-1.0],
		"scale":[1.0,
		1.0,
		1.0],
		"mesh":0
	},
	{
		"name":"Body",
		"translation":[-0.22834298014640809,
		37.11290740966797,
		-4.453120231628418],
		"rotation":[0.0,
		0.0,
		0.0,
		-1.0],
		"scale":[1.0,
		1.0,
		1.0],
		"children":[3,
		8,
		12]
	},
	{
		"name":"Capsule",
		"translation":[4.556682561181473e-16,
		-94.6170425415039,
		-32.50428009033203],
		"rotation":[6.123234262925839e-17,
		1.2246468525851679e-16,
		-1.2246468525851679e-16,
		-1.0],
		"scale":[1.0,
		1.0,
		1.0],
		"children":[4,
		5]
	},
	{
		"name":"Capsule",
		"mesh":1,
		"skin":0
	},
	{
		"name":"Joint.1",
		"translation":[-0.4536154866218567,
		140.4717559814453,
		1.4210854715202005e-14],
		"rotation":[-0.49875468015670779,
		-0.5012422204017639,
		-0.49875468015670779,
		0.5012422204017639],
		"scale":[1.0,
		1.0,
		1.0],
		"children":[6]
	},
	{
		"name":"Joint.2",
		"translation":[-3.552713678800501e-14,
		2.6944287458748747e-16,
		-154.60951232910157],
		"rotation":[-0.3420201539993286,
		-1.1032840149699186e-30,
		4.01562552995137e-31,
		-0.9396926164627075],
		"scale":[1.0,
		1.0,
		1.0],
		"children":[7]
	},
	{
		"name":"Joint.3",
		"translation":[7.105427357601002e-15,
		1.577097081943181e-14,
		-108.59661102294922],
		"rotation":[5.551115123125783e-17,
		-1.4986956276420282e-16,
		-8.31943196356615e-33,
		-1.0],
		"scale":[1.0,
		1.0,
		1.0]
	},
	{
		"name":"SurprisedHip_R",
		"translation":[-12.95439624786377,
		7.647857189178467,
		0.5556597709655762],
		"rotation":[-0.7028306722640991,
		-0.07308800518512726,
		-0.07318850606679917,
		0.7037972807884216],
		"scale":[1.0,
		1.0,
		1.0],
		"children":[9]
	},
	{
		"name":"SurprisedKnee_R",
		"translation":[0.0,
		-5.440092820663267e-15,
		-88.22969818115235],
		"rotation":[0.000011263527994742617,
		0.0,
		0.0,
		-1.0],
		"scale":[1.0,
		1.0,
		1.0],
		"children":[10]
	},
	{
		"name":"SurprisedAnkle_R",
		"translation":[0.0,
		0.002188877435401082,
		-97.08753204345703],
		"rotation":[2.04249205032871e-14,
		-0.7081278562545776,
		-0.7060841917991638,
		-2.048403662674187e-14],
		"scale":[1.0,
		1.0,
		1.0],
		"children":[11]
	},
	{
		"name":"SurprisedToe_R",
		"translation":[29.137046813964845,
		-22.373037338256837,
		-35.827762603759769],
		"rotation":[0.0007650668849237263,
		-0.10343290120363236,
		0.00022170308511704206,
		-0.9946361184120178],
		"scale":[1.0,
		1.0,
		1.0]
	},
	{
		"name":"SurprisedHip_L",
		"translation":[14.324454307556153,
		7.647857189178467,
		0.5556597709655762],
		"rotation":[0.07308932393789292,
		0.7028305530548096,
		0.7037971615791321,
		-0.07318983972072602],
		"scale":[1.0,
		1.0,
		1.0],
		"children":[13]
	},
	{
		"name":"SurprisedKnee_L",
		"translation":[1.2521816916688522e-11,
		1.5444923118224098e-11,
		-88.22969818115235],
		"rotation":[0.000011263527994742617,
		0.0,
		0.0,
		-1.0],
		"scale":[1.0,
		1.0,
		1.0],
		"children":[14]
	},
	{
		"name":"SurprisedAnkle_L",
		"translation":[-2.3592239273284578e-15,
		0.002188877435401082,
		-97.08753204345703],
		"rotation":[2.04249205032871e-14,
		-0.7081278562545776,
		-0.7060841917991638,
		-2.048403662674187e-14],
		"scale":[1.0,
		1.0,
		1.0],
		"children":[15]
	},
	{
		"name":"SurprisedToe_L",
		"translation":[29.13690757751465,
		-22.16394805908203,
		35.95759201049805],
		"rotation":[0.00007956281478982419,
		-0.9946339130401611,
		0.0021320052910596134,
		-0.1034349873661995],
		"scale":[1.0,
		1.0,
		1.0]
	},
	{
		"name":"SurprisedLegs",
		"translation":[0.45668596029281618,
		25.77418327331543,
		8.906240463256836],
		"rotation":[0.0,
		0.0,
		0.0,
		-1.0],
		"scale":[1.0,
		1.0,
		1.0],
		"children":[17]
	},
	{
		"name":"SurprisedLegs",
		"mesh":2,
		"skin":1
	},
	{
		"name":"Body",
		"translation":[-0.22834298014640809,
		37.11290740966797,
		-4.453120231628418],
		"rotation":[0.0,
		0.0,
		0.0,
		-1.0],
		"scale":[1.0,
		1.2000000476837159,
		1.0],
		"mesh":3,
		"children":[19,
		20]
	},
	{
		"name":"Ears",
		"translation":[-27.549463272094728,
		183.15719604492188,
		57.23564910888672],
		"rotation":[0.0,
		0.0,
		0.0,
		-1.0],
		"scale":[1.0,
		1.0,
		1.0],
		"mesh":4
	},
	{
		"name":"Eyes",
		"translation":[3.552713678800501e-15,
		123.28394317626953,
		109.73260498046875],
		"rotation":[0.0,
		0.0,
		0.0,
		-1.0],
		"scale":[1.0,
		1.0,
		1.0],
		"mesh":5
	}],
	"meshes":[{
		"name":"wow.ai",
		"primitives":[{
			"attributes":{
				"POSITION":1,
				"NORMAL":2,
				"TEXCOORD_0":3
			},
			"indices":0,
			"material":0
		}]
	},
	{
		"name":"Capsule",
		"primitives":[{
			"attributes":{
				"POSITION":7,
				"NORMAL":8,
				"TEXCOORD_0":9,
				"JOINTS_0":10,
				"WEIGHTS_0":11
			},
			"indices":6,
			"material":1
		}]
	},
	{
		"name":"SurprisedLegs",
		"primitives":[{
			"attributes":{
				"POSITION":31,
				"NORMAL":32,
				"TEXCOORD_0":33,
				"JOINTS_0":34,
				"WEIGHTS_0":35
			},
			"indices":30,
			"material":1
		}]
	},
	{
		"name":"Body",
		"primitives":[{
			"attributes":{
				"POSITION":37,
				"NORMAL":38,
				"TEXCOORD_0":39
			},
			"indices":36,
			"material":1
		}]
	},
	{
		"name":"Ears",
		"primitives":[{
			"attributes":{
				"POSITION":45,
				"NORMAL":46,
				"TEXCOORD_0":47
			},
			"indices":44,
			"material":1
		}]
	},
	{
		"name":"Eyes",
		"primitives":[{
			"attributes":{
				"POSITION":51,
				"NORMAL":52,
				"TEXCOORD_0":53
			},
			"indices":50,
			"material":2
		}]
	}],
	"skins":[{
		"inverseBindMatrices":56,
		"joints":[5,
		6,
		7]
	},
	{
		"inverseBindMatrices":57,
		"joints":[8,
		9,
		10,
		11,
		12,
		13,
		14,
		15]
	}],
	"accessors":[{
		"bufferView":0,
		"min":[0],
		"type":"SCALAR",
		"componentType":5123,
		"byteOffset":0,
		"count":549,
		"max":[190]
	},
	{
		"bufferView":1,
		"min":[-99.70038604736328,
		-23.513519287109376,
		-1.3229166269302369],
		"type":"VEC3",
		"componentType":5126,
		"byteOffset":0,
		"count":191,
		"max":[99.70038604736328,
		23.513519287109376,
		1.3229166269302369]
	},
	{
		"bufferView":1,
		"min":[0.0,
		0.0,
		1.0],
		"type":"VEC3",
		"componentType":5126,
		"byteOffset":12,
		"count":191,
		"max":[0.0,
		0.0,
		1.0]
	},
	{
		"bufferView":1,
		"min":[0.0,
		0.0],
		"type":"VEC2",
		"componentType":5126,
		"byteOffset":24,
		"count":191,
		"max":[1.0,
		1.0]
	},
	{
		"bufferView":2,
		"min":[0.0],
		"type":"SCALAR",
		"componentType":5126,
		"byteOffset":0,
		"count":196,
		"max":[6.5]
	},
	{
		"bufferView":2,
		"min":[-0.22834298014640809,
		-20.0,
		-4.453120231628418],
		"type":"VEC3",
		"componentType":5126,
		"byteOffset":784,
		"count":196,
		"max":[-0.22834298014640809,
		37.11290740966797,
		-4.453120231628418]
	},
	{
		"bufferView":3,
		"min":[0],
		"type":"SCALAR",
		"componentType":5123,
		"byteOffset":0,
		"count":2304,
		"max":[439]
	},
	{
		"bufferView":4,
		"min":[-3.362147569656372,
		-100.15618896484375,
		-3.2738571166992189],
		"type":"VEC3",
		"componentType":5126,
		"byteOffset":0,
		"count":440,
		"max":[72.45233154296875,
		141.8043212890625,
		3.2738571166992189]
	},
	{
		"bufferView":4,
		"min":[-1.0,
		-0.9985384345054627,
		-1.0],
		"type":"VEC3",
		"componentType":5126,
		"byteOffset":12,
		"count":440,
		"max":[0.9999999403953552,
		0.9999999403953552,
		1.0]
	},
	{
		"bufferView":4,
		"min":[0.0,
		0.0],
		"type":"VEC2",
		"componentType":5126,
		"byteOffset":24,
		"count":440,
		"max":[1.0,
		1.0]
	},
	{
		"bufferView":5,
		"min":[0,
		0,
		2,
		0],
		"type":"VEC4",
		"componentType":5123,
		"byteOffset":0,
		"count":440,
		"max":[1,
		1,
		2,
		0]
	},
	{
		"bufferView":6,
		"min":[0.5111772418022156,
		0.0,
		0.0,
		0.0],
		"type":"VEC4",
		"componentType":5126,
		"byteOffset":0,
		"count":440,
		"max":[1.0,
		0.4888074994087219,
		0.0,
		0.0]
	},
	{
		"bufferView":7,
		"min":[0.0],
		"type":"SCALAR",
		"componentType":5126,
		"byteOffset":0,
		"count":196,
		"max":[6.5]
	},
	{
		"bufferView":7,
		"min":[-0.6806582808494568,
		-8.647667731451512e-17,
		4.01562552995137e-31,
		-0.9396926164627075],
		"type":"VEC4",
		"componentType":5126,
		"byteOffset":784,
		"count":196,
		"max":[0.7954590320587158,
		-8.601397793497892e-31,
		8.647667731451512e-17,
		0.6690888404846191]
	},
	{
		"bufferView":8,
		"min":[0.0],
		"type":"SCALAR",
		"componentType":5126,
		"byteOffset":0,
		"count":196,
		"max":[6.5]
	},
	{
		"bufferView":8,
		"min":[0.6378782987594605,
		0.18573491275310517,
		0.3042750060558319,
		-0.6388488411903381],
		"type":"VEC4",
		"componentType":5126,
		"byteOffset":784,
		"count":196,
		"max":[0.8135213851928711,
		0.30389320850372317,
		0.3881645202636719,
		-0.39116981625556948]
	},
	{
		"bufferView":9,
		"min":[0.0],
		"type":"SCALAR",
		"componentType":5126,
		"byteOffset":0,
		"count":196,
		"max":[6.5]
	},
	{
		"bufferView":9,
		"min":[-0.597736120223999,
		-3.8979765371395299e-16,
		0.0,
		-1.0],
		"type":"VEC4",
		"componentType":5126,
		"byteOffset":784,
		"count":196,
		"max":[0.000011263527994742617,
		0.0,
		2.906301596834125e-16,
		-0.8016929030418396]
	},
	{
		"bufferView":10,
		"min":[0.0],
		"type":"SCALAR",
		"componentType":5126,
		"byteOffset":0,
		"count":196,
		"max":[6.5]
	},
	{
		"bufferView":10,
		"min":[-0.026579203084111215,
		-22.403148651123048,
		-46.22784423828125],
		"type":"VEC3",
		"componentType":5126,
		"byteOffset":784,
		"count":196,
		"max":[0.004725283477455378,
		24.705995559692384,
		-39.118614196777347]
	},
	{
		"bufferView":11,
		"min":[0.0],
		"type":"SCALAR",
		"componentType":5126,
		"byteOffset":0,
		"count":196,
		"max":[6.5]
	},
	{
		"bufferView":11,
		"min":[6.54719445325469e-10,
		-0.43009963631629946,
		0.0006563168135471642,
		-0.9028217196464539],
		"type":"VEC4",
		"componentType":5126,
		"byteOffset":784,
		"count":196,
		"max":[0.2685098946094513,
		0.42910778522491457,
		0.12721849977970124,
		0.9005776047706604]
	},
	{
		"bufferView":12,
		"min":[0.0],
		"type":"SCALAR",
		"componentType":5126,
		"byteOffset":0,
		"count":196,
		"max":[6.5]
	},
	{
		"bufferView":12,
		"min":[0.6378782987594605,
		-0.30389320850372317,
		-0.3881645202636719,
		-0.6388488411903381],
		"type":"VEC4",
		"componentType":5126,
		"byteOffset":784,
		"count":196,
		"max":[0.8135213851928711,
		-0.18573491275310517,
		-0.3042750060558319,
		-0.39116981625556948]
	},
	{
		"bufferView":13,
		"min":[0.0],
		"type":"SCALAR",
		"componentType":5126,
		"byteOffset":0,
		"count":196,
		"max":[6.5]
	},
	{
		"bufferView":13,
		"min":[-0.597736120223999,
		-8.213139035416668e-16,
		0.0,
		-1.0],
		"type":"VEC4",
		"componentType":5126,
		"byteOffset":784,
		"count":196,
		"max":[0.5827316641807556,
		0.0,
		5.889337496546793e-16,
		0.8409942984580994]
	},
	{
		"bufferView":14,
		"min":[0.0],
		"type":"SCALAR",
		"componentType":5126,
		"byteOffset":0,
		"count":196,
		"max":[6.5]
	},
	{
		"bufferView":14,
		"min":[-0.004725322127342224,
		-22.403148651123048,
		-46.22784423828125],
		"type":"VEC3",
		"componentType":5126,
		"byteOffset":784,
		"count":196,
		"max":[0.02657879702746868,
		24.705995559692384,
		-39.118614196777347]
	},
	{
		"bufferView":15,
		"min":[0.0],
		"type":"SCALAR",
		"componentType":5126,
		"byteOffset":0,
		"count":196,
		"max":[6.5]
	},
	{
		"bufferView":15,
		"min":[-1.560493704741428e-12,
		-0.42910778522491457,
		-0.12721849977970124,
		-0.9028217196464539],
		"type":"VEC4",
		"componentType":5126,
		"byteOffset":784,
		"count":196,
		"max":[0.2685098946094513,
		0.43009963631629946,
		-0.0006563181523233652,
		0.9005776047706604]
	},
	{
		"bufferView":16,
		"min":[0],
		"type":"SCALAR",
		"componentType":5123,
		"byteOffset":0,
		"count":2112,
		"max":[432]
	},
	{
		"bufferView":17,
		"min":[-51.573707580566409,
		-194.16331481933595,
		-18.682153701782228],
		"type":"VEC3",
		"componentType":5126,
		"byteOffset":0,
		"count":433,
		"max":[51.573707580566409,
		20.452844619750978,
		18.336742401123048]
	},
	{
		"bufferView":17,
		"min":[-0.9981124401092529,
		-0.9996673464775086,
		-0.9977301359176636],
		"type":"VEC3",
		"componentType":5126,
		"byteOffset":12,
		"count":433,
		"max":[0.9981124401092529,
		0.9999924898147583,
		0.9977304339408875]
	},
	{
		"bufferView":17,
		"min":[0.0,
		0.0],
		"type":"VEC2",
		"componentType":5126,
		"byteOffset":24,
		"count":433,
		"max":[1.0,
		1.0]
	},
	{
		"bufferView":18,
		"min":[0,
		0,
		0,
		0],
		"type":"VEC4",
		"componentType":5123,
		"byteOffset":0,
		"count":433,
		"max":[7,
		6,
		5,
		4]
	},
	{
		"bufferView":19,
		"min":[0.7856565117835999,
		0.0,
		0.0,
		0.0],
		"type":"VEC4",
		"componentType":5126,
		"byteOffset":0,
		"count":433,
		"max":[1.0,
		0.21431295573711396,
		0.0,
		0.0]
	},
	{
		"bufferView":20,
		"min":[0],
		"type":"SCALAR",
		"componentType":5123,
		"byteOffset":0,
		"count":36,
		"max":[23]
	},
	{
		"bufferView":21,
		"min":[-107.47821807861328,
		0.0,
		-107.47821807861328],
		"type":"VEC3",
		"componentType":5126,
		"byteOffset":0,
		"count":24,
		"max":[107.47821807861328,
		214.95643615722657,
		107.47821807861328]
	},
	{
		"bufferView":21,
		"min":[-1.0,
		-1.0,
		-1.0],
		"type":"VEC3",
		"componentType":5126,
		"byteOffset":12,
		"count":24,
		"max":[1.0,
		1.0,
		1.0]
	},
	{
		"bufferView":21,
		"min":[0.0,
		0.0],
		"type":"VEC2",
		"componentType":5126,
		"byteOffset":24,
		"count":24,
		"max":[1.0,
		1.0]
	},
	{
		"bufferView":22,
		"min":[0.0],
		"type":"SCALAR",
		"componentType":5126,
		"byteOffset":0,
		"count":196,
		"max":[6.5]
	},
	{
		"bufferView":22,
		"min":[-0.22834298014640809,
		-20.0,
		-4.453120231628418],
		"type":"VEC3",
		"componentType":5126,
		"byteOffset":784,
		"count":196,
		"max":[-0.22834298014640809,
		37.11290740966797,
		-4.453120231628418]
	},
	{
		"bufferView":23,
		"min":[0.0],
		"type":"SCALAR",
		"componentType":5126,
		"byteOffset":0,
		"count":196,
		"max":[6.5]
	},
	{
		"bufferView":23,
		"min":[1.0,
		0.8999999761581421,
		1.0],
		"type":"VEC3",
		"componentType":5126,
		"byteOffset":784,
		"count":196,
		"max":[1.100000023841858,
		1.2000000476837159,
		1.0]
	},
	{
		"bufferView":24,
		"min":[0],
		"type":"SCALAR",
		"componentType":5123,
		"byteOffset":0,
		"count":3456,
		"max":[667]
	},
	{
		"bufferView":25,
		"min":[-31.015317916870118,
		17.275585174560548,
		-80.35018157958985],
		"type":"VEC3",
		"componentType":5126,
		"byteOffset":0,
		"count":668,
		"max":[86.11424255371094,
		157.2755889892578,
		-34.121116638183597]
	},
	{
		"bufferView":25,
		"min":[-0.9898358583450317,
		-1.0,
		-0.9898358583450317],
		"type":"VEC3",
		"componentType":5126,
		"byteOffset":12,
		"count":668,
		"max":[0.9898358583450317,
		1.0,
		0.9898358583450317]
	},
	{
		"bufferView":25,
		"min":[0.0,
		0.0],
		"type":"VEC2",
		"componentType":5126,
		"byteOffset":24,
		"count":668,
		"max":[1.0,
		1.0]
	},
	{
		"bufferView":26,
		"min":[0.0],
		"type":"SCALAR",
		"componentType":5126,
		"byteOffset":0,
		"count":196,
		"max":[6.5]
	},
	{
		"bufferView":26,
		"min":[1.0,
		0.699999988079071,
		1.0],
		"type":"VEC3",
		"componentType":5126,
		"byteOffset":784,
		"count":196,
		"max":[1.0,
		1.0,
		1.0]
	},
	{
		"bufferView":27,
		"min":[0],
		"type":"SCALAR",
		"componentType":5123,
		"byteOffset":0,
		"count":6912,
		"max":[1331]
	},
	{
		"bufferView":28,
		"min":[-83.55374145507813,
		-27.007402420043947,
		-2.0],
		"type":"VEC3",
		"componentType":5126,
		"byteOffset":0,
		"count":1332,
		"max":[83.55374145507813,
		27.007402420043947,
		2.0]
	},
	{
		"bufferView":28,
		"min":[-1.0,
		-1.0,
		-0.9999300837516785],
		"type":"VEC3",
		"componentType":5126,
		"byteOffset":12,
		"count":1332,
		"max":[1.0,
		1.0,
		0.9999300837516785]
	},
	{
		"bufferView":28,
		"min":[0.0,
		0.0],
		"type":"VEC2",
		"componentType":5126,
		"byteOffset":24,
		"count":1332,
		"max":[1.0,
		1.0]
	},
	{
		"bufferView":29,
		"min":[0.0],
		"type":"SCALAR",
		"componentType":5126,
		"byteOffset":0,
		"count":196,
		"max":[6.5]
	},
	{
		"bufferView":29,
		"min":[1.0,
		0.0,
		1.0],
		"type":"VEC3",
		"componentType":5126,
		"byteOffset":784,
		"count":196,
		"max":[1.0,
		1.0,
		1.0]
	},
	{
		"bufferView":30,
		"min":[-3.7750556452295779e-16,
		0.7628370523452759,
		-0.6465907692909241,
		0.0,
		-5.7777898331617079e-33,
		0.004975062794983387,
		0.7628370523452759,
		0.0,
		1.0,
		1.401308940973751e-16,
		-4.185159352136956e-16,
		0.0,
		-2.1399609786022096e-14,
		-0.24524591863155366,
		-140.47227478027345,
		1.0],
		"type":"MAT4",
		"componentType":5126,
		"byteOffset":0,
		"count":3,
		"max":[-1.8369701465288538e-16,
		0.9999876022338867,
		-0.004975062794983387,
		0.0,
		2.286521236581049e-16,
		0.6465907692909241,
		0.9999876022338867,
		0.0,
		1.0,
		1.8369475148672944e-16,
		-9.13904192527042e-19,
		0.0,
		4.169530863694197e-14,
		8.89937686920166,
		119.58401489257813,
		1.0]
	},
	{
		"bufferView":31,
		"min":[-1.0,
		6.875760811403398e-14,
		-1.1250843812149469e-8,
		0.0,
		-0.0002827761054504663,
		-0.0013674357905983925,
		-0.004257588647305965,
		0.0,
		-0.20576022565364839,
		-0.9786022901535034,
		-1.0,
		0.0,
		-49.5382080078125,
		-9.750422477722168,
		-18.96896743774414,
		1.0],
		"type":"MAT4",
		"componentType":5126,
		"byteOffset":0,
		"count":8,
		"max":[0.978603184223175,
		0.2057604193687439,
		0.20575955510139466,
		0.0,
		0.0002827761054504663,
		1.0,
		0.9999991059303284,
		0.0,
		0.20576022565364839,
		0.9786014556884766,
		0.9785932898521423,
		0.0,
		49.5382080078125,
		188.63906860351563,
		69.26094818115235,
		1.0]
	}],
	"bufferViews":[{
		"target":34963,
		"buffer":0,
		"byteOffset":0,
		"byteLength":1098
	},
	{
		"target":34962,
		"buffer":0,
		"byteOffset":1100,
		"byteLength":6112,
		"byteStride":32
	},
	{
		"buffer":1,
		"byteOffset":0,
		"byteLength":3136
	},
	{
		"target":34963,
		"buffer":2,
		"byteOffset":0,
		"byteLength":4608
	},
	{
		"target":34962,
		"buffer":2,
		"byteOffset":4608,
		"byteLength":14080,
		"byteStride":32
	},
	{
		"target":34962,
		"buffer":2,
		"byteOffset":18688,
		"byteLength":3520
	},
	{
		"target":34962,
		"buffer":2,
		"byteOffset":22208,
		"byteLength":7040
	},
	{
		"buffer":3,
		"byteOffset":0,
		"byteLength":3920
	},
	{
		"buffer":4,
		"byteOffset":0,
		"byteLength":3920
	},
	{
		"buffer":5,
		"byteOffset":0,
		"byteLength":3920
	},
	{
		"buffer":6,
		"byteOffset":0,
		"byteLength":3136
	},
	{
		"buffer":6,
		"byteOffset":3136,
		"byteLength":3920
	},
	{
		"buffer":7,
		"byteOffset":0,
		"byteLength":3920
	},
	{
		"buffer":8,
		"byteOffset":0,
		"byteLength":3920
	},
	{
		"buffer":9,
		"byteOffset":0,
		"byteLength":3136
	},
	{
		"buffer":9,
		"byteOffset":3136,
		"byteLength":3920
	},
	{
		"target":34963,
		"buffer":10,
		"byteOffset":0,
		"byteLength":4224
	},
	{
		"target":34962,
		"buffer":10,
		"byteOffset":4224,
		"byteLength":13856,
		"byteStride":32
	},
	{
		"target":34962,
		"buffer":10,
		"byteOffset":18080,
		"byteLength":3464
	},
	{
		"target":34962,
		"buffer":10,
		"byteOffset":21544,
		"byteLength":6928
	},
	{
		"target":34963,
		"buffer":11,
		"byteOffset":0,
		"byteLength":72
	},
	{
		"target":34962,
		"buffer":11,
		"byteOffset":72,
		"byteLength":768,
		"byteStride":32
	},
	{
		"buffer":12,
		"byteOffset":0,
		"byteLength":3136
	},
	{
		"buffer":12,
		"byteOffset":3136,
		"byteLength":3136
	},
	{
		"target":34963,
		"buffer":13,
		"byteOffset":0,
		"byteLength":6912
	},
	{
		"target":34962,
		"buffer":13,
		"byteOffset":6912,
		"byteLength":21376,
		"byteStride":32
	},
	{
		"buffer":14,
		"byteOffset":0,
		"byteLength":3136
	},
	{
		"target":34963,
		"buffer":15,
		"byteOffset":0,
		"byteLength":13824
	},
	{
		"target":34962,
		"buffer":15,
		"byteOffset":13824,
		"byteLength":42624,
		"byteStride":32
	},
	{
		"buffer":16,
		"byteOffset":0,
		"byteLength":3136
	},
	{
		"buffer":17,
		"byteOffset":0,
		"byteLength":192
	},
	{
		"buffer":18,
		"byteOffset":0,
		"byteLength":512
	}],
	"buffers":[{
		"uri":"data:application/octet-stream;base64,",
		"byteLength":7212
	},
	{
		"uri":"data:application/octet-stream;base64,",
		"byteLength":3136
	},
	{
		"uri":"data:application/octet-stream;base64,",
		"byteLength":29248
	},
	{
		"uri":"data:application/octet-stream;base64,",
		"byteLength":3920
	},
	{
		"uri":"data:application/octet-stream;base64,",
		"byteLength":3920
	},
	{
		"uri":"data:application/octet-stream;base64,",
		"byteLength":3920
	},
	{
		"uri":"data:application/octet-stream;base64,",
		"byteLength":7056
	},
	{
		"uri":"data:application/octet-stream;base64,",
		"byteLength":3920
	},
	{
		"uri":"data:application/octet-stream;base64,",
		"byteLength":3920
	},
	{
		"uri":"data:application/octet-stream;base64,",
		"byteLength":7056
	},
	{
		"uri":"data:application/octet-stream;base64,",
		"byteLength":28472
	},
	{
		"uri":"data:application/octet-stream;base64,",
		"byteLength":840
	},
	{
		"uri":"data:application/octet-stream;base64,",
		"byteLength":6272
	},
	{
		"uri":"data:application/octet-stream;base64,",
		"byteLength":28288
	},
	{
		"uri":"data:application/octet-stream;base64,",
		"byteLength":3136
	},
	{
		"uri":"data:application/octet-stream;base64,",
		"byteLength":56448
	},
	{
		"uri":"data:application/octet-stream;base64,",
		"byteLength":3136
	},
	{
		"uri":"data:application/octet-stream;base64,",
		"byteLength":192
	},
	{
		"uri":"data:application/octet-stream;base64,",
		"byteLength":512
	}],
	"materials":[{
		"pbrMetallicRoughness":{
			"baseColorFactor":[0.2,
			0.2,
			0.2,
			1.0],
			"metallicFactor":0.0,
			"roughnessFactor":0.5
		},
		"emissiveFactor":[0.0,
		0.0,
		0.0],
		"alphaMode":"OPAQUE",
		"doubleSided":true,
		"name":"Mat.2"
	},
	{
		"pbrMetallicRoughness":{
			"baseColorFactor":[0.93,
			0.23498000000000006,
			0.2232,
			1.0],
			"metallicFactor":0.0,
			"roughnessFactor":0.5
		},
		"emissiveFactor":[0.0,
		0.0,
		0.0],
		"alphaMode":"OPAQUE",
		"doubleSided":true,
		"name":"Mat.1"
	},
	{
		"pbrMetallicRoughness":{
			"baseColorFactor":[0.8,
			0.8,
			0.8,
			1.0],
			"metallicFactor":0.0,
			"roughnessFactor":0.5
		},
		"emissiveFactor":[0.0,
		0.0,
		0.0],
		"alphaMode":"OPAQUE",
		"doubleSided":true,
		"name":"Mat.2"
	}],
	"animations":[{
		"samplers":[{
			"input":4,
			"interpolation":"LINEAR",
			"output":5
		},
		{
			"input":12,
			"interpolation":"LINEAR",
			"output":13
		},
		{
			"input":14,
			"interpolation":"LINEAR",
			"output":15
		},
		{
			"input":16,
			"interpolation":"LINEAR",
			"output":17
		},
		{
			"input":18,
			"interpolation":"LINEAR",
			"output":19
		},
		{
			"input":20,
			"interpolation":"LINEAR",
			"output":21
		},
		{
			"input":22,
			"interpolation":"LINEAR",
			"output":23
		},
		{
			"input":24,
			"interpolation":"LINEAR",
			"output":25
		},
		{
			"input":26,
			"interpolation":"LINEAR",
			"output":27
		},
		{
			"input":28,
			"interpolation":"LINEAR",
			"output":29
		},
		{
			"input":40,
			"interpolation":"LINEAR",
			"output":41
		},
		{
			"input":42,
			"interpolation":"LINEAR",
			"output":43
		},
		{
			"input":48,
			"interpolation":"LINEAR",
			"output":49
		},
		{
			"input":54,
			"interpolation":"LINEAR",
			"output":55
		}],
		"channels":[{
			"sampler":0,
			"target":{
				"node":2,
				"path":"translation"
			}
		},
		{
			"sampler":1,
			"target":{
				"node":6,
				"path":"rotation"
			}
		},
		{
			"sampler":2,
			"target":{
				"node":8,
				"path":"rotation"
			}
		},
		{
			"sampler":3,
			"target":{
				"node":9,
				"path":"rotation"
			}
		},
		{
			"sampler":4,
			"target":{
				"node":11,
				"path":"translation"
			}
		},
		{
			"sampler":5,
			"target":{
				"node":11,
				"path":"rotation"
			}
		},
		{
			"sampler":6,
			"target":{
				"node":12,
				"path":"rotation"
			}
		},
		{
			"sampler":7,
			"target":{
				"node":13,
				"path":"rotation"
			}
		},
		{
			"sampler":8,
			"target":{
				"node":15,
				"path":"translation"
			}
		},
		{
			"sampler":9,
			"target":{
				"node":15,
				"path":"rotation"
			}
		},
		{
			"sampler":10,
			"target":{
				"node":18,
				"path":"translation"
			}
		},
		{
			"sampler":11,
			"target":{
				"node":18,
				"path":"scale"
			}
		},
		{
			"sampler":12,
			"target":{
				"node":19,
				"path":"scale"
			}
		},
		{
			"sampler":13,
			"target":{
				"node":20,
				"path":"scale"
			}
		}]
	}]
}