{
	"asset":{
		"version":"2.0",
		"generator":"Created using the official Cinema 4D glTF Exporter 1.000x284978"
	},
	"scenes":[{
		"nodes":[0]
	}],
	"nodes":[{
		"name":"Surprised(70Frames)",
		"translation":[0.22834298014640809,
		12.887091636657715,
		4.453120231628418],
		"rotation":[0.0,
		0.0,
		0.0,
		-1.0],
		"scale":[1.0,
		1.0,
		1.0],
		"children":[1,
		2,
		16,
		18]
	},
	{
		"name":"wow.ai",
		"translation":[14.887861251831055,
		428.0157165527344,
		-20.97370719909668],
		"mesh":0,
		"rotation":[0.0,
		0.0,
		0.0,
		-1.0],
		"scale":[1.0,
		1.0,
		1.0]
	},
	{
		"name":"Body",
		"translation":[-0.22834298014640809,
		-4.493303298950195,
		-4.453120231628418],
		"rotation":[0.0,
		0.0,
		0.0,
		-1.0],
		"scale":[1.0,
		1.0,
		1.0],
		"children":[3,
		8,
		12]
	},
	{
		"name":"Capsule",
		"translation":[4.556682561181473e-16,
		-94.6170425415039,
		-32.50428009033203],
		"rotation":[6.123234262925839e-17,
		1.2246468525851679e-16,
		-1.2246468525851679e-16,
		-1.0],
		"scale":[1.0,
		1.0,
		1.0],
		"children":[4,
		5]
	},
	{
		"name":"Capsule",
		"mesh":1,
		"skin":0
	},
	{
		"name":"Joint.1",
		"translation":[-0.4536154866218567,
		140.4717559814453,
		1.4210854715202005e-14],
		"rotation":[-0.49875468015670779,
		-0.5012422204017639,
		-0.49875468015670779,
		0.5012422204017639],
		"scale":[1.0,
		1.0,
		1.0],
		"children":[6]
	},
	{
		"name":"Joint.2",
		"translation":[-3.552713678800501e-14,
		2.6944287458748747e-16,
		-154.60951232910157],
		"rotation":[-0.6924031972885132,
		-8.471187814059567e-31,
		8.129438692433705e-31,
		-0.7215107679367065],
		"scale":[1.0,
		1.0,
		1.0],
		"children":[7]
	},
	{
		"name":"Joint.3",
		"translation":[7.105427357601002e-15,
		1.577097081943181e-14,
		-108.59661102294922],
		"rotation":[5.551115123125783e-17,
		-1.4986956276420282e-16,
		-8.31943196356615e-33,
		-1.0],
		"scale":[1.0,
		1.0,
		1.0]
	},
	{
		"name":"SurprisedHip_R",
		"translation":[-12.95439624786377,
		7.647857189178467,
		0.5556597709655762],
		"rotation":[0.777883768081665,
		0.217655748128891,
		0.3710898756980896,
		-0.4580557942390442],
		"scale":[1.0,
		1.0,
		1.0],
		"children":[9]
	},
	{
		"name":"SurprisedKnee_R",
		"translation":[0.0,
		-5.440092820663267e-15,
		-88.22969818115235],
		"rotation":[-0.4645100235939026,
		-2.1619294398337399e-16,
		1.134004401061607e-16,
		-0.885567843914032],
		"scale":[1.0,
		1.0,
		1.0],
		"children":[10]
	},
	{
		"name":"SurprisedAnkle_R",
		"translation":[0.0,
		0.002188877435401082,
		-97.08753204345703],
		"rotation":[5.275963665951622e-9,
		-0.7081278562545776,
		-0.7060841917991638,
		-5.260737179213493e-9],
		"scale":[1.0,
		1.0,
		1.0],
		"children":[11]
	},
	{
		"name":"SurprisedToe_R",
		"translation":[-0.01592184789478779,
		18.697513580322267,
		-42.3198127746582],
		"rotation":[0.2044106423854828,
		0.41920411586761477,
		0.09669356048107147,
		0.879280686378479],
		"scale":[1.0,
		1.0,
		1.0]
	},
	{
		"name":"SurprisedHip_L",
		"translation":[14.324454307556153,
		7.647857189178467,
		0.5556597709655762],
		"rotation":[0.777883768081665,
		-0.217655748128891,
		-0.3710898756980896,
		-0.4580557942390442],
		"scale":[1.0,
		1.0,
		1.0],
		"children":[13]
	},
	{
		"name":"SurprisedKnee_L",
		"translation":[1.2521816916688522e-11,
		1.5444923118224098e-11,
		-88.22969818115235],
		"rotation":[-0.4645100235939026,
		-6.485788187152321e-17,
		3.402013203184821e-17,
		-0.885567843914032],
		"scale":[1.0,
		1.0,
		1.0],
		"children":[14]
	},
	{
		"name":"SurprisedAnkle_L",
		"translation":[-2.3592239273284578e-15,
		0.002188877435401082,
		-97.08753204345703],
		"rotation":[-6.541616816920122e-15,
		-0.7081278562545776,
		-0.7060841917991638,
		6.560550544390097e-15],
		"scale":[1.0,
		1.0,
		1.0],
		"children":[15]
	},
	{
		"name":"SurprisedToe_L",
		"translation":[0.015921251848340036,
		18.697513580322267,
		-42.3198127746582],
		"rotation":[0.2044106423854828,
		-0.41920411586761477,
		-0.09669354557991028,
		0.879280686378479],
		"scale":[1.0,
		1.0,
		1.0]
	},
	{
		"name":"SurprisedLegs",
		"translation":[0.45668596029281618,
		25.77418327331543,
		8.906240463256836],
		"rotation":[0.0,
		0.0,
		0.0,
		-1.0],
		"scale":[1.0,
		1.0,
		1.0],
		"children":[17]
	},
	{
		"name":"SurprisedLegs",
		"mesh":2,
		"skin":1
	},
	{
		"name":"Body",
		"translation":[-0.22834298014640809,
		-4.493303298950195,
		-4.453120231628418],
		"mesh":3,
		"rotation":[0.0,
		0.0,
		0.0,
		-1.0],
		"scale":[1.0728490352630616,
		0.9814528226852417,
		1.0],
		"children":[19,
		20]
	},
	{
		"name":"Ears",
		"translation":[-27.549463272094728,
		183.15719604492188,
		57.23564910888672],
		"mesh":4,
		"rotation":[0.0,
		0.0,
		0.0,
		-1.0],
		"scale":[1.0,
		0.7814528346061707,
		1.0]
	},
	{
		"name":"Eyes",
		"translation":[3.552713678800501e-15,
		123.28394317626953,
		109.73260498046875],
		"mesh":5,
		"rotation":[0.0,
		0.0,
		0.0,
		-1.0],
		"scale":[1.0,
		0.2715094983577728,
		1.0]
	}],
	"meshes":[{
		"name":"wow.ai",
		"primitives":[{
			"attributes":{
				"POSITION":1,
				"NORMAL":2,
				"TEXCOORD_0":3
			},
			"indices":0,
			"material":0
		}]
	},
	{
		"name":"Capsule",
		"primitives":[{
			"attributes":{
				"POSITION":7,
				"NORMAL":8,
				"TEXCOORD_0":9,
				"JOINTS_0":10,
				"WEIGHTS_0":11
			},
			"indices":6,
			"material":1
		}]
	},
	{
		"name":"SurprisedLegs",
		"primitives":[{
			"attributes":{
				"POSITION":31,
				"NORMAL":32,
				"TEXCOORD_0":33,
				"JOINTS_0":34,
				"WEIGHTS_0":35
			},
			"indices":30,
			"material":1
		}]
	},
	{
		"name":"Body",
		"primitives":[{
			"attributes":{
				"POSITION":37,
				"NORMAL":38,
				"TEXCOORD_0":39
			},
			"indices":36,
			"material":1
		}]
	},
	{
		"name":"Ears",
		"primitives":[{
			"attributes":{
				"POSITION":45,
				"NORMAL":46,
				"TEXCOORD_0":47
			},
			"indices":44,
			"material":1
		}]
	},
	{
		"name":"Eyes",
		"primitives":[{
			"attributes":{
				"POSITION":51,
				"NORMAL":52,
				"TEXCOORD_0":53
			},
			"indices":50,
			"material":2
		}]
	}],
	"skins":[{
		"inverseBindMatrices":56,
		"joints":[5,
		6,
		7]
	},
	{
		"inverseBindMatrices":57,
		"joints":[8,
		9,
		10,
		11,
		12,
		13,
		14,
		15]
	}],
	"accessors":[{
		"bufferView":0,
		"type":"SCALAR",
		"componentType":5123,
		"count":549,
		"byteOffset":0,
		"min":[0],
		"max":[190]
	},
	{
		"bufferView":1,
		"type":"VEC3",
		"componentType":5126,
		"count":191,
		"byteOffset":0,
		"min":[-99.70038604736328,
		-23.513519287109376,
		-1.3229166269302369],
		"max":[99.70038604736328,
		23.513519287109376,
		1.3229166269302369]
	},
	{
		"bufferView":1,
		"type":"VEC3",
		"componentType":5126,
		"count":191,
		"byteOffset":12,
		"min":[0.0,
		0.0,
		1.0],
		"max":[0.0,
		0.0,
		1.0]
	},
	{
		"bufferView":1,
		"type":"VEC2",
		"componentType":5126,
		"count":191,
		"byteOffset":24,
		"min":[0.0,
		0.0],
		"max":[1.0,
		1.0]
	},
	{
		"bufferView":2,
		"type":"SCALAR",
		"componentType":5126,
		"count":71,
		"byteOffset":0,
		"min":[0.0],
		"max":[2.3333332538604738]
	},
	{
		"bufferView":2,
		"type":"VEC3",
		"componentType":5126,
		"count":71,
		"byteOffset":284,
		"min":[-0.22834298014640809,
		-20.0,
		-4.453120231628418],
		"max":[-0.22834298014640809,
		37.11290740966797,
		-4.453120231628418]
	},
	{
		"bufferView":3,
		"type":"SCALAR",
		"componentType":5123,
		"count":2304,
		"byteOffset":0,
		"min":[0],
		"max":[439]
	},
	{
		"bufferView":4,
		"type":"VEC3",
		"componentType":5126,
		"count":440,
		"byteOffset":0,
		"min":[-5.0461554527282719,
		-23.004573822021486,
		-3.2738571166992189],
		"max":[111.13861083984375,
		141.8043212890625,
		3.2738571166992189]
	},
	{
		"bufferView":4,
		"type":"VEC3",
		"componentType":5126,
		"count":440,
		"byteOffset":12,
		"min":[-0.9999996423721314,
		-0.9999758005142212,
		-0.9999999403953552],
		"max":[0.9999757409095764,
		0.9999999403953552,
		0.9999999403953552]
	},
	{
		"bufferView":4,
		"type":"VEC2",
		"componentType":5126,
		"count":440,
		"byteOffset":24,
		"min":[0.0,
		0.0],
		"max":[1.0,
		1.0]
	},
	{
		"bufferView":5,
		"type":"VEC4",
		"componentType":5123,
		"count":440,
		"byteOffset":0,
		"min":[0,
		0,
		2,
		0],
		"max":[1,
		1,
		2,
		0]
	},
	{
		"bufferView":6,
		"type":"VEC4",
		"componentType":5126,
		"count":440,
		"byteOffset":0,
		"min":[0.5111772418022156,
		0.0,
		0.0,
		0.0],
		"max":[1.0,
		0.4888074994087219,
		0.0,
		0.0]
	},
	{
		"bufferView":7,
		"type":"SCALAR",
		"componentType":5126,
		"count":71,
		"byteOffset":0,
		"min":[0.0],
		"max":[2.3333332538604738]
	},
	{
		"bufferView":7,
		"type":"VEC4",
		"componentType":5126,
		"count":71,
		"byteOffset":284,
		"min":[-0.6924031972885132,
		-8.643701896722688e-17,
		4.01562552995137e-31,
		-0.9396926164627075],
		"max":[0.7954590320587158,
		-8.471187814059567e-31,
		8.643701896722688e-17,
		0.6630374193191528]
	},
	{
		"bufferView":8,
		"type":"SCALAR",
		"componentType":5126,
		"count":71,
		"byteOffset":0,
		"min":[0.0],
		"max":[2.3333332538604738]
	},
	{
		"bufferView":8,
		"type":"VEC4",
		"componentType":5126,
		"count":71,
		"byteOffset":284,
		"min":[0.6378781795501709,
		0.18573491275310517,
		0.3042750060558319,
		-0.6388489007949829],
		"max":[0.8135213851928711,
		0.3038932681083679,
		0.3881645202636719,
		-0.39116981625556948]
	},
	{
		"bufferView":9,
		"type":"SCALAR",
		"componentType":5126,
		"count":71,
		"byteOffset":0,
		"min":[0.0],
		"max":[2.3333332538604738]
	},
	{
		"bufferView":9,
		"type":"VEC4",
		"componentType":5126,
		"count":71,
		"byteOffset":284,
		"min":[-0.597736120223999,
		-3.8979765371395299e-16,
		0.0,
		-1.0],
		"max":[0.00001126358620240353,
		0.0,
		2.906301596834125e-16,
		-0.8016929030418396]
	},
	{
		"bufferView":10,
		"type":"SCALAR",
		"componentType":5126,
		"count":71,
		"byteOffset":0,
		"min":[0.0],
		"max":[2.3333332538604738]
	},
	{
		"bufferView":10,
		"type":"VEC3",
		"componentType":5126,
		"count":71,
		"byteOffset":284,
		"min":[-0.026579203084111215,
		-22.403148651123048,
		-46.22784423828125],
		"max":[0.004725283477455378,
		24.705995559692384,
		-39.118614196777347]
	},
	{
		"bufferView":11,
		"type":"SCALAR",
		"componentType":5126,
		"count":71,
		"byteOffset":0,
		"min":[0.0],
		"max":[2.3333332538604738]
	},
	{
		"bufferView":11,
		"type":"VEC4",
		"componentType":5126,
		"count":71,
		"byteOffset":284,
		"min":[6.54252818588219e-10,
		-0.43009963631629946,
		0.0006563100614584982,
		-0.9028217196464539],
		"max":[0.2685098946094513,
		0.42910778522491457,
		0.12721849977970124,
		0.9005776047706604]
	},
	{
		"bufferView":12,
		"type":"SCALAR",
		"componentType":5126,
		"count":71,
		"byteOffset":0,
		"min":[0.0],
		"max":[2.3333332538604738]
	},
	{
		"bufferView":12,
		"type":"VEC4",
		"componentType":5126,
		"count":71,
		"byteOffset":284,
		"min":[0.6378781795501709,
		-0.3038932681083679,
		-0.3881645202636719,
		-0.6388489007949829],
		"max":[0.8135213851928711,
		-0.18573491275310517,
		-0.3042750060558319,
		-0.39116981625556948]
	},
	{
		"bufferView":13,
		"type":"SCALAR",
		"componentType":5126,
		"count":71,
		"byteOffset":0,
		"min":[0.0],
		"max":[2.3333332538604738]
	},
	{
		"bufferView":13,
		"type":"VEC4",
		"componentType":5126,
		"count":71,
		"byteOffset":284,
		"min":[-0.597736120223999,
		-8.213139035416668e-16,
		-4.884801852249464e-24,
		-1.0],
		"max":[0.5827316641807556,
		0.0,
		5.889337496546793e-16,
		0.8409942984580994]
	},
	{
		"bufferView":14,
		"type":"SCALAR",
		"componentType":5126,
		"count":71,
		"byteOffset":0,
		"min":[0.0],
		"max":[2.3333332538604738]
	},
	{
		"bufferView":14,
		"type":"VEC3",
		"componentType":5126,
		"count":71,
		"byteOffset":284,
		"min":[-0.004725601524114609,
		-22.403148651123048,
		-46.22784423828125],
		"max":[0.026578515768051149,
		24.705995559692384,
		-39.118614196777347]
	},
	{
		"bufferView":15,
		"type":"SCALAR",
		"componentType":5126,
		"count":71,
		"byteOffset":0,
		"min":[0.0],
		"max":[2.3333332538604738]
	},
	{
		"bufferView":15,
		"type":"VEC4",
		"componentType":5126,
		"count":71,
		"byteOffset":284,
		"min":[-2.8825539732935114e-9,
		-0.42910778522491457,
		-0.12721849977970124,
		-0.9028217196464539],
		"max":[0.2685098946094513,
		0.43009963631629946,
		-0.0006563242059201002,
		0.9005776047706604]
	},
	{
		"bufferView":16,
		"type":"SCALAR",
		"componentType":5123,
		"count":2112,
		"byteOffset":0,
		"min":[0],
		"max":[421]
	},
	{
		"bufferView":17,
		"type":"VEC3",
		"componentType":5126,
		"count":422,
		"byteOffset":0,
		"min":[-51.573707580566409,
		-194.16331481933595,
		-19.424654006958009],
		"max":[51.573707580566409,
		-21.1644344329834,
		18.336742401123048]
	},
	{
		"bufferView":17,
		"type":"VEC3",
		"componentType":5126,
		"count":422,
		"byteOffset":12,
		"min":[-0.9981124401092529,
		-0.9996673464775086,
		-0.9857796430587769],
		"max":[0.9981123805046082,
		0.9996674060821533,
		0.9903137683868408]
	},
	{
		"bufferView":17,
		"type":"VEC2",
		"componentType":5126,
		"count":422,
		"byteOffset":24,
		"min":[0.0,
		0.0],
		"max":[1.0,
		1.0]
	},
	{
		"bufferView":18,
		"type":"VEC4",
		"componentType":5123,
		"count":422,
		"byteOffset":0,
		"min":[0,
		0,
		0,
		0],
		"max":[7,
		6,
		5,
		4]
	},
	{
		"bufferView":19,
		"type":"VEC4",
		"componentType":5126,
		"count":422,
		"byteOffset":0,
		"min":[0.7856565117835999,
		0.0,
		0.0,
		0.0],
		"max":[1.0,
		0.21431295573711396,
		0.0,
		0.0]
	},
	{
		"bufferView":20,
		"type":"SCALAR",
		"componentType":5123,
		"count":36,
		"byteOffset":0,
		"min":[0],
		"max":[23]
	},
	{
		"bufferView":21,
		"type":"VEC3",
		"componentType":5126,
		"count":24,
		"byteOffset":0,
		"min":[-107.47821807861328,
		0.0,
		-107.47821807861328],
		"max":[107.47821807861328,
		214.95643615722657,
		107.47821807861328]
	},
	{
		"bufferView":21,
		"type":"VEC3",
		"componentType":5126,
		"count":24,
		"byteOffset":12,
		"min":[-1.0,
		-1.0,
		-1.0],
		"max":[1.0,
		1.0,
		1.0]
	},
	{
		"bufferView":21,
		"type":"VEC2",
		"componentType":5126,
		"count":24,
		"byteOffset":24,
		"min":[0.0,
		0.0],
		"max":[1.0,
		1.0]
	},
	{
		"bufferView":22,
		"type":"SCALAR",
		"componentType":5126,
		"count":71,
		"byteOffset":0,
		"min":[0.0],
		"max":[2.3333332538604738]
	},
	{
		"bufferView":22,
		"type":"VEC3",
		"componentType":5126,
		"count":71,
		"byteOffset":284,
		"min":[-0.22834298014640809,
		-20.0,
		-4.453120231628418],
		"max":[-0.22834298014640809,
		37.11290740966797,
		-4.453120231628418]
	},
	{
		"bufferView":23,
		"type":"SCALAR",
		"componentType":5126,
		"count":71,
		"byteOffset":0,
		"min":[0.0],
		"max":[2.3333332538604738]
	},
	{
		"bufferView":23,
		"type":"VEC3",
		"componentType":5126,
		"count":71,
		"byteOffset":284,
		"min":[1.0,
		0.8999999761581421,
		1.0],
		"max":[1.100000023841858,
		1.2000000476837159,
		1.0]
	},
	{
		"bufferView":24,
		"type":"SCALAR",
		"componentType":5123,
		"count":3456,
		"byteOffset":0,
		"min":[0],
		"max":[667]
	},
	{
		"bufferView":25,
		"type":"VEC3",
		"componentType":5126,
		"count":668,
		"byteOffset":0,
		"min":[-31.015317916870118,
		17.275585174560548,
		-80.35018157958985],
		"max":[86.11424255371094,
		157.2755889892578,
		-34.121116638183597]
	},
	{
		"bufferView":25,
		"type":"VEC3",
		"componentType":5126,
		"count":668,
		"byteOffset":12,
		"min":[-0.9898358583450317,
		-1.0,
		-0.9898358583450317],
		"max":[0.9898358583450317,
		1.0,
		0.9898358583450317]
	},
	{
		"bufferView":25,
		"type":"VEC2",
		"componentType":5126,
		"count":668,
		"byteOffset":24,
		"min":[0.0,
		0.0],
		"max":[1.0,
		1.0]
	},
	{
		"bufferView":26,
		"type":"SCALAR",
		"componentType":5126,
		"count":71,
		"byteOffset":0,
		"min":[0.0],
		"max":[2.3333332538604738]
	},
	{
		"bufferView":26,
		"type":"VEC3",
		"componentType":5126,
		"count":71,
		"byteOffset":284,
		"min":[1.0,
		0.699999988079071,
		1.0],
		"max":[1.0,
		1.0,
		1.0]
	},
	{
		"bufferView":27,
		"type":"SCALAR",
		"componentType":5123,
		"count":6912,
		"byteOffset":0,
		"min":[0],
		"max":[1331]
	},
	{
		"bufferView":28,
		"type":"VEC3",
		"componentType":5126,
		"count":1332,
		"byteOffset":0,
		"min":[-83.55374145507813,
		-27.007402420043947,
		-2.0],
		"max":[83.55374145507813,
		27.007402420043947,
		2.0]
	},
	{
		"bufferView":28,
		"type":"VEC3",
		"componentType":5126,
		"count":1332,
		"byteOffset":12,
		"min":[-1.0,
		-1.0,
		-0.9999300837516785],
		"max":[1.0,
		1.0,
		0.9999300837516785]
	},
	{
		"bufferView":28,
		"type":"VEC2",
		"componentType":5126,
		"count":1332,
		"byteOffset":24,
		"min":[0.0,
		0.0],
		"max":[1.0,
		1.0]
	},
	{
		"bufferView":29,
		"type":"SCALAR",
		"componentType":5126,
		"count":71,
		"byteOffset":0,
		"min":[0.0],
		"max":[2.3333332538604738]
	},
	{
		"bufferView":29,
		"type":"VEC3",
		"componentType":5126,
		"count":71,
		"byteOffset":284,
		"min":[1.0,
		0.0,
		1.0],
		"max":[1.0,
		1.0,
		1.0]
	},
	{
		"bufferView":30,
		"type":"MAT4",
		"componentType":5126,
		"count":3,
		"byteOffset":0,
		"min":[-4.832398667655444e-16,
		0.03618427366018295,
		-0.9993451237678528,
		0.0,
		-2.333456720619575e-30,
		0.004975062794983387,
		0.03618427366018295,
		0.0,
		1.0,
		6.646942988248475e-18,
		-4.833158350330013e-16,
		0.0,
		-1.4294182428421094e-14,
		-0.24524591863155366,
		-140.47227478027345,
		1.0],
		"max":[-1.8369701465288538e-16,
		0.9999876022338867,
		-0.004975062794983387,
		0.0,
		1.0845842472104427e-17,
		0.9993451237678528,
		0.9999876022338867,
		0.0,
		1.0,
		1.8369475148672944e-16,
		-9.13904192527042e-19,
		0.0,
		5.2792277114525196e-14,
		14.115174293518067,
		109.42347717285156,
		1.0]
	},
	{
		"bufferView":31,
		"type":"MAT4",
		"componentType":5126,
		"count":8,
		"byteOffset":0,
		"min":[-1.0,
		-0.6966761350631714,
		-0.697665810585022,
		0.0,
		-0.0013380041345953942,
		-0.48562172055244448,
		-1.0399305416797234e-8,
		0.0,
		-0.7767265439033508,
		-0.5641614198684692,
		-1.0,
		0.0,
		-49.5382080078125,
		-8.785096168518067,
		16.040620803833009,
		1.0],
		"max":[0.6298365592956543,
		0.6966761350631714,
		0.697665810585022,
		0.0,
		0.0013380041345953942,
		1.0,
		0.8964563012123108,
		0.0,
		0.7767265439033508,
		0.2784000039100647,
		0.280031681060791,
		0.0,
		49.5382080078125,
		188.63906860351563,
		84.40629577636719,
		1.0]
	}],
	"bufferViews":[{
		"buffer":0,
		"byteOffset":0,
		"byteLength":1098,
		"target":34963
	},
	{
		"buffer":0,
		"byteOffset":1100,
		"byteLength":6112,
		"target":34962,
		"byteStride":32
	},
	{
		"buffer":1,
		"byteOffset":0,
		"byteLength":1136
	},
	{
		"buffer":2,
		"byteOffset":0,
		"byteLength":4608,
		"target":34963
	},
	{
		"buffer":2,
		"byteOffset":4608,
		"byteLength":14080,
		"target":34962,
		"byteStride":32
	},
	{
		"buffer":2,
		"byteOffset":18688,
		"byteLength":3520,
		"target":34962
	},
	{
		"buffer":2,
		"byteOffset":22208,
		"byteLength":7040,
		"target":34962
	},
	{
		"buffer":3,
		"byteOffset":0,
		"byteLength":1420
	},
	{
		"buffer":4,
		"byteOffset":0,
		"byteLength":1420
	},
	{
		"buffer":5,
		"byteOffset":0,
		"byteLength":1420
	},
	{
		"buffer":6,
		"byteOffset":0,
		"byteLength":1136
	},
	{
		"buffer":6,
		"byteOffset":1136,
		"byteLength":1420
	},
	{
		"buffer":7,
		"byteOffset":0,
		"byteLength":1420
	},
	{
		"buffer":8,
		"byteOffset":0,
		"byteLength":1420
	},
	{
		"buffer":9,
		"byteOffset":0,
		"byteLength":1136
	},
	{
		"buffer":9,
		"byteOffset":1136,
		"byteLength":1420
	},
	{
		"buffer":10,
		"byteOffset":0,
		"byteLength":4224,
		"target":34963
	},
	{
		"buffer":10,
		"byteOffset":4224,
		"byteLength":13504,
		"target":34962,
		"byteStride":32
	},
	{
		"buffer":10,
		"byteOffset":17728,
		"byteLength":3376,
		"target":34962
	},
	{
		"buffer":10,
		"byteOffset":21104,
		"byteLength":6752,
		"target":34962
	},
	{
		"buffer":11,
		"byteOffset":0,
		"byteLength":72,
		"target":34963
	},
	{
		"buffer":11,
		"byteOffset":72,
		"byteLength":768,
		"target":34962,
		"byteStride":32
	},
	{
		"buffer":12,
		"byteOffset":0,
		"byteLength":1136
	},
	{
		"buffer":12,
		"byteOffset":1136,
		"byteLength":1136
	},
	{
		"buffer":13,
		"byteOffset":0,
		"byteLength":6912,
		"target":34963
	},
	{
		"buffer":13,
		"byteOffset":6912,
		"byteLength":21376,
		"target":34962,
		"byteStride":32
	},
	{
		"buffer":14,
		"byteOffset":0,
		"byteLength":1136
	},
	{
		"buffer":15,
		"byteOffset":0,
		"byteLength":13824,
		"target":34963
	},
	{
		"buffer":15,
		"byteOffset":13824,
		"byteLength":42624,
		"target":34962,
		"byteStride":32
	},
	{
		"buffer":16,
		"byteOffset":0,
		"byteLength":1136
	},
	{
		"buffer":17,
		"byteOffset":0,
		"byteLength":192
	},
	{
		"buffer":18,
		"byteOffset":0,
		"byteLength":512
	}],
	"buffers":[{
		"uri":"data:application/octet-stream;base64,",
		"byteLength":7212
	},
	{
		"uri":"data:application/octet-stream;base64,",
		"byteLength":1136
	},
	{
		"uri":"data:application/octet-stream;base64,",
		"byteLength":29248
	},
	{
		"uri":"data:application/octet-stream;base64,",
		"byteLength":1420
	},
	{
		"uri":"data:application/octet-stream;base64,",
		"byteLength":1420
	},
	{
		"uri":"data:application/octet-stream;base64,",
		"byteLength":1420
	},
	{
		"uri":"data:application/octet-stream;base64,",
		"byteLength":2556
	},
	{
		"uri":"data:application/octet-stream;base64,",
		"byteLength":1420
	},
	{
		"uri":"data:application/octet-stream;base64,",
		"byteLength":1420
	},
	{
		"uri":"data:application/octet-stream;base64,",
		"byteLength":2556
	},
	{
		"uri":"data:application/octet-stream;base64,",
		"byteLength":27856
	},
	{
		"uri":"data:application/octet-stream;base64,",
		"byteLength":840
	},
	{
		"uri":"data:application/octet-stream;base64,",
		"byteLength":2272
	},
	{
		"uri":"data:application/octet-stream;base64,",
		"byteLength":28288
	},
	{
		"uri":"data:application/octet-stream;base64,",
		"byteLength":1136
	},
	{
		"uri":"data:application/octet-stream;base64,",
		"byteLength":56448
	},
	{
		"uri":"data:application/octet-stream;base64,",
		"byteLength":1136
	},
	{
		"uri":"data:application/octet-stream;base64,",
		"byteLength":192
	},
	{
		"uri":"data:application/octet-stream;base64,",
		"byteLength":512
	}],
	"materials":[{
		"pbrMetallicRoughness":{
			"baseColorFactor":[0.2,
			0.2,
			0.2,
			1.0],
			"metallicFactor":0.0,
			"roughnessFactor":0.5
		},
		"emissiveFactor":[0.0,
		0.0,
		0.0],
		"alphaMode":"OPAQUE",
		"doubleSided":true,
		"name":"Mat.2"
	},
	{
		"pbrMetallicRoughness":{
			"baseColorFactor":[0.93,
			0.23498000000000006,
			0.2232,
			1.0],
			"metallicFactor":0.0,
			"roughnessFactor":0.5
		},
		"emissiveFactor":[0.0,
		0.0,
		0.0],
		"alphaMode":"OPAQUE",
		"doubleSided":true,
		"name":"Mat.1"
	},
	{
		"pbrMetallicRoughness":{
			"baseColorFactor":[0.8,
			0.8,
			0.8,
			1.0],
			"metallicFactor":0.0,
			"roughnessFactor":0.5
		},
		"emissiveFactor":[0.0,
		0.0,
		0.0],
		"alphaMode":"OPAQUE",
		"doubleSided":true,
		"name":"Mat.2"
	}],
	"animations":[{
		"samplers":[{
			"input":4,
			"interpolation":"LINEAR",
			"output":5
		},
		{
			"input":12,
			"interpolation":"LINEAR",
			"output":13
		},
		{
			"input":14,
			"interpolation":"LINEAR",
			"output":15
		},
		{
			"input":16,
			"interpolation":"LINEAR",
			"output":17
		},
		{
			"input":18,
			"interpolation":"LINEAR",
			"output":19
		},
		{
			"input":20,
			"interpolation":"LINEAR",
			"output":21
		},
		{
			"input":22,
			"interpolation":"LINEAR",
			"output":23
		},
		{
			"input":24,
			"interpolation":"LINEAR",
			"output":25
		},
		{
			"input":26,
			"interpolation":"LINEAR",
			"output":27
		},
		{
			"input":28,
			"interpolation":"LINEAR",
			"output":29
		},
		{
			"input":40,
			"interpolation":"LINEAR",
			"output":41
		},
		{
			"input":42,
			"interpolation":"LINEAR",
			"output":43
		},
		{
			"input":48,
			"interpolation":"LINEAR",
			"output":49
		},
		{
			"input":54,
			"interpolation":"LINEAR",
			"output":55
		}],
		"channels":[{
			"sampler":0,
			"target":{
				"path":"translation",
				"node":2
			}
		},
		{
			"sampler":1,
			"target":{
				"path":"rotation",
				"node":6
			}
		},
		{
			"sampler":2,
			"target":{
				"path":"rotation",
				"node":8
			}
		},
		{
			"sampler":3,
			"target":{
				"path":"rotation",
				"node":9
			}
		},
		{
			"sampler":4,
			"target":{
				"path":"translation",
				"node":11
			}
		},
		{
			"sampler":5,
			"target":{
				"path":"rotation",
				"node":11
			}
		},
		{
			"sampler":6,
			"target":{
				"path":"rotation",
				"node":12
			}
		},
		{
			"sampler":7,
			"target":{
				"path":"rotation",
				"node":13
			}
		},
		{
			"sampler":8,
			"target":{
				"path":"translation",
				"node":15
			}
		},
		{
			"sampler":9,
			"target":{
				"path":"rotation",
				"node":15
			}
		},
		{
			"sampler":10,
			"target":{
				"path":"translation",
				"node":18
			}
		},
		{
			"sampler":11,
			"target":{
				"path":"scale",
				"node":18
			}
		},
		{
			"sampler":12,
			"target":{
				"path":"scale",
				"node":19
			}
		},
		{
			"sampler":13,
			"target":{
				"path":"scale",
				"node":20
			}
		}]
	}]
}