{
	"asset":{
		"version":"2.0",
		"generator":"Created using the official Cinema 4D glTF Exporter 1.000x284978"
	},
	"scenes":[{
		"nodes":[0]
	}],
	"nodes":[{
		"name":"Angry",
		"translation":[-0.000004080000053363619,
		-14.940814018249512,
		-8.096491813659668],
		"rotation":[0.0,
		0.0,
		0.0,
		-1.0],
		"scale":[68.0,
		68.0,
		68.0],
		"mesh":0,
		"children":[1,
		2,
		3,
		4]
	},
	{
		"name":"Leg",
		"translation":[-0.32165759801864626,
		1.5018411874771119,
		0.07044532895088196],
		"rotation":[0.0,
		0.0,
		0.0,
		-1.0],
		"scale":[0.014705882407724858,
		0.014705882407724858,
		0.014705882407724858],
		"mesh":1
	},
	{
		"name":"Tail",
		"translation":[5.99999978589949e-8,
		1.5536763668060303,
		0.11906605958938599],
		"rotation":[0.0,
		0.0,
		0.0,
		-1.0],
		"scale":[0.014705882407724858,
		0.014705882407724858,
		0.014705882407724858],
		"mesh":2
	},
	{
		"name":"Mouth",
		"translation":[5.99999978589949e-8,
		1.6909232139587403,
		0.9091925621032715],
		"rotation":[0.0,
		0.0,
		0.0,
		-1.0],
		"scale":[0.014705882407724858,
		0.014705882407724858,
		0.014705882407724858],
		"mesh":3
	},
	{
		"name":"Eyes",
		"translation":[5.99999978589949e-8,
		1.6503609418869019,
		0.11906605958938599],
		"rotation":[0.0,
		0.0,
		0.0,
		-1.0],
		"scale":[0.014705882407724858,
		0.014705882407724858,
		0.014705882407724858],
		"children":[5,
		6]
	},
	{
		"name":"Eyes-Mat.1",
		"translation":[0.0,
		0.0,
		0.0],
		"rotation":[0.0,
		0.0,
		0.0,
		-1.0],
		"scale":[1.0,
		1.0,
		1.0],
		"mesh":4
	},
	{
		"name":"Eyes-Mat.1",
		"translation":[0.0,
		0.0,
		0.0],
		"rotation":[0.0,
		0.0,
		0.0,
		-1.0],
		"scale":[1.0,
		1.0,
		1.0],
		"mesh":5
	}],
	"meshes":[{
		"name":"Angry",
		"primitives":[{
			"attributes":{
				"POSITION":1,
				"NORMAL":2
			},
			"indices":0,
			"material":0
		}]
	},
	{
		"name":"Leg",
		"primitives":[{
			"attributes":{
				"POSITION":8,
				"NORMAL":9,
				"TEXCOORD_0":10
			},
			"indices":7,
			"material":0
		}]
	},
	{
		"name":"Tail",
		"primitives":[{
			"attributes":{
				"POSITION":16,
				"NORMAL":17,
				"TEXCOORD_0":18
			},
			"indices":15,
			"material":0
		}]
	},
	{
		"name":"Mouth",
		"primitives":[{
			"attributes":{
				"POSITION":24,
				"NORMAL":25,
				"TEXCOORD_0":26
			},
			"indices":23,
			"material":1
		}]
	},
	{
		"name":"Eyes-Mat.1",
		"primitives":[{
			"attributes":{
				"POSITION":36,
				"NORMAL":37,
				"TEXCOORD_0":38
			},
			"indices":35,
			"material":1
		}]
	},
	{
		"name":"Eyes-Mat.1",
		"primitives":[{
			"attributes":{
				"POSITION":42,
				"NORMAL":43,
				"TEXCOORD_0":44
			},
			"indices":41,
			"material":0
		}]
	}],
	"accessors":[{
		"bufferView":0,
		"type":"SCALAR",
		"componentType":5123,
		"count":7980,
		"byteOffset":0,
		"min":[0],
		"max":[1339]
	},
	{
		"bufferView":1,
		"type":"VEC3",
		"componentType":5126,
		"count":1340,
		"byteOffset":0,
		"min":[-1.4874341487884522,
		0.0,
		-0.952394425868988],
		"max":[1.4874341487884522,
		2.747493267059326,
		0.952394425868988]
	},
	{
		"bufferView":1,
		"type":"VEC3",
		"componentType":5126,
		"count":1340,
		"byteOffset":12,
		"min":[-0.998436450958252,
		-0.9964317083358765,
		-0.9989898800849915],
		"max":[0.9984366297721863,
		0.9994302988052368,
		0.999980628490448]
	},
	{
		"bufferView":2,
		"type":"SCALAR",
		"componentType":5126,
		"count":106,
		"byteOffset":0,
		"min":[0.0],
		"max":[3.5]
	},
	{
		"bufferView":2,
		"type":"VEC3",
		"componentType":5126,
		"count":106,
		"byteOffset":424,
		"min":[-0.000004080000053363619,
		-14.940814018249512,
		-8.096491813659668],
		"max":[-0.000004080000053363619,
		-14.940814018249512,
		-8.096491813659668]
	},
	{
		"bufferView":3,
		"type":"SCALAR",
		"componentType":5126,
		"count":106,
		"byteOffset":0,
		"min":[0.0],
		"max":[3.5]
	},
	{
		"bufferView":3,
		"type":"VEC3",
		"componentType":5126,
		"count":106,
		"byteOffset":424,
		"min":[68.0,
		68.0,
		68.0],
		"max":[68.0,
		68.0,
		68.0]
	},
	{
		"bufferView":4,
		"type":"SCALAR",
		"componentType":5123,
		"count":9312,
		"byteOffset":0,
		"min":[0],
		"max":[1771]
	},
	{
		"bufferView":5,
		"type":"VEC3",
		"componentType":5126,
		"count":1772,
		"byteOffset":0,
		"min":[-63.525306701660159,
		-131.26156616210938,
		-6.149511337280273],
		"max":[107.27074432373047,
		-73.31607818603516,
		31.444255828857423]
	},
	{
		"bufferView":5,
		"type":"VEC3",
		"componentType":5126,
		"count":1772,
		"byteOffset":12,
		"min":[-0.9974207878112793,
		-0.9994937181472778,
		-0.9973833560943604],
		"max":[0.9974207282066345,
		0.9994811415672302,
		0.997383713722229]
	},
	{
		"bufferView":5,
		"type":"VEC2",
		"componentType":5126,
		"count":1772,
		"byteOffset":24,
		"min":[0.0,
		0.0],
		"max":[1.0,
		1.0]
	},
	{
		"bufferView":6,
		"type":"SCALAR",
		"componentType":5126,
		"count":106,
		"byteOffset":0,
		"min":[0.0],
		"max":[3.5]
	},
	{
		"bufferView":6,
		"type":"VEC3",
		"componentType":5126,
		"count":106,
		"byteOffset":424,
		"min":[-0.32165759801864626,
		1.5018411874771119,
		0.07044532895088196],
		"max":[-0.32165759801864626,
		1.5018411874771119,
		0.07044532895088196]
	},
	{
		"bufferView":7,
		"type":"SCALAR",
		"componentType":5126,
		"count":106,
		"byteOffset":0,
		"min":[0.0],
		"max":[3.5]
	},
	{
		"bufferView":7,
		"type":"VEC3",
		"componentType":5126,
		"count":106,
		"byteOffset":424,
		"min":[0.014705882407724858,
		0.014705882407724858,
		0.014705882407724858],
		"max":[0.014705882407724858,
		0.014705882407724858,
		0.014705882407724858]
	},
	{
		"bufferView":8,
		"type":"SCALAR",
		"componentType":5123,
		"count":9744,
		"byteOffset":0,
		"min":[0],
		"max":[1843]
	},
	{
		"bufferView":9,
		"type":"VEC3",
		"componentType":5126,
		"count":1844,
		"byteOffset":0,
		"min":[-125.9420166015625,
		-133.12933349609376,
		-52.71906661987305],
		"max":[0.8069402575492859,
		-62.32288360595703,
		1.6922976970672608]
	},
	{
		"bufferView":9,
		"type":"VEC3",
		"componentType":5126,
		"count":1844,
		"byteOffset":12,
		"min":[-0.999791145324707,
		-0.9991515874862671,
		-0.9997006058692932],
		"max":[0.9988809823989868,
		0.9983192682266235,
		0.9996941089630127]
	},
	{
		"bufferView":9,
		"type":"VEC2",
		"componentType":5126,
		"count":1844,
		"byteOffset":24,
		"min":[0.0,
		0.0],
		"max":[1.0,
		1.0]
	},
	{
		"bufferView":10,
		"type":"SCALAR",
		"componentType":5126,
		"count":106,
		"byteOffset":0,
		"min":[0.0],
		"max":[3.5]
	},
	{
		"bufferView":10,
		"type":"VEC3",
		"componentType":5126,
		"count":106,
		"byteOffset":424,
		"min":[5.99999978589949e-8,
		1.5536763668060303,
		0.11906605958938599],
		"max":[5.99999978589949e-8,
		1.5536763668060303,
		0.11906605958938599]
	},
	{
		"bufferView":11,
		"type":"SCALAR",
		"componentType":5126,
		"count":106,
		"byteOffset":0,
		"min":[0.0],
		"max":[3.5]
	},
	{
		"bufferView":11,
		"type":"VEC3",
		"componentType":5126,
		"count":106,
		"byteOffset":424,
		"min":[0.014705882407724858,
		0.014705882407724858,
		0.014705882407724858],
		"max":[0.014705882407724858,
		0.014705882407724858,
		0.014705882407724858]
	},
	{
		"bufferView":12,
		"type":"SCALAR",
		"componentType":5123,
		"count":1848,
		"byteOffset":0,
		"min":[0],
		"max":[395]
	},
	{
		"bufferView":13,
		"type":"VEC3",
		"componentType":5126,
		"count":396,
		"byteOffset":0,
		"min":[-27.979028701782228,
		-78.14674377441406,
		-1.7000000476837159],
		"max":[27.042152404785158,
		-64.17243957519531,
		1.7000000476837159]
	},
	{
		"bufferView":13,
		"type":"VEC3",
		"componentType":5126,
		"count":396,
		"byteOffset":12,
		"min":[-0.9944179058074951,
		-0.999995768070221,
		-0.9999426007270813],
		"max":[0.9950122833251953,
		0.999995768070221,
		0.9999426007270813]
	},
	{
		"bufferView":13,
		"type":"VEC2",
		"componentType":5126,
		"count":396,
		"byteOffset":24,
		"min":[0.0,
		0.0],
		"max":[1.0,
		1.0]
	},
	{
		"bufferView":14,
		"type":"SCALAR",
		"componentType":5126,
		"count":106,
		"byteOffset":0,
		"min":[0.0],
		"max":[3.5]
	},
	{
		"bufferView":14,
		"type":"VEC3",
		"componentType":5126,
		"count":106,
		"byteOffset":424,
		"min":[5.99999978589949e-8,
		1.6909232139587403,
		0.9091925621032715],
		"max":[5.99999978589949e-8,
		1.6909232139587403,
		0.9091925621032715]
	},
	{
		"bufferView":15,
		"type":"SCALAR",
		"componentType":5126,
		"count":106,
		"byteOffset":0,
		"min":[0.0],
		"max":[3.5]
	},
	{
		"bufferView":15,
		"type":"VEC3",
		"componentType":5126,
		"count":106,
		"byteOffset":424,
		"min":[0.014705882407724858,
		0.014705882407724858,
		0.014705882407724858],
		"max":[0.014705882407724858,
		0.014705882407724858,
		0.014705882407724858]
	},
	{
		"bufferView":16,
		"type":"SCALAR",
		"componentType":5126,
		"count":106,
		"byteOffset":0,
		"min":[0.0],
		"max":[3.5]
	},
	{
		"bufferView":16,
		"type":"VEC3",
		"componentType":5126,
		"count":106,
		"byteOffset":424,
		"min":[5.99999978589949e-8,
		1.6503609418869019,
		0.11906605958938599],
		"max":[5.99999978589949e-8,
		1.6503609418869019,
		0.11906605958938599]
	},
	{
		"bufferView":17,
		"type":"SCALAR",
		"componentType":5126,
		"count":106,
		"byteOffset":0,
		"min":[0.0],
		"max":[3.5]
	},
	{
		"bufferView":17,
		"type":"VEC3",
		"componentType":5126,
		"count":106,
		"byteOffset":424,
		"min":[0.014705882407724858,
		0.014705882407724858,
		0.014705882407724858],
		"max":[0.014705882407724858,
		0.014705882407724858,
		0.014705882407724858]
	},
	{
		"bufferView":18,
		"type":"SCALAR",
		"componentType":5123,
		"count":48,
		"byteOffset":0,
		"min":[0],
		"max":[19]
	},
	{
		"bufferView":19,
		"type":"VEC3",
		"componentType":5126,
		"count":20,
		"byteOffset":0,
		"min":[-39.83551025390625,
		-49.889827728271487,
		57.296810150146487],
		"max":[39.83551025390625,
		-30.46546173095703,
		57.296810150146487]
	},
	{
		"bufferView":19,
		"type":"VEC3",
		"componentType":5126,
		"count":20,
		"byteOffset":12,
		"min":[0.0,
		0.0,
		1.0],
		"max":[0.0,
		0.0,
		1.0]
	},
	{
		"bufferView":19,
		"type":"VEC2",
		"componentType":5126,
		"count":20,
		"byteOffset":24,
		"min":[0.1464466154575348,
		0.1464466154575348],
		"max":[1.0,
		1.0]
	},
	{
		"bufferView":20,
		"type":"SCALAR",
		"componentType":5126,
		"count":106,
		"byteOffset":0,
		"min":[0.0],
		"max":[3.5]
	},
	{
		"bufferView":20,
		"type":"VEC3",
		"componentType":5126,
		"count":106,
		"byteOffset":424,
		"min":[1.0,
		1.0,
		1.0],
		"max":[1.0,
		1.0,
		1.0]
	},
	{
		"bufferView":21,
		"type":"SCALAR",
		"componentType":5123,
		"count":48,
		"byteOffset":0,
		"min":[0],
		"max":[19]
	},
	{
		"bufferView":22,
		"type":"VEC3",
		"componentType":5126,
		"count":20,
		"byteOffset":0,
		"min":[-34.45957565307617,
		-44.513893127441409,
		57.573883056640628],
		"max":[34.45957565307617,
		-32.749202728271487,
		57.573883056640628]
	},
	{
		"bufferView":22,
		"type":"VEC3",
		"componentType":5126,
		"count":20,
		"byteOffset":12,
		"min":[0.0,
		0.0,
		1.0],
		"max":[0.0,
		0.0,
		1.0]
	},
	{
		"bufferView":22,
		"type":"VEC2",
		"componentType":5126,
		"count":20,
		"byteOffset":24,
		"min":[0.1464466154575348,
		0.1464466154575348],
		"max":[1.0,
		1.0]
	},
	{
		"bufferView":23,
		"type":"SCALAR",
		"componentType":5126,
		"count":106,
		"byteOffset":0,
		"min":[0.0],
		"max":[3.5]
	},
	{
		"bufferView":23,
		"type":"VEC3",
		"componentType":5126,
		"count":106,
		"byteOffset":424,
		"min":[1.0,
		1.0,
		1.0],
		"max":[1.0,
		1.0,
		1.0]
	}],
	"bufferViews":[{
		"buffer":0,
		"byteOffset":0,
		"byteLength":15960,
		"target":34963
	},
	{
		"buffer":0,
		"byteOffset":15960,
		"byteLength":32160,
		"target":34962,
		"byteStride":24
	},
	{
		"buffer":1,
		"byteOffset":0,
		"byteLength":1696
	},
	{
		"buffer":1,
		"byteOffset":1696,
		"byteLength":1696
	},
	{
		"buffer":2,
		"byteOffset":0,
		"byteLength":18624,
		"target":34963
	},
	{
		"buffer":2,
		"byteOffset":18624,
		"byteLength":56704,
		"target":34962,
		"byteStride":32
	},
	{
		"buffer":3,
		"byteOffset":0,
		"byteLength":1696
	},
	{
		"buffer":3,
		"byteOffset":1696,
		"byteLength":1696
	},
	{
		"buffer":4,
		"byteOffset":0,
		"byteLength":19488,
		"target":34963
	},
	{
		"buffer":4,
		"byteOffset":19488,
		"byteLength":59008,
		"target":34962,
		"byteStride":32
	},
	{
		"buffer":5,
		"byteOffset":0,
		"byteLength":1696
	},
	{
		"buffer":5,
		"byteOffset":1696,
		"byteLength":1696
	},
	{
		"buffer":6,
		"byteOffset":0,
		"byteLength":3696,
		"target":34963
	},
	{
		"buffer":6,
		"byteOffset":3696,
		"byteLength":12672,
		"target":34962,
		"byteStride":32
	},
	{
		"buffer":7,
		"byteOffset":0,
		"byteLength":1696
	},
	{
		"buffer":7,
		"byteOffset":1696,
		"byteLength":1696
	},
	{
		"buffer":8,
		"byteOffset":0,
		"byteLength":1696
	},
	{
		"buffer":8,
		"byteOffset":1696,
		"byteLength":1696
	},
	{
		"buffer":9,
		"byteOffset":0,
		"byteLength":96,
		"target":34963
	},
	{
		"buffer":9,
		"byteOffset":96,
		"byteLength":640,
		"target":34962,
		"byteStride":32
	},
	{
		"buffer":10,
		"byteOffset":0,
		"byteLength":1696
	},
	{
		"buffer":11,
		"byteOffset":0,
		"byteLength":96,
		"target":34963
	},
	{
		"buffer":11,
		"byteOffset":96,
		"byteLength":640,
		"target":34962,
		"byteStride":32
	},
	{
		"buffer":12,
		"byteOffset":0,
		"byteLength":1696
	}],
	"buffers":[{
		"uri":"data:application/octet-stream;base64,",
		"byteLength":48120
	},
	{
		"uri":"data:application/octet-stream;base64,",
		"byteLength":3392
	},
	{
		"uri":"data:application/octet-stream;base64,",
		"byteLength":75328
	},
	{
		"uri":"data:application/octet-stream;base64,",
		"byteLength":3392
	},
	{
		"uri":"data:application/octet-stream;base64,",
		"byteLength":78496
	},
	{
		"uri":"data:application/octet-stream;base64,",
		"byteLength":3392
	},
	{
		"uri":"data:application/octet-stream;base64,",
		"byteLength":16368
	},
	{
		"uri":"data:application/octet-stream;base64,",
		"byteLength":3392
	},
	{
		"uri":"data:application/octet-stream;base64,",
		"byteLength":3392
	},
	{
		"uri":"data:application/octet-stream;base64,",
		"byteLength":736
	},
	{
		"uri":"data:application/octet-stream;base64,",
		"byteLength":1696
	},
	{
		"uri":"data:application/octet-stream;base64,",
		"byteLength":736
	},
	{
		"uri":"data:application/octet-stream;base64,",
		"byteLength":1696
	}],
	"materials":[{
		"pbrMetallicRoughness":{
			"baseColorFactor":[0.25,
			0.25,
			0.25,
			1.0],
			"metallicFactor":0.0,
			"roughnessFactor":0.5
		},
		"emissiveFactor":[0.0,
		0.0,
		0.0],
		"alphaMode":"OPAQUE",
		"doubleSided":false,
		"name":"Mat.1"
	},
	{
		"pbrMetallicRoughness":{
			"baseColorFactor":[0.8,
			0.8,
			0.8,
			1.0],
			"metallicFactor":0.0,
			"roughnessFactor":0.5
		},
		"emissiveFactor":[0.0,
		0.0,
		0.0],
		"alphaMode":"OPAQUE",
		"doubleSided":false,
		"name":"Mat.1"
	}],
	"animations":[{
		"samplers":[{
			"input":3,
			"interpolation":"LINEAR",
			"output":4
		},
		{
			"input":5,
			"interpolation":"LINEAR",
			"output":6
		},
		{
			"input":11,
			"interpolation":"LINEAR",
			"output":12
		},
		{
			"input":13,
			"interpolation":"LINEAR",
			"output":14
		},
		{
			"input":19,
			"interpolation":"LINEAR",
			"output":20
		},
		{
			"input":21,
			"interpolation":"LINEAR",
			"output":22
		},
		{
			"input":27,
			"interpolation":"LINEAR",
			"output":28
		},
		{
			"input":29,
			"interpolation":"LINEAR",
			"output":30
		},
		{
			"input":31,
			"interpolation":"LINEAR",
			"output":32
		},
		{
			"input":33,
			"interpolation":"LINEAR",
			"output":34
		},
		{
			"input":39,
			"interpolation":"LINEAR",
			"output":40
		},
		{
			"input":45,
			"interpolation":"LINEAR",
			"output":46
		}],
		"channels":[{
			"sampler":0,
			"target":{
				"node":0,
				"path":"translation"
			}
		},
		{
			"sampler":1,
			"target":{
				"node":0,
				"path":"scale"
			}
		},
		{
			"sampler":2,
			"target":{
				"node":1,
				"path":"translation"
			}
		},
		{
			"sampler":3,
			"target":{
				"node":1,
				"path":"scale"
			}
		},
		{
			"sampler":4,
			"target":{
				"node":2,
				"path":"translation"
			}
		},
		{
			"sampler":5,
			"target":{
				"node":2,
				"path":"scale"
			}
		},
		{
			"sampler":6,
			"target":{
				"node":3,
				"path":"translation"
			}
		},
		{
			"sampler":7,
			"target":{
				"node":3,
				"path":"scale"
			}
		},
		{
			"sampler":8,
			"target":{
				"node":4,
				"path":"translation"
			}
		},
		{
			"sampler":9,
			"target":{
				"node":4,
				"path":"scale"
			}
		},
		{
			"sampler":10,
			"target":{
				"node":5,
				"path":"scale"
			}
		},
		{
			"sampler":11,
			"target":{
				"node":6,
				"path":"scale"
			}
		}]
	}]
}