{
	"asset":{
		"version":"2.0",
		"generator":"Created using the official Cinema 4D glTF Exporter 1.000x284978"
	},
	"scenes":[{
		"nodes":[0]
	}],
	"nodes":[{
		"name":"Fear",
		"translation":[-1.918657898902893,
		61.10730743408203,
		-0.3383111357688904],
		"rotation":[0.0,
		0.0,
		0.0,
		-1.0],
		"scale":[1.0,
		1.0,
		1.0],
		"mesh":0,
		"children":[1,
		2,
		3,
		4]
	},
	{
		"name":"Tail",
		"translation":[17.389610290527345,
		48.68753433227539,
		-0.5266493558883667],
		"rotation":[0.0,
		0.0,
		0.0,
		-1.0],
		"scale":[1.0,
		1.0,
		1.0],
		"mesh":1
	},
	{
		"name":"Legs",
		"translation":[-17.303499221801759,
		23.471384048461915,
		5.181303024291992],
		"rotation":[0.0,
		0.0,
		0.0,
		-1.0],
		"scale":[1.0,
		1.0,
		1.0],
		"mesh":2
	},
	{
		"name":"Mouth",
		"translation":[-13.738104820251465,
		-2.5817174911499025,
		89.1322250366211],
		"rotation":[0.0,
		0.0,
		0.0,
		-1.0],
		"scale":[1.0,
		1.0,
		1.0],
		"mesh":3
	},
	{
		"name":"Eyes",
		"translation":[-20.79098892211914,
		-9.240890502929688,
		60.83432388305664],
		"rotation":[0.0,
		-0.08715574443340302,
		0.0,
		0.9961947202682495],
		"scale":[1.0,
		1.0,
		1.0],
		"children":[5,
		6]
	},
	{
		"name":"Eyes-Mat.1",
		"translation":[0.0,
		0.0,
		0.0],
		"rotation":[0.0,
		0.0,
		0.0,
		-1.0],
		"scale":[1.0,
		1.0,
		1.0],
		"mesh":4
	},
	{
		"name":"Eyes-Mat.1",
		"translation":[0.0,
		0.0,
		0.0],
		"rotation":[0.0,
		0.0,
		0.0,
		-1.0],
		"scale":[1.0,
		1.0,
		1.0],
		"mesh":5
	}],
	"meshes":[{
		"name":"Fear",
		"primitives":[{
			"attributes":{
				"POSITION":1,
				"NORMAL":2
			},
			"indices":0,
			"material":0
		}]
	},
	{
		"name":"Tail",
		"primitives":[{
			"attributes":{
				"POSITION":8,
				"NORMAL":9,
				"TEXCOORD_0":10
			},
			"indices":7,
			"material":0
		}]
	},
	{
		"name":"Legs",
		"primitives":[{
			"attributes":{
				"POSITION":16,
				"NORMAL":17,
				"TEXCOORD_0":18
			},
			"indices":15,
			"material":0
		}]
	},
	{
		"name":"Mouth",
		"primitives":[{
			"attributes":{
				"POSITION":24,
				"NORMAL":25,
				"TEXCOORD_0":26
			},
			"indices":23,
			"material":1
		}]
	},
	{
		"name":"Eyes-Mat.1",
		"primitives":[{
			"attributes":{
				"POSITION":38,
				"NORMAL":39,
				"TEXCOORD_0":40
			},
			"indices":37,
			"material":2
		}]
	},
	{
		"name":"Eyes-Mat.1",
		"primitives":[{
			"attributes":{
				"POSITION":44,
				"NORMAL":45,
				"TEXCOORD_0":46
			},
			"indices":43,
			"material":0
		}]
	}],
	"accessors":[{
		"bufferView":0,
		"type":"SCALAR",
		"componentType":5123,
		"count":4512,
		"byteOffset":0,
		"min":[0],
		"max":[803]
	},
	{
		"bufferView":1,
		"type":"VEC3",
		"componentType":5126,
		"count":804,
		"byteOffset":0,
		"min":[-107.30242919921875,
		-71.02803802490235,
		-92.38423156738281],
		"max":[99.0467758178711,
		65.19181060791016,
		91.67094421386719]
	},
	{
		"bufferView":1,
		"type":"VEC3",
		"componentType":5126,
		"count":804,
		"byteOffset":12,
		"min":[-0.990966260433197,
		-0.9998301863670349,
		-0.993659496307373],
		"max":[0.9989877343177795,
		0.9999975562095642,
		0.9999319911003113]
	},
	{
		"bufferView":2,
		"type":"SCALAR",
		"componentType":5126,
		"count":106,
		"byteOffset":0,
		"min":[0.0],
		"max":[3.5]
	},
	{
		"bufferView":2,
		"type":"VEC3",
		"componentType":5126,
		"count":106,
		"byteOffset":424,
		"min":[-1.918657898902893,
		61.10730743408203,
		-0.3383111357688904],
		"max":[-1.918657898902893,
		61.10730743408203,
		-0.3383111357688904]
	},
	{
		"bufferView":3,
		"type":"SCALAR",
		"componentType":5126,
		"count":106,
		"byteOffset":0,
		"min":[0.0],
		"max":[3.5]
	},
	{
		"bufferView":3,
		"type":"VEC3",
		"componentType":5126,
		"count":106,
		"byteOffset":424,
		"min":[1.0,
		1.0,
		1.0],
		"max":[1.0,
		1.0,
		1.0]
	},
	{
		"bufferView":4,
		"type":"SCALAR",
		"componentType":5123,
		"count":8976,
		"byteOffset":0,
		"min":[0],
		"max":[1616]
	},
	{
		"bufferView":5,
		"type":"VEC3",
		"componentType":5126,
		"count":1617,
		"byteOffset":0,
		"min":[-5.538265228271484,
		-154.4158172607422,
		-65.3194580078125],
		"max":[35.21141052246094,
		-90.35853576660156,
		70.99642181396485]
	},
	{
		"bufferView":5,
		"type":"VEC3",
		"componentType":5126,
		"count":1617,
		"byteOffset":12,
		"min":[-0.9989794492721558,
		-0.9998096823692322,
		-0.9998130202293396],
		"max":[0.9992393851280212,
		0.9998093843460083,
		0.999806821346283]
	},
	{
		"bufferView":5,
		"type":"VEC2",
		"componentType":5126,
		"count":1617,
		"byteOffset":24,
		"min":[0.0,
		0.0],
		"max":[1.0,
		1.0]
	},
	{
		"bufferView":6,
		"type":"SCALAR",
		"componentType":5126,
		"count":106,
		"byteOffset":0,
		"min":[0.0],
		"max":[3.5]
	},
	{
		"bufferView":6,
		"type":"VEC3",
		"componentType":5126,
		"count":106,
		"byteOffset":424,
		"min":[17.389610290527345,
		48.68753433227539,
		-0.5266493558883667],
		"max":[17.389610290527345,
		48.68753433227539,
		-0.5266493558883667]
	},
	{
		"bufferView":7,
		"type":"SCALAR",
		"componentType":5126,
		"count":106,
		"byteOffset":0,
		"min":[0.0],
		"max":[3.5]
	},
	{
		"bufferView":7,
		"type":"VEC3",
		"componentType":5126,
		"count":106,
		"byteOffset":424,
		"min":[1.0,
		1.0,
		1.0],
		"max":[1.0,
		1.0,
		1.0]
	},
	{
		"bufferView":8,
		"type":"SCALAR",
		"componentType":5123,
		"count":7152,
		"byteOffset":0,
		"min":[0],
		"max":[1401]
	},
	{
		"bufferView":9,
		"type":"VEC3",
		"componentType":5126,
		"count":1402,
		"byteOffset":0,
		"min":[-23.10432243347168,
		-130.66246032714845,
		-2.954439878463745],
		"max":[57.04861068725586,
		-64.85824584960938,
		21.240400314331056]
	},
	{
		"bufferView":9,
		"type":"VEC3",
		"componentType":5126,
		"count":1402,
		"byteOffset":12,
		"min":[-0.999779224395752,
		-0.9995113611221314,
		-0.9999496340751648],
		"max":[0.9997791647911072,
		0.9995070099830627,
		0.9999498128890991]
	},
	{
		"bufferView":9,
		"type":"VEC2",
		"componentType":5126,
		"count":1402,
		"byteOffset":24,
		"min":[0.0,
		0.0],
		"max":[1.0,
		1.0]
	},
	{
		"bufferView":10,
		"type":"SCALAR",
		"componentType":5126,
		"count":106,
		"byteOffset":0,
		"min":[0.0],
		"max":[3.5]
	},
	{
		"bufferView":10,
		"type":"VEC3",
		"componentType":5126,
		"count":106,
		"byteOffset":424,
		"min":[-17.303499221801759,
		23.471384048461915,
		5.181303024291992],
		"max":[-17.303499221801759,
		23.471384048461915,
		5.181303024291992]
	},
	{
		"bufferView":11,
		"type":"SCALAR",
		"componentType":5126,
		"count":106,
		"byteOffset":0,
		"min":[0.0],
		"max":[3.5]
	},
	{
		"bufferView":11,
		"type":"VEC3",
		"componentType":5126,
		"count":106,
		"byteOffset":424,
		"min":[1.0,
		1.0,
		1.0],
		"max":[1.0,
		1.0,
		1.0]
	},
	{
		"bufferView":12,
		"type":"SCALAR",
		"componentType":5123,
		"count":2712,
		"byteOffset":0,
		"min":[0],
		"max":[543]
	},
	{
		"bufferView":13,
		"type":"VEC3",
		"componentType":5126,
		"count":544,
		"byteOffset":0,
		"min":[-19.438186645507814,
		-14.74084758758545,
		-4.544250965118408],
		"max":[14.1185941696167,
		-9.888948440551758,
		3.6041390895843508]
	},
	{
		"bufferView":13,
		"type":"VEC3",
		"componentType":5126,
		"count":544,
		"byteOffset":12,
		"min":[-0.9953038692474365,
		-0.9996098279953003,
		-0.9948029518127441],
		"max":[0.9993243217468262,
		0.9990144371986389,
		0.9935562610626221]
	},
	{
		"bufferView":13,
		"type":"VEC2",
		"componentType":5126,
		"count":544,
		"byteOffset":24,
		"min":[0.0,
		0.0],
		"max":[1.0,
		1.0]
	},
	{
		"bufferView":14,
		"type":"SCALAR",
		"componentType":5126,
		"count":106,
		"byteOffset":0,
		"min":[0.0],
		"max":[3.5]
	},
	{
		"bufferView":14,
		"type":"VEC3",
		"componentType":5126,
		"count":106,
		"byteOffset":424,
		"min":[-13.738104820251465,
		-2.5817174911499025,
		89.1322250366211],
		"max":[-13.738104820251465,
		-2.5817174911499025,
		89.1322250366211]
	},
	{
		"bufferView":15,
		"type":"SCALAR",
		"componentType":5126,
		"count":106,
		"byteOffset":0,
		"min":[0.0],
		"max":[3.5]
	},
	{
		"bufferView":15,
		"type":"VEC3",
		"componentType":5126,
		"count":106,
		"byteOffset":424,
		"min":[1.0,
		1.0,
		1.0],
		"max":[1.0,
		1.0,
		1.0]
	},
	{
		"bufferView":16,
		"type":"SCALAR",
		"componentType":5126,
		"count":106,
		"byteOffset":0,
		"min":[0.0],
		"max":[3.5]
	},
	{
		"bufferView":16,
		"type":"VEC3",
		"componentType":5126,
		"count":106,
		"byteOffset":424,
		"min":[-20.79098892211914,
		-9.240890502929688,
		60.83432388305664],
		"max":[-20.79098892211914,
		-9.240890502929688,
		60.83432388305664]
	},
	{
		"bufferView":17,
		"type":"SCALAR",
		"componentType":5126,
		"count":106,
		"byteOffset":0,
		"min":[0.0],
		"max":[3.5]
	},
	{
		"bufferView":17,
		"type":"VEC4",
		"componentType":5126,
		"count":106,
		"byteOffset":424,
		"min":[0.0,
		-0.08715574443340302,
		0.0,
		0.9961947202682495],
		"max":[0.0,
		-0.08715574443340302,
		0.0,
		0.9961947202682495]
	},
	{
		"bufferView":18,
		"type":"SCALAR",
		"componentType":5126,
		"count":106,
		"byteOffset":0,
		"min":[0.0],
		"max":[3.5]
	},
	{
		"bufferView":18,
		"type":"VEC3",
		"componentType":5126,
		"count":106,
		"byteOffset":424,
		"min":[1.0,
		1.0,
		1.0],
		"max":[1.0,
		1.0,
		1.0]
	},
	{
		"bufferView":19,
		"type":"SCALAR",
		"componentType":5123,
		"count":96,
		"byteOffset":0,
		"min":[0],
		"max":[33]
	},
	{
		"bufferView":20,
		"type":"VEC3",
		"componentType":5126,
		"count":34,
		"byteOffset":0,
		"min":[-21.252614974975587,
		5.324378967285156,
		33.64342498779297],
		"max":[43.84393310546875,
		25.238290786743165,
		33.64342498779297]
	},
	{
		"bufferView":20,
		"type":"VEC3",
		"componentType":5126,
		"count":34,
		"byteOffset":12,
		"min":[0.0,
		0.0,
		1.0],
		"max":[0.0,
		0.0,
		1.0]
	},
	{
		"bufferView":20,
		"type":"VEC2",
		"componentType":5126,
		"count":34,
		"byteOffset":24,
		"min":[0.0,
		0.0],
		"max":[1.0,
		1.0]
	},
	{
		"bufferView":21,
		"type":"SCALAR",
		"componentType":5126,
		"count":106,
		"byteOffset":0,
		"min":[0.0],
		"max":[3.5]
	},
	{
		"bufferView":21,
		"type":"VEC3",
		"componentType":5126,
		"count":106,
		"byteOffset":424,
		"min":[1.0,
		1.0,
		1.0],
		"max":[1.0,
		1.0,
		1.0]
	},
	{
		"bufferView":22,
		"type":"SCALAR",
		"componentType":5123,
		"count":96,
		"byteOffset":0,
		"min":[0],
		"max":[33]
	},
	{
		"bufferView":23,
		"type":"VEC3",
		"componentType":5126,
		"count":34,
		"byteOffset":0,
		"min":[-14.934930801391602,
		10.519914627075196,
		33.90205001831055],
		"max":[43.42884063720703,
		23.83245277404785,
		33.90205001831055]
	},
	{
		"bufferView":23,
		"type":"VEC3",
		"componentType":5126,
		"count":34,
		"byteOffset":12,
		"min":[0.0,
		0.0,
		1.0],
		"max":[0.0,
		0.0,
		1.0]
	},
	{
		"bufferView":23,
		"type":"VEC2",
		"componentType":5126,
		"count":34,
		"byteOffset":24,
		"min":[0.0,
		0.0],
		"max":[1.0,
		1.0]
	},
	{
		"bufferView":24,
		"type":"SCALAR",
		"componentType":5126,
		"count":106,
		"byteOffset":0,
		"min":[0.0],
		"max":[3.5]
	},
	{
		"bufferView":24,
		"type":"VEC3",
		"componentType":5126,
		"count":106,
		"byteOffset":424,
		"min":[1.0,
		1.0,
		1.0],
		"max":[1.0,
		1.0,
		1.0]
	}],
	"bufferViews":[{
		"buffer":0,
		"byteOffset":0,
		"byteLength":9024,
		"target":34963
	},
	{
		"buffer":0,
		"byteOffset":9024,
		"byteLength":19296,
		"target":34962,
		"byteStride":24
	},
	{
		"buffer":1,
		"byteOffset":0,
		"byteLength":1696
	},
	{
		"buffer":1,
		"byteOffset":1696,
		"byteLength":1696
	},
	{
		"buffer":2,
		"byteOffset":0,
		"byteLength":17952,
		"target":34963
	},
	{
		"buffer":2,
		"byteOffset":17952,
		"byteLength":51744,
		"target":34962,
		"byteStride":32
	},
	{
		"buffer":3,
		"byteOffset":0,
		"byteLength":1696
	},
	{
		"buffer":3,
		"byteOffset":1696,
		"byteLength":1696
	},
	{
		"buffer":4,
		"byteOffset":0,
		"byteLength":14304,
		"target":34963
	},
	{
		"buffer":4,
		"byteOffset":14304,
		"byteLength":44864,
		"target":34962,
		"byteStride":32
	},
	{
		"buffer":5,
		"byteOffset":0,
		"byteLength":1696
	},
	{
		"buffer":5,
		"byteOffset":1696,
		"byteLength":1696
	},
	{
		"buffer":6,
		"byteOffset":0,
		"byteLength":5424,
		"target":34963
	},
	{
		"buffer":6,
		"byteOffset":5424,
		"byteLength":17408,
		"target":34962,
		"byteStride":32
	},
	{
		"buffer":7,
		"byteOffset":0,
		"byteLength":1696
	},
	{
		"buffer":7,
		"byteOffset":1696,
		"byteLength":1696
	},
	{
		"buffer":8,
		"byteOffset":0,
		"byteLength":1696
	},
	{
		"buffer":8,
		"byteOffset":1696,
		"byteLength":2120
	},
	{
		"buffer":8,
		"byteOffset":3816,
		"byteLength":1696
	},
	{
		"buffer":9,
		"byteOffset":0,
		"byteLength":192,
		"target":34963
	},
	{
		"buffer":9,
		"byteOffset":192,
		"byteLength":1088,
		"target":34962,
		"byteStride":32
	},
	{
		"buffer":10,
		"byteOffset":0,
		"byteLength":1696
	},
	{
		"buffer":11,
		"byteOffset":0,
		"byteLength":192,
		"target":34963
	},
	{
		"buffer":11,
		"byteOffset":192,
		"byteLength":1088,
		"target":34962,
		"byteStride":32
	},
	{
		"buffer":12,
		"byteOffset":0,
		"byteLength":1696
	}],
	"buffers":[{
		"uri":"data:application/octet-stream;base64,",
		"byteLength":28320
	},
	{
		"uri":"data:application/octet-stream;base64,",
		"byteLength":3392
	},
	{
		"uri":"data:application/octet-stream;base64,",
		"byteLength":69696
	},
	{
		"uri":"data:application/octet-stream;base64,",
		"byteLength":3392
	},
	{
		"uri":"data:application/octet-stream;base64,",
		"byteLength":59168
	},
	{
		"uri":"data:application/octet-stream;base64,",
		"byteLength":3392
	},
	{
		"uri":"data:application/octet-stream;base64,",
		"byteLength":22832
	},
	{
		"uri":"data:application/octet-stream;base64,",
		"byteLength":3392
	},
	{
		"uri":"data:application/octet-stream;base64,",
		"byteLength":5512
	},
	{
		"uri":"data:application/octet-stream;base64,",
		"byteLength":1280
	},
	{
		"uri":"data:application/octet-stream;base64,",
		"byteLength":1696
	},
	{
		"uri":"data:application/octet-stream;base64,",
		"byteLength":1280
	},
	{
		"uri":"data:application/octet-stream;base64,",
		"byteLength":1696
	}],
	"materials":[{
		"pbrMetallicRoughness":{
			"baseColorFactor":[0.25,
			0.25,
			0.25,
			1.0],
			"metallicFactor":0.0,
			"roughnessFactor":0.5
		},
		"emissiveFactor":[0.0,
		0.0,
		0.0],
		"alphaMode":"OPAQUE",
		"doubleSided":false,
		"name":"Mat.1"
	},
	{
		"pbrMetallicRoughness":{
			"baseColorFactor":[1.0,
			1.0,
			1.0,
			1.0],
			"metallicFactor":1.0,
			"roughnessFactor":1.0
		},
		"emissiveFactor":[0.0,
		0.0,
		0.0],
		"alphaMode":"OPAQUE",
		"doubleSided":false,
		"name":""
	},
	{
		"pbrMetallicRoughness":{
			"baseColorFactor":[0.8,
			0.8,
			0.8,
			1.0],
			"metallicFactor":0.0,
			"roughnessFactor":0.5
		},
		"emissiveFactor":[0.0,
		0.0,
		0.0],
		"alphaMode":"OPAQUE",
		"doubleSided":false,
		"name":"Mat.1"
	}],
	"animations":[{
		"samplers":[{
			"input":3,
			"interpolation":"LINEAR",
			"output":4
		},
		{
			"input":5,
			"interpolation":"LINEAR",
			"output":6
		},
		{
			"input":11,
			"interpolation":"LINEAR",
			"output":12
		},
		{
			"input":13,
			"interpolation":"LINEAR",
			"output":14
		},
		{
			"input":19,
			"interpolation":"LINEAR",
			"output":20
		},
		{
			"input":21,
			"interpolation":"LINEAR",
			"output":22
		},
		{
			"input":27,
			"interpolation":"LINEAR",
			"output":28
		},
		{
			"input":29,
			"interpolation":"LINEAR",
			"output":30
		},
		{
			"input":31,
			"interpolation":"LINEAR",
			"output":32
		},
		{
			"input":33,
			"interpolation":"LINEAR",
			"output":34
		},
		{
			"input":35,
			"interpolation":"LINEAR",
			"output":36
		},
		{
			"input":41,
			"interpolation":"LINEAR",
			"output":42
		},
		{
			"input":47,
			"interpolation":"LINEAR",
			"output":48
		}],
		"channels":[{
			"sampler":0,
			"target":{
				"node":0,
				"path":"translation"
			}
		},
		{
			"sampler":1,
			"target":{
				"node":0,
				"path":"scale"
			}
		},
		{
			"sampler":2,
			"target":{
				"node":1,
				"path":"translation"
			}
		},
		{
			"sampler":3,
			"target":{
				"node":1,
				"path":"scale"
			}
		},
		{
			"sampler":4,
			"target":{
				"node":2,
				"path":"translation"
			}
		},
		{
			"sampler":5,
			"target":{
				"node":2,
				"path":"scale"
			}
		},
		{
			"sampler":6,
			"target":{
				"node":3,
				"path":"translation"
			}
		},
		{
			"sampler":7,
			"target":{
				"node":3,
				"path":"scale"
			}
		},
		{
			"sampler":8,
			"target":{
				"node":4,
				"path":"translation"
			}
		},
		{
			"sampler":9,
			"target":{
				"node":4,
				"path":"rotation"
			}
		},
		{
			"sampler":10,
			"target":{
				"node":4,
				"path":"scale"
			}
		},
		{
			"sampler":11,
			"target":{
				"node":5,
				"path":"scale"
			}
		},
		{
			"sampler":12,
			"target":{
				"node":6,
				"path":"scale"
			}
		}]
	}]
}