{
	"asset":{
		"version":"2.0",
		"generator":"Created using the official Cinema 4D glTF Exporter 1.000x284978"
	},
	"scenes":[{
		"nodes":[0]
	}],
	"nodes":[{
		"name":"Happy",
		"translation":[-0.07741919904947281,
		0.22495120763778687,
		0.09104999899864197],
		"rotation":[0.0,
		0.0,
		0.0,
		-1.0],
		"scale":[80.0,
		80.0,
		80.0],
		"mesh":0,
		"children":[1,
		2,
		3,
		4]
	},
	{
		"name":"Teeth",
		"translation":[0.0009677400230430067,
		1.3832223415374756,
		0.5647372007369995],
		"rotation":[0.0,
		0.0,
		0.0,
		-1.0],
		"scale":[0.012500000186264515,
		0.012500000186264515,
		0.012500000186264515],
		"mesh":1
	},
	{
		"name":"Sweep",
		"translation":[-0.18048730492591859,
		1.328378438949585,
		-0.04975885897874832],
		"rotation":[0.0,
		0.0,
		0.0,
		-1.0],
		"scale":[0.012500000186264515,
		0.012500000186264515,
		0.012500000186264515],
		"mesh":2
	},
	{
		"name":"Tail",
		"translation":[0.0009677400230430067,
		1.1798069477081299,
		-0.0011381249641999603],
		"rotation":[0.0,
		0.0,
		0.0,
		-1.0],
		"scale":[0.012500000186264515,
		0.012500000186264515,
		0.012500000186264515],
		"mesh":3
	},
	{
		"name":"Eyes",
		"translation":[0.0009677400230430067,
		1.7953325510025025,
		0.6905043721199036],
		"rotation":[-1.91428440227847e-16,
		-0.8660253882408142,
		-0.5,
		3.315637680133054e-16],
		"scale":[0.012500000186264515,
		0.012500000186264515,
		0.012500000186264515],
		"children":[5,
		6]
	},
	{
		"name":"Eyes-Mat.1",
		"translation":[0.0,
		0.0,
		0.0],
		"rotation":[0.0,
		-2.4492937051703359e-16,
		0.0,
		-1.0],
		"scale":[1.0,
		1.0,
		1.0],
		"mesh":4
	},
	{
		"name":"Eyes-Mat.1",
		"translation":[0.0,
		0.0,
		0.0],
		"rotation":[0.0,
		-2.4492937051703359e-16,
		0.0,
		-1.0],
		"scale":[1.0,
		1.0,
		1.0],
		"mesh":5
	}],
	"meshes":[{
		"name":"Happy",
		"primitives":[{
			"attributes":{
				"POSITION":1,
				"NORMAL":2
			},
			"indices":0,
			"material":0
		}]
	},
	{
		"name":"Teeth",
		"primitives":[{
			"attributes":{
				"POSITION":4,
				"NORMAL":5,
				"TEXCOORD_0":6
			},
			"indices":3,
			"material":1
		}]
	},
	{
		"name":"Sweep",
		"primitives":[{
			"attributes":{
				"POSITION":8,
				"NORMAL":9,
				"TEXCOORD_0":10
			},
			"indices":7,
			"material":0
		}]
	},
	{
		"name":"Tail",
		"primitives":[{
			"attributes":{
				"POSITION":12,
				"NORMAL":13,
				"TEXCOORD_0":14
			},
			"indices":11,
			"material":0
		}]
	},
	{
		"name":"Eyes-Mat.1",
		"primitives":[{
			"attributes":{
				"POSITION":16,
				"NORMAL":17,
				"TEXCOORD_0":18
			},
			"indices":15,
			"material":1
		}]
	},
	{
		"name":"Eyes-Mat.1",
		"primitives":[{
			"attributes":{
				"POSITION":20,
				"NORMAL":21,
				"TEXCOORD_0":22
			},
			"indices":19,
			"material":0
		}]
	}],
	"accessors":[{
		"bufferView":0,
		"type":"SCALAR",
		"componentType":5123,
		"count":6498,
		"byteOffset":0,
		"min":[0],
		"max":[1118]
	},
	{
		"bufferView":1,
		"type":"VEC3",
		"componentType":5126,
		"count":1119,
		"byteOffset":0,
		"min":[-0.9504585862159729,
		-1.1102230246251566e-16,
		-0.9857937693595886],
		"max":[0.9504585862159729,
		3.104705572128296,
		0.9857937693595886]
	},
	{
		"bufferView":1,
		"type":"VEC3",
		"componentType":5126,
		"count":1119,
		"byteOffset":12,
		"min":[-0.9994087219238281,
		-0.9987190365791321,
		-0.9986494183540344],
		"max":[0.9983106851577759,
		0.9992793798446655,
		0.998396635055542]
	},
	{
		"bufferView":2,
		"type":"SCALAR",
		"componentType":5123,
		"count":18672,
		"byteOffset":0,
		"min":[0],
		"max":[3729]
	},
	{
		"bufferView":3,
		"type":"VEC3",
		"componentType":5126,
		"count":3730,
		"byteOffset":0,
		"min":[-44.633548736572269,
		-57.07023239135742,
		8.103706359863282],
		"max":[45.94715881347656,
		19.42220687866211,
		37.66244125366211]
	},
	{
		"bufferView":3,
		"type":"VEC3",
		"componentType":5126,
		"count":3730,
		"byteOffset":12,
		"min":[-0.9999445080757141,
		-0.9999766945838928,
		-0.9999821186065674],
		"max":[0.999945878982544,
		0.9999767541885376,
		0.9999821186065674]
	},
	{
		"bufferView":3,
		"type":"VEC2",
		"componentType":5126,
		"count":3730,
		"byteOffset":24,
		"min":[0.0,
		0.0],
		"max":[1.0,
		1.0]
	},
	{
		"bufferView":4,
		"type":"SCALAR",
		"componentType":5123,
		"count":8016,
		"byteOffset":0,
		"min":[0],
		"max":[1569]
	},
	{
		"bufferView":5,
		"type":"VEC3",
		"componentType":5126,
		"count":1570,
		"byteOffset":0,
		"min":[-25.72767448425293,
		-154.42372131347657,
		-8.288785934448243],
		"max":[54.76048278808594,
		-86.26062774658203,
		27.36235809326172]
	},
	{
		"bufferView":5,
		"type":"VEC3",
		"componentType":5126,
		"count":1570,
		"byteOffset":12,
		"min":[-0.9983690977096558,
		-0.9994051456451416,
		-0.9984486699104309],
		"max":[0.9983691573143005,
		0.9994586110115051,
		0.9972732663154602]
	},
	{
		"bufferView":5,
		"type":"VEC2",
		"componentType":5126,
		"count":1570,
		"byteOffset":24,
		"min":[0.0,
		0.0],
		"max":[1.0,
		1.0]
	},
	{
		"bufferView":6,
		"type":"SCALAR",
		"componentType":5123,
		"count":11352,
		"byteOffset":0,
		"min":[0],
		"max":[2023]
	},
	{
		"bufferView":7,
		"type":"VEC3",
		"componentType":5126,
		"count":2024,
		"byteOffset":0,
		"min":[-6.482417583465576,
		-155.43849182128907,
		-59.8565673828125],
		"max":[107.36566162109375,
		-55.77600860595703,
		1.9487707614898682]
	},
	{
		"bufferView":7,
		"type":"VEC3",
		"componentType":5126,
		"count":2024,
		"byteOffset":12,
		"min":[-0.9997193217277527,
		-0.9999029636383057,
		-0.9998764395713806],
		"max":[0.9997190237045288,
		0.9999030828475952,
		0.9998761415481567]
	},
	{
		"bufferView":7,
		"type":"VEC2",
		"componentType":5126,
		"count":2024,
		"byteOffset":24,
		"min":[0.0,
		0.0],
		"max":[1.0,
		1.0]
	},
	{
		"bufferView":8,
		"type":"SCALAR",
		"componentType":5123,
		"count":96,
		"byteOffset":0,
		"min":[0],
		"max":[33]
	},
	{
		"bufferView":9,
		"type":"VEC3",
		"componentType":5126,
		"count":34,
		"byteOffset":0,
		"min":[-22.438770294189454,
		-1.9662024974822999,
		-9.956955909729004],
		"max":[22.438770294189454,
		1.4918118715286255,
		9.956955909729004]
	},
	{
		"bufferView":9,
		"type":"VEC3",
		"componentType":5126,
		"count":34,
		"byteOffset":12,
		"min":[-0.17359375953674317,
		0.9847813248634338,
		0.0],
		"max":[0.17359375953674317,
		0.9847813248634338,
		0.0]
	},
	{
		"bufferView":9,
		"type":"VEC2",
		"componentType":5126,
		"count":34,
		"byteOffset":24,
		"min":[0.0,
		0.0],
		"max":[1.0,
		1.0]
	},
	{
		"bufferView":10,
		"type":"SCALAR",
		"componentType":5123,
		"count":96,
		"byteOffset":0,
		"min":[0],
		"max":[33]
	},
	{
		"bufferView":11,
		"type":"VEC3",
		"componentType":5126,
		"count":34,
		"byteOffset":0,
		"min":[-19.233137130737306,
		-1.13834810256958,
		-6.656269073486328],
		"max":[19.233137130737306,
		1.1733498573303223,
		6.656269073486328]
	},
	{
		"bufferView":11,
		"type":"VEC3",
		"componentType":5126,
		"count":34,
		"byteOffset":12,
		"min":[-0.17359375953674317,
		0.9847813248634338,
		0.0],
		"max":[0.17359375953674317,
		0.9847813248634338,
		0.0]
	},
	{
		"bufferView":11,
		"type":"VEC2",
		"componentType":5126,
		"count":34,
		"byteOffset":24,
		"min":[0.0,
		0.0],
		"max":[1.0,
		1.0]
	}],
	"bufferViews":[{
		"buffer":0,
		"byteOffset":0,
		"byteLength":12996,
		"target":34963
	},
	{
		"buffer":0,
		"byteOffset":12996,
		"byteLength":26856,
		"target":34962,
		"byteStride":24
	},
	{
		"buffer":1,
		"byteOffset":0,
		"byteLength":37344,
		"target":34963
	},
	{
		"buffer":1,
		"byteOffset":37344,
		"byteLength":119360,
		"target":34962,
		"byteStride":32
	},
	{
		"buffer":2,
		"byteOffset":0,
		"byteLength":16032,
		"target":34963
	},
	{
		"buffer":2,
		"byteOffset":16032,
		"byteLength":50240,
		"target":34962,
		"byteStride":32
	},
	{
		"buffer":3,
		"byteOffset":0,
		"byteLength":22704,
		"target":34963
	},
	{
		"buffer":3,
		"byteOffset":22704,
		"byteLength":64768,
		"target":34962,
		"byteStride":32
	},
	{
		"buffer":4,
		"byteOffset":0,
		"byteLength":192,
		"target":34963
	},
	{
		"buffer":4,
		"byteOffset":192,
		"byteLength":1088,
		"target":34962,
		"byteStride":32
	},
	{
		"buffer":5,
		"byteOffset":0,
		"byteLength":192,
		"target":34963
	},
	{
		"buffer":5,
		"byteOffset":192,
		"byteLength":1088,
		"target":34962,
		"byteStride":32
	}],
	"buffers":[{
		"uri":"data:application/octet-stream;base64,",
		"byteLength":39852
	},
	{
		"uri":"data:application/octet-stream;base64,",
		"byteLength":156704
	},
	{
		"uri":"data:application/octet-stream;base64,",
		"byteLength":66272
	},
	{
		"uri":"data:application/octet-stream;base64,",
		"byteLength":87472
	},
	{
		"uri":"data:application/octet-stream;base64,",
		"byteLength":1280
	},
	{
		"uri":"data:application/octet-stream;base64,",
		"byteLength":1280
	}],
	"materials":[{
		"pbrMetallicRoughness":{
			"baseColorFactor":[0.25,
			0.25,
			0.25,
			1.0],
			"metallicFactor":0.0,
			"roughnessFactor":0.5
		},
		"emissiveFactor":[0.0,
		0.0,
		0.0],
		"alphaMode":"OPAQUE",
		"doubleSided":false,
		"name":"Mat.1"
	},
	{
		"pbrMetallicRoughness":{
			"baseColorFactor":[0.8,
			0.8,
			0.8,
			1.0],
			"metallicFactor":0.0,
			"roughnessFactor":0.5
		},
		"emissiveFactor":[0.0,
		0.0,
		0.0],
		"alphaMode":"OPAQUE",
		"doubleSided":false,
		"name":"Mat.1"
	}]
}