{
	"asset":{
		"version":"2.0",
		"generator":"Created using the official Cinema 4D glTF Exporter 1.000x284978"
	},
	"scenes":[{
		"nodes":[0]
	}],
	"nodes":[{
		"name":"HappyParticles",
		"translation":[15.47908878326416,
		260.1211853027344,
		-1.0],
		"rotation":[0.0,
		0.0,
		0.0,
		-1.0],
		"scale":[1.0,
		1.0,
		1.0],
		"children":[1,
		2,
		3,
		4,
		5]
	},
	{
		"name":"Diamond",
		"translation":[-69.74373626708985,
		13.477313041687012,
		1.0],
		"rotation":[0.0,
		0.0,
		7.450580596923828e-9,
		-1.0],
		"scale":[0.6890286207199097,
		0.6890286207199097,
		0.20670858025550843],
		"mesh":0
	},
	{
		"name":"Diamond",
		"translation":[54.07136917114258,
		-41.93376541137695,
		1.0],
		"rotation":[0.0,
		0.0,
		0.0,
		-1.0],
		"scale":[0.9735144972801209,
		0.9735144972801209,
		0.29205435514450076],
		"mesh":1
	},
	{
		"name":"Heart1",
		"translation":[-102.22608947753906,
		-48.43023681640625,
		1.0],
		"rotation":[0.5,
		0.5,
		0.5,
		-0.5],
		"scale":[0.0,
		0.0,
		0.0],
		"mesh":2
	},
	{
		"name":"Heart1",
		"translation":[59.803550720214847,
		23.41309356689453,
		1.0],
		"rotation":[0.5,
		0.5,
		0.5,
		-0.5],
		"scale":[0.0,
		0.0,
		0.0],
		"mesh":3
	},
	{
		"name":"Heart2",
		"translation":[8.596070289611817,
		60.48119354248047,
		1.0],
		"rotation":[0.0,
		0.0,
		0.0,
		-1.0],
		"scale":[0.47278743982315066,
		0.47278743982315066,
		0.47278743982315066],
		"mesh":4
	}],
	"meshes":[{
		"name":"Diamond",
		"primitives":[{
			"attributes":{
				"POSITION":1,
				"NORMAL":2,
				"TEXCOORD_0":3
			},
			"indices":0,
			"material":0
		}]
	},
	{
		"name":"Diamond",
		"primitives":[{
			"attributes":{
				"POSITION":9,
				"NORMAL":10,
				"TEXCOORD_0":11
			},
			"indices":8,
			"material":0
		}]
	},
	{
		"name":"Heart1",
		"primitives":[{
			"attributes":{
				"POSITION":17,
				"NORMAL":18
			},
			"indices":16,
			"material":0
		}]
	},
	{
		"name":"Heart1",
		"primitives":[{
			"attributes":{
				"POSITION":24,
				"NORMAL":25
			},
			"indices":23,
			"material":0
		}]
	},
	{
		"name":"Heart2",
		"primitives":[{
			"attributes":{
				"POSITION":31,
				"NORMAL":32
			},
			"indices":30,
			"material":0
		}]
	}],
	"accessors":[{
		"bufferView":0,
		"type":"SCALAR",
		"componentType":5123,
		"count":612,
		"byteOffset":0,
		"min":[0],
		"max":[181]
	},
	{
		"bufferView":1,
		"type":"VEC3",
		"componentType":5126,
		"count":182,
		"byteOffset":0,
		"min":[-16.748910903930665,
		-26.939407348632814,
		-3.5336077213287355],
		"max":[16.748910903930665,
		26.939407348632814,
		3.5336077213287355]
	},
	{
		"bufferView":1,
		"type":"VEC3",
		"componentType":5126,
		"count":182,
		"byteOffset":12,
		"min":[-0.9899907112121582,
		-0.9980577826499939,
		-0.9832804203033447],
		"max":[0.9899907112121582,
		0.9980577826499939,
		0.9829056859016419]
	},
	{
		"bufferView":1,
		"type":"VEC2",
		"componentType":5126,
		"count":182,
		"byteOffset":24,
		"min":[0.0,
		0.0],
		"max":[1.0,
		1.0]
	},
	{
		"bufferView":2,
		"type":"SCALAR",
		"componentType":5126,
		"count":91,
		"byteOffset":0,
		"min":[0.0],
		"max":[3.0]
	},
	{
		"bufferView":2,
		"type":"VEC4",
		"componentType":5126,
		"count":91,
		"byteOffset":364,
		"min":[0.0,
		0.0,
		0.0,
		-1.0],
		"max":[0.5,
		0.5,
		0.5,
		-0.5]
	},
	{
		"bufferView":3,
		"type":"SCALAR",
		"componentType":5126,
		"count":91,
		"byteOffset":0,
		"min":[0.0],
		"max":[3.0]
	},
	{
		"bufferView":3,
		"type":"VEC3",
		"componentType":5126,
		"count":91,
		"byteOffset":364,
		"min":[0.0,
		0.0,
		0.0],
		"max":[1.0,
		1.0,
		0.30000001192092898]
	},
	{
		"bufferView":4,
		"type":"SCALAR",
		"componentType":5123,
		"count":612,
		"byteOffset":0,
		"min":[0],
		"max":[181]
	},
	{
		"bufferView":5,
		"type":"VEC3",
		"componentType":5126,
		"count":182,
		"byteOffset":0,
		"min":[-16.748910903930665,
		-26.939407348632814,
		-3.5336077213287355],
		"max":[16.748910903930665,
		26.939407348632814,
		3.5336077213287355]
	},
	{
		"bufferView":5,
		"type":"VEC3",
		"componentType":5126,
		"count":182,
		"byteOffset":12,
		"min":[-0.9899907112121582,
		-0.9980577826499939,
		-0.9832804203033447],
		"max":[0.9899907112121582,
		0.9980577826499939,
		0.9829056859016419]
	},
	{
		"bufferView":5,
		"type":"VEC2",
		"componentType":5126,
		"count":182,
		"byteOffset":24,
		"min":[0.0,
		0.0],
		"max":[1.0,
		1.0]
	},
	{
		"bufferView":6,
		"type":"SCALAR",
		"componentType":5126,
		"count":91,
		"byteOffset":0,
		"min":[0.0],
		"max":[3.0]
	},
	{
		"bufferView":6,
		"type":"VEC4",
		"componentType":5126,
		"count":91,
		"byteOffset":364,
		"min":[0.0,
		0.0,
		0.0,
		-1.0],
		"max":[0.5,
		0.5,
		0.5,
		-0.5]
	},
	{
		"bufferView":7,
		"type":"SCALAR",
		"componentType":5126,
		"count":91,
		"byteOffset":0,
		"min":[0.0],
		"max":[3.0]
	},
	{
		"bufferView":7,
		"type":"VEC3",
		"componentType":5126,
		"count":91,
		"byteOffset":364,
		"min":[0.0,
		0.0,
		0.0],
		"max":[1.0,
		1.0,
		0.30000001192092898]
	},
	{
		"bufferView":8,
		"type":"SCALAR",
		"componentType":5123,
		"count":5946,
		"byteOffset":0,
		"min":[0],
		"max":[992]
	},
	{
		"bufferView":9,
		"type":"VEC3",
		"componentType":5126,
		"count":993,
		"byteOffset":0,
		"min":[-18.6417293548584,
		-18.939359664916993,
		-0.9045519828796387],
		"max":[14.323500633239746,
		12.728290557861329,
		0.5328850150108337]
	},
	{
		"bufferView":9,
		"type":"VEC3",
		"componentType":5126,
		"count":993,
		"byteOffset":12,
		"min":[-0.8114063143730164,
		-0.8188750147819519,
		-1.0],
		"max":[0.9294688105583191,
		0.9820000529289246,
		1.0]
	},
	{
		"bufferView":10,
		"type":"SCALAR",
		"componentType":5126,
		"count":91,
		"byteOffset":0,
		"min":[0.0],
		"max":[3.0]
	},
	{
		"bufferView":10,
		"type":"VEC4",
		"componentType":5126,
		"count":91,
		"byteOffset":364,
		"min":[0.0,
		0.0,
		0.0,
		-1.0],
		"max":[0.5,
		0.5,
		0.5,
		-0.5]
	},
	{
		"bufferView":11,
		"type":"SCALAR",
		"componentType":5126,
		"count":91,
		"byteOffset":0,
		"min":[0.0],
		"max":[3.0]
	},
	{
		"bufferView":11,
		"type":"VEC3",
		"componentType":5126,
		"count":91,
		"byteOffset":364,
		"min":[0.0,
		0.0,
		0.0],
		"max":[1.0,
		1.0,
		2.0]
	},
	{
		"bufferView":12,
		"type":"SCALAR",
		"componentType":5123,
		"count":5946,
		"byteOffset":0,
		"min":[0],
		"max":[992]
	},
	{
		"bufferView":13,
		"type":"VEC3",
		"componentType":5126,
		"count":993,
		"byteOffset":0,
		"min":[-18.6417293548584,
		-18.939359664916993,
		-0.9045519828796387],
		"max":[14.323500633239746,
		12.728290557861329,
		0.5328850150108337]
	},
	{
		"bufferView":13,
		"type":"VEC3",
		"componentType":5126,
		"count":993,
		"byteOffset":12,
		"min":[-0.8114063143730164,
		-0.8188750147819519,
		-1.0],
		"max":[0.9294688105583191,
		0.9820000529289246,
		1.0]
	},
	{
		"bufferView":14,
		"type":"SCALAR",
		"componentType":5126,
		"count":91,
		"byteOffset":0,
		"min":[0.0],
		"max":[3.0]
	},
	{
		"bufferView":14,
		"type":"VEC4",
		"componentType":5126,
		"count":91,
		"byteOffset":364,
		"min":[0.0,
		0.0,
		0.0,
		-1.0],
		"max":[0.5,
		0.5,
		0.5,
		-0.5]
	},
	{
		"bufferView":15,
		"type":"SCALAR",
		"componentType":5126,
		"count":91,
		"byteOffset":0,
		"min":[0.0],
		"max":[3.0]
	},
	{
		"bufferView":15,
		"type":"VEC3",
		"componentType":5126,
		"count":91,
		"byteOffset":364,
		"min":[0.0,
		0.0,
		0.0],
		"max":[1.0,
		1.0,
		1.0]
	},
	{
		"bufferView":16,
		"type":"SCALAR",
		"componentType":5123,
		"count":5946,
		"byteOffset":0,
		"min":[0],
		"max":[992]
	},
	{
		"bufferView":17,
		"type":"VEC3",
		"componentType":5126,
		"count":993,
		"byteOffset":0,
		"min":[-18.6417293548584,
		-18.939359664916993,
		-0.9045519828796387],
		"max":[14.323500633239746,
		12.728290557861329,
		0.5328850150108337]
	},
	{
		"bufferView":17,
		"type":"VEC3",
		"componentType":5126,
		"count":993,
		"byteOffset":12,
		"min":[-0.8114063143730164,
		-0.8188750147819519,
		-1.0],
		"max":[0.9294688105583191,
		0.9820000529289246,
		1.0]
	},
	{
		"bufferView":18,
		"type":"SCALAR",
		"componentType":5126,
		"count":91,
		"byteOffset":0,
		"min":[0.0],
		"max":[3.0]
	},
	{
		"bufferView":18,
		"type":"VEC4",
		"componentType":5126,
		"count":91,
		"byteOffset":364,
		"min":[0.0,
		0.0,
		0.0,
		-1.0],
		"max":[0.5,
		0.5,
		0.5,
		-0.5]
	},
	{
		"bufferView":19,
		"type":"SCALAR",
		"componentType":5126,
		"count":91,
		"byteOffset":0,
		"min":[0.0],
		"max":[3.0]
	},
	{
		"bufferView":19,
		"type":"VEC3",
		"componentType":5126,
		"count":91,
		"byteOffset":364,
		"min":[0.0,
		0.0,
		0.0],
		"max":[0.5,
		0.5,
		0.5]
	}],
	"bufferViews":[{
		"buffer":0,
		"byteOffset":0,
		"byteLength":1224,
		"target":34963
	},
	{
		"buffer":0,
		"byteOffset":1224,
		"byteLength":5824,
		"target":34962,
		"byteStride":32
	},
	{
		"buffer":1,
		"byteOffset":0,
		"byteLength":1820
	},
	{
		"buffer":1,
		"byteOffset":1820,
		"byteLength":1456
	},
	{
		"buffer":2,
		"byteOffset":0,
		"byteLength":1224,
		"target":34963
	},
	{
		"buffer":2,
		"byteOffset":1224,
		"byteLength":5824,
		"target":34962,
		"byteStride":32
	},
	{
		"buffer":3,
		"byteOffset":0,
		"byteLength":1820
	},
	{
		"buffer":3,
		"byteOffset":1820,
		"byteLength":1456
	},
	{
		"buffer":4,
		"byteOffset":0,
		"byteLength":11892,
		"target":34963
	},
	{
		"buffer":4,
		"byteOffset":11892,
		"byteLength":23832,
		"target":34962,
		"byteStride":24
	},
	{
		"buffer":5,
		"byteOffset":0,
		"byteLength":1820
	},
	{
		"buffer":5,
		"byteOffset":1820,
		"byteLength":1456
	},
	{
		"buffer":6,
		"byteOffset":0,
		"byteLength":11892,
		"target":34963
	},
	{
		"buffer":6,
		"byteOffset":11892,
		"byteLength":23832,
		"target":34962,
		"byteStride":24
	},
	{
		"buffer":7,
		"byteOffset":0,
		"byteLength":1820
	},
	{
		"buffer":7,
		"byteOffset":1820,
		"byteLength":1456
	},
	{
		"buffer":8,
		"byteOffset":0,
		"byteLength":11892,
		"target":34963
	},
	{
		"buffer":8,
		"byteOffset":11892,
		"byteLength":23832,
		"target":34962,
		"byteStride":24
	},
	{
		"buffer":9,
		"byteOffset":0,
		"byteLength":1820
	},
	{
		"buffer":9,
		"byteOffset":1820,
		"byteLength":1456
	}],
	"buffers":[{
		"uri":"data:application/octet-stream;base64,",
		"byteLength":7048
	},
	{
		"uri":"data:application/octet-stream;base64,",
		"byteLength":3276
	},
	{
		"uri":"data:application/octet-stream;base64,",
		"byteLength":7048
	},
	{
		"uri":"data:application/octet-stream;base64,",
		"byteLength":3276
	},
	{
		"uri":"data:application/octet-stream;base64,",
		"byteLength":35724
	},
	{
		"uri":"data:application/octet-stream;base64,",
		"byteLength":3276
	},
	{
		"uri":"data:application/octet-stream;base64,",
		"byteLength":35724
	},
	{
		"uri":"data:application/octet-stream;base64,",
		"byteLength":3276
	},
	{
		"uri":"data:application/octet-stream;base64,",
		"byteLength":35724
	},
	{
		"uri":"data:application/octet-stream;base64,",
		"byteLength":3276
	}],
	"materials":[{
		"pbrMetallicRoughness":{
			"baseColorFactor":[0.25,
			0.25,
			0.25,
			1.0],
			"metallicFactor":0.0,
			"roughnessFactor":0.5
		},
		"emissiveFactor":[0.0,
		0.0,
		0.0],
		"alphaMode":"OPAQUE",
		"doubleSided":false,
		"name":"Mat.1"
	}],
	"animations":[{
		"samplers":[{
			"input":4,
			"interpolation":"LINEAR",
			"output":5
		},
		{
			"input":6,
			"interpolation":"LINEAR",
			"output":7
		},
		{
			"input":12,
			"interpolation":"LINEAR",
			"output":13
		},
		{
			"input":14,
			"interpolation":"LINEAR",
			"output":15
		},
		{
			"input":19,
			"interpolation":"LINEAR",
			"output":20
		},
		{
			"input":21,
			"interpolation":"LINEAR",
			"output":22
		},
		{
			"input":26,
			"interpolation":"LINEAR",
			"output":27
		},
		{
			"input":28,
			"interpolation":"LINEAR",
			"output":29
		},
		{
			"input":33,
			"interpolation":"LINEAR",
			"output":34
		},
		{
			"input":35,
			"interpolation":"LINEAR",
			"output":36
		}],
		"channels":[{
			"sampler":0,
			"target":{
				"node":1,
				"path":"rotation"
			}
		},
		{
			"sampler":1,
			"target":{
				"node":1,
				"path":"scale"
			}
		},
		{
			"sampler":2,
			"target":{
				"node":2,
				"path":"rotation"
			}
		},
		{
			"sampler":3,
			"target":{
				"node":2,
				"path":"scale"
			}
		},
		{
			"sampler":4,
			"target":{
				"node":3,
				"path":"rotation"
			}
		},
		{
			"sampler":5,
			"target":{
				"node":3,
				"path":"scale"
			}
		},
		{
			"sampler":6,
			"target":{
				"node":4,
				"path":"rotation"
			}
		},
		{
			"sampler":7,
			"target":{
				"node":4,
				"path":"scale"
			}
		},
		{
			"sampler":8,
			"target":{
				"node":5,
				"path":"rotation"
			}
		},
		{
			"sampler":9,
			"target":{
				"node":5,
				"path":"scale"
			}
		}]
	}]
}