{
	"asset":{
		"version":"2.0",
		"generator":"Created using the official Cinema 4D glTF Exporter 1.000x284978"
	},
	"scenes":[{
		"nodes":[0]
	}],
	"nodes":[{
		"name":"Cylinder",
		"translation":[0.0,
		-263.4325256347656,
		0.0],
		"rotation":[0.0,
		0.0,
		0.0,
		-1.0],
		"scale":[1.0,
		1.0,
		1.0],
		"mesh":0
	}],
	"meshes":[{
		"name":"Cylinder",
		"primitives":[{
			"attributes":{
				"POSITION":1,
				"NORMAL":2,
				"TEXCOORD_0":3
			},
			"indices":0
		}]
	}],
	"accessors":[{
		"bufferView":0,
		"type":"SCALAR",
		"componentType":5123,
		"count":1536,
		"byteOffset":0,
		"min":[0],
		"max":[327]
	},
	{
		"bufferView":1,
		"type":"VEC3",
		"componentType":5126,
		"count":328,
		"byteOffset":0,
		"min":[-109.69999694824219,
		-219.39999389648438,
		-109.69999694824219],
		"max":[109.69999694824219,
		219.39999389648438,
		109.69999694824219]
	},
	{
		"bufferView":1,
		"type":"VEC3",
		"componentType":5126,
		"count":328,
		"byteOffset":12,
		"min":[-0.9914421439170837,
		-1.0,
		-0.9914421439170837],
		"max":[0.991442084312439,
		1.0,
		0.9914421439170837]
	},
	{
		"bufferView":1,
		"type":"VEC2",
		"componentType":5126,
		"count":328,
		"byteOffset":24,
		"min":[0.0,
		0.0],
		"max":[1.0,
		1.0]
	},
	{
		"bufferView":2,
		"type":"SCALAR",
		"componentType":5126,
		"count":106,
		"byteOffset":0,
		"min":[0.0],
		"max":[3.5]
	},
	{
		"bufferView":2,
		"type":"VEC3",
		"componentType":5126,
		"count":106,
		"byteOffset":424,
		"min":[0.0,
		-263.4325256347656,
		0.0],
		"max":[0.0,
		-263.4325256347656,
		0.0]
	},
	{
		"bufferView":3,
		"type":"SCALAR",
		"componentType":5126,
		"count":106,
		"byteOffset":0,
		"min":[0.0],
		"max":[3.5]
	},
	{
		"bufferView":3,
		"type":"VEC3",
		"componentType":5126,
		"count":106,
		"byteOffset":424,
		"min":[1.0,
		1.0,
		1.0],
		"max":[1.0,
		1.0,
		1.0]
	}],
	"bufferViews":[{
		"buffer":0,
		"byteOffset":0,
		"byteLength":3072,
		"target":34963
	},
	{
		"buffer":0,
		"byteOffset":3072,
		"byteLength":10496,
		"target":34962,
		"byteStride":32
	},
	{
		"buffer":1,
		"byteOffset":0,
		"byteLength":1696
	},
	{
		"buffer":1,
		"byteOffset":1696,
		"byteLength":1696
	}],
	"buffers":[{
		"uri":"data:application/octet-stream;base64,",
		"byteLength":13568
	},
	{
		"uri":"data:application/octet-stream;base64,",
		"byteLength":3392
	}],
	"animations":[{
		"samplers":[{
			"input":4,
			"interpolation":"LINEAR",
			"output":5
		},
		{
			"input":6,
			"interpolation":"LINEAR",
			"output":7
		}],
		"channels":[{
			"sampler":0,
			"target":{
				"node":0,
				"path":"translation"
			}
		},
		{
			"sampler":1,
			"target":{
				"node":0,
				"path":"scale"
			}
		}]
	}]
}