{
	"asset":{
		"version":"2.0",
		"generator":"Created using the official Cinema 4D glTF Exporter 1.000x284978"
	},
	"scenes":[{
		"nodes":[0]
	}],
	"nodes":[{
		"name":"Sad",
		"translation":[0.0,
		0.0,
		0.0],
		"rotation":[0.0,
		0.0,
		0.0,
		-1.0],
		"scale":[1.0,
		1.0,
		1.0],
		"mesh":0,
		"children":[1,
		3,
		6,
		7]
	},
	{
		"name":"Sweep",
		"translation":[0.7642907500267029,
		64.31603240966797,
		77.57573699951172],
		"rotation":[0.0,
		0.0,
		0.0,
		-1.0],
		"scale":[1.0,
		1.0,
		1.0],
		"children":[2]
	},
	{
		"name":"Sweep",
		"mesh":1
	},
	{
		"name":"Eyes",
		"translation":[0.0,
		118.2363052368164,
		70.28096008300781],
		"rotation":[0.258819043636322,
		0.0,
		0.0,
		-0.9659258127212524],
		"scale":[1.0,
		1.0,
		1.0],
		"children":[4,
		5]
	},
	{
		"name":"Eyes",
		"translation":[0.0,
		0.0,
		0.0],
		"rotation":[0.0,
		0.0,
		0.0,
		-1.0],
		"scale":[1.0,
		1.0,
		1.0],
		"mesh":2
	},
	{
		"name":"Eyes-Mat.1",
		"translation":[0.0,
		0.0,
		0.0],
		"rotation":[0.0,
		0.0,
		0.0,
		-1.0],
		"scale":[1.0,
		1.0,
		1.0],
		"mesh":3
	},
	{
		"name":"Legs",
		"translation":[-47.70871353149414,
		-11.644414901733399,
		40.29975128173828],
		"rotation":[0.0,
		0.0,
		0.0,
		-1.0],
		"scale":[1.0,
		1.0,
		1.0],
		"mesh":4
	},
	{
		"name":"Tail",
		"translation":[-47.70871353149414,
		-11.644414901733399,
		40.29975128173828],
		"rotation":[0.0,
		0.0,
		0.0,
		-1.0],
		"scale":[1.0,
		1.0,
		1.0],
		"mesh":5
	}],
	"meshes":[{
		"name":"Sad",
		"primitives":[{
			"attributes":{
				"POSITION":1,
				"NORMAL":2,
				"TEXCOORD_0":3
			},
			"indices":0,
			"material":0
		}]
	},
	{
		"name":"Sweep",
		"primitives":[{
			"attributes":{
				"POSITION":5,
				"NORMAL":6,
				"TEXCOORD_0":7
			},
			"indices":4,
			"material":1
		}]
	},
	{
		"name":"Eyes",
		"primitives":[{
			"attributes":{
				"POSITION":9,
				"NORMAL":10,
				"TEXCOORD_0":11
			},
			"indices":8,
			"material":2
		}]
	},
	{
		"name":"Eyes-Mat.1",
		"primitives":[{
			"attributes":{
				"POSITION":13,
				"NORMAL":14,
				"TEXCOORD_0":15
			},
			"indices":12,
			"material":0
		}]
	},
	{
		"name":"Legs",
		"primitives":[{
			"attributes":{
				"POSITION":17,
				"NORMAL":18,
				"TEXCOORD_0":19
			},
			"indices":16,
			"material":0
		}]
	},
	{
		"name":"Tail",
		"primitives":[{
			"attributes":{
				"POSITION":21,
				"NORMAL":22,
				"TEXCOORD_0":23
			},
			"indices":20,
			"material":0
		}]
	}],
	"accessors":[{
		"bufferView":0,
		"type":"SCALAR",
		"componentType":5123,
		"count":7296,
		"byteOffset":0,
		"min":[0],
		"max":[1278]
	},
	{
		"bufferView":1,
		"type":"VEC3",
		"componentType":5126,
		"count":1279,
		"byteOffset":0,
		"min":[-100.01164245605469,
		1.4210854715202005e-14,
		-82.72450256347656],
		"max":[100.01164245605469,
		172.1999053955078,
		82.72450256347656]
	},
	{
		"bufferView":1,
		"type":"VEC3",
		"componentType":5126,
		"count":1279,
		"byteOffset":12,
		"min":[-0.9986400604248047,
		-0.9962044954299927,
		-0.9999998211860657],
		"max":[0.99586421251297,
		0.9993053078651428,
		0.999740481376648]
	},
	{
		"bufferView":1,
		"type":"VEC2",
		"componentType":5126,
		"count":1279,
		"byteOffset":24,
		"min":[0.0,
		0.0],
		"max":[0.0,
		0.0]
	},
	{
		"bufferView":2,
		"type":"SCALAR",
		"componentType":5123,
		"count":9408,
		"byteOffset":0,
		"min":[0],
		"max":[1690]
	},
	{
		"bufferView":3,
		"type":"VEC3",
		"componentType":5126,
		"count":1691,
		"byteOffset":0,
		"min":[-51.02796173095703,
		-26.948272705078126,
		-13.899039268493653],
		"max":[48.43401336669922,
		42.79377365112305,
		2.0844290256500246]
	},
	{
		"bufferView":3,
		"type":"VEC3",
		"componentType":5126,
		"count":1691,
		"byteOffset":12,
		"min":[-0.9907653331756592,
		-0.999189019203186,
		-0.9989039897918701],
		"max":[0.9929302334785461,
		0.997621476650238,
		0.9989039897918701]
	},
	{
		"bufferView":3,
		"type":"VEC2",
		"componentType":5126,
		"count":1691,
		"byteOffset":24,
		"min":[0.0,
		0.0],
		"max":[1.0,
		1.0]
	},
	{
		"bufferView":4,
		"type":"SCALAR",
		"componentType":5123,
		"count":96,
		"byteOffset":0,
		"min":[0],
		"max":[33]
	},
	{
		"bufferView":5,
		"type":"VEC3",
		"componentType":5126,
		"count":34,
		"byteOffset":0,
		"min":[-32.374549865722659,
		-9.956955909729004,
		-1.8563553094863892],
		"max":[32.374549865722659,
		9.956955909729004,
		1.6016590595245362]
	},
	{
		"bufferView":5,
		"type":"VEC3",
		"componentType":5126,
		"count":34,
		"byteOffset":12,
		"min":[-0.17359375953674317,
		0.0,
		0.9847813248634338],
		"max":[0.17359375953674317,
		0.0,
		0.9847813248634338]
	},
	{
		"bufferView":5,
		"type":"VEC2",
		"componentType":5126,
		"count":34,
		"byteOffset":24,
		"min":[0.0,
		0.0],
		"max":[1.0,
		1.0]
	},
	{
		"bufferView":6,
		"type":"SCALAR",
		"componentType":5123,
		"count":96,
		"byteOffset":0,
		"min":[0],
		"max":[33]
	},
	{
		"bufferView":7,
		"type":"VEC3",
		"componentType":5126,
		"count":34,
		"byteOffset":0,
		"min":[-29.168916702270509,
		-6.656269073486328,
		-1.0285009145736695],
		"max":[29.168916702270509,
		6.656269073486328,
		1.2831971645355225]
	},
	{
		"bufferView":7,
		"type":"VEC3",
		"componentType":5126,
		"count":34,
		"byteOffset":12,
		"min":[-0.17359375953674317,
		0.0,
		0.9847813248634338],
		"max":[0.17359375953674317,
		0.0,
		0.9847813248634338]
	},
	{
		"bufferView":7,
		"type":"VEC2",
		"componentType":5126,
		"count":34,
		"byteOffset":24,
		"min":[0.0,
		0.0],
		"max":[1.0,
		1.0]
	},
	{
		"bufferView":8,
		"type":"SCALAR",
		"componentType":5123,
		"count":8016,
		"byteOffset":0,
		"min":[0],
		"max":[1754]
	},
	{
		"bufferView":9,
		"type":"VEC3",
		"componentType":5126,
		"count":1755,
		"byteOffset":0,
		"min":[-6.242688179016113,
		-34.515541076660159,
		-61.62893295288086],
		"max":[101.66011047363281,
		33.647560119628909,
		-35.03006362915039]
	},
	{
		"bufferView":9,
		"type":"VEC3",
		"componentType":5126,
		"count":1755,
		"byteOffset":12,
		"min":[-0.9994180202484131,
		-0.9994050860404968,
		-0.9993790984153748],
		"max":[0.9994180798530579,
		0.9994582533836365,
		0.9993791580200195]
	},
	{
		"bufferView":9,
		"type":"VEC2",
		"componentType":5126,
		"count":1755,
		"byteOffset":24,
		"min":[0.0,
		0.0],
		"max":[1.0,
		1.0]
	},
	{
		"bufferView":10,
		"type":"SCALAR",
		"componentType":5123,
		"count":8976,
		"byteOffset":0,
		"min":[0],
		"max":[1687]
	},
	{
		"bufferView":11,
		"type":"VEC3",
		"componentType":5126,
		"count":1688,
		"byteOffset":0,
		"min":[35.18632125854492,
		-33.4930305480957,
		-93.96988677978516],
		"max":[74.73314666748047,
		19.329214096069337,
		31.52652931213379]
	},
	{
		"bufferView":11,
		"type":"VEC3",
		"componentType":5126,
		"count":1688,
		"byteOffset":12,
		"min":[-0.9984117150306702,
		-0.999601423740387,
		-0.9978682398796082],
		"max":[0.9987419247627258,
		0.9996013641357422,
		0.9993783831596375]
	},
	{
		"bufferView":11,
		"type":"VEC2",
		"componentType":5126,
		"count":1688,
		"byteOffset":24,
		"min":[0.0,
		0.0],
		"max":[1.0,
		1.0]
	}],
	"bufferViews":[{
		"buffer":0,
		"byteOffset":0,
		"byteLength":14592,
		"target":34963
	},
	{
		"buffer":0,
		"byteOffset":14592,
		"byteLength":40928,
		"target":34962,
		"byteStride":32
	},
	{
		"buffer":1,
		"byteOffset":0,
		"byteLength":18816,
		"target":34963
	},
	{
		"buffer":1,
		"byteOffset":18816,
		"byteLength":54112,
		"target":34962,
		"byteStride":32
	},
	{
		"buffer":2,
		"byteOffset":0,
		"byteLength":192,
		"target":34963
	},
	{
		"buffer":2,
		"byteOffset":192,
		"byteLength":1088,
		"target":34962,
		"byteStride":32
	},
	{
		"buffer":3,
		"byteOffset":0,
		"byteLength":192,
		"target":34963
	},
	{
		"buffer":3,
		"byteOffset":192,
		"byteLength":1088,
		"target":34962,
		"byteStride":32
	},
	{
		"buffer":4,
		"byteOffset":0,
		"byteLength":16032,
		"target":34963
	},
	{
		"buffer":4,
		"byteOffset":16032,
		"byteLength":56160,
		"target":34962,
		"byteStride":32
	},
	{
		"buffer":5,
		"byteOffset":0,
		"byteLength":17952,
		"target":34963
	},
	{
		"buffer":5,
		"byteOffset":17952,
		"byteLength":54016,
		"target":34962,
		"byteStride":32
	}],
	"buffers":[{
		"uri":"data:application/octet-stream;base64,",
		"byteLength":55520
	},
	{
		"uri":"data:application/octet-stream;base64,",
		"byteLength":72928
	},
	{
		"uri":"data:application/octet-stream;base64,",
		"byteLength":1280
	},
	{
		"uri":"data:application/octet-stream;base64,",
		"byteLength":1280
	},
	{
		"uri":"data:application/octet-stream;base64,",
		"byteLength":72192
	},
	{
		"uri":"data:application/octet-stream;base64,",
		"byteLength":71968
	}],
	"materials":[{
		"pbrMetallicRoughness":{
			"baseColorFactor":[0.25,
			0.25,
			0.25,
			1.0],
			"metallicFactor":0.0,
			"roughnessFactor":0.5
		},
		"emissiveFactor":[0.0,
		0.0,
		0.0],
		"alphaMode":"OPAQUE",
		"doubleSided":false,
		"name":"Mat.1"
	},
	{
		"pbrMetallicRoughness":{
			"baseColorFactor":[0.8,
			0.8,
			0.8,
			1.0],
			"metallicFactor":0.0,
			"roughnessFactor":0.5
		},
		"emissiveFactor":[0.0,
		0.0,
		0.0],
		"alphaMode":"OPAQUE",
		"doubleSided":false,
		"name":"Mat.1"
	},
	{
		"pbrMetallicRoughness":{
			"baseColorFactor":[1.0,
			1.0,
			1.0,
			1.0],
			"metallicFactor":1.0,
			"roughnessFactor":1.0
		},
		"emissiveFactor":[0.0,
		0.0,
		0.0],
		"alphaMode":"OPAQUE",
		"doubleSided":false,
		"name":""
	}]
}