{
	"asset":{
		"version":"2.0",
		"generator":"Created using the official Cinema 4D glTF Exporter 1.000x284978"
	},
	"scenes":[{
		"nodes":[0]
	}],
	"nodes":[{
		"name":"SadCloud",
		"translation":[11.064743041992188,
		181.97328186035157,
		0.27354198694229128],
		"rotation":[0.0,
		0.0,
		0.0,
		-1.0],
		"scale":[1.0,
		1.0,
		1.0],
		"children":[1,
		2]
	},
	{
		"name":"Cloud",
		"translation":[-4.218481540679932,
		90.86575317382813,
		0.27354198694229128],
		"rotation":[0.0,
		0.0,
		0.0,
		-1.0],
		"scale":[100.0,
		100.0,
		100.0],
		"mesh":0
	},
	{
		"name":"SadParticles",
		"translation":[4.218481540679932,
		-90.86575317382813,
		-0.27354198694229128],
		"rotation":[0.0,
		0.0,
		0.0,
		-1.0],
		"scale":[1.0,
		0.881924033164978,
		1.0],
		"children":[3,
		4,
		5,
		6,
		7,
		8]
	},
	{
		"name":"Capsule",
		"translation":[-79.10013580322266,
		-31.022258758544923,
		0.0],
		"rotation":[0.0,
		0.0,
		0.0,
		-1.0],
		"scale":[1.0,
		1.0,
		1.0],
		"mesh":1
	},
	{
		"name":"Capsule.5",
		"translation":[-47.06417465209961,
		142.84815979003907,
		0.0],
		"rotation":[0.0,
		0.0,
		0.0,
		-1.0],
		"scale":[1.0,
		1.0,
		1.0],
		"mesh":2
	},
	{
		"name":"Capsule.4",
		"translation":[56.694087982177737,
		158.1752166748047,
		0.0],
		"rotation":[0.0,
		0.0,
		0.0,
		-1.0],
		"scale":[1.0,
		1.0,
		1.0],
		"mesh":3
	},
	{
		"name":"Capsule.3",
		"translation":[-3.8315646648406984,
		158.1752166748047,
		0.0],
		"rotation":[0.0,
		0.0,
		0.0,
		-1.0],
		"scale":[1.0,
		1.0,
		1.0],
		"mesh":4
	},
	{
		"name":"Capsule.2",
		"translation":[-27.587583541870118,
		-10.42239761352539,
		0.0],
		"rotation":[0.0,
		0.0,
		0.0,
		-1.0],
		"scale":[1.0,
		1.0,
		1.0],
		"mesh":5
	},
	{
		"name":"Capsule.1",
		"translation":[21.789234161376954,
		142.84815979003907,
		0.0],
		"rotation":[0.0,
		0.0,
		0.0,
		-1.0],
		"scale":[1.0,
		1.0,
		1.0],
		"mesh":6
	}],
	"meshes":[{
		"name":"Cloud",
		"primitives":[{
			"attributes":{
				"POSITION":5,
				"NORMAL":6
			},
			"indices":4,
			"material":0
		}]
	},
	{
		"name":"Capsule",
		"primitives":[{
			"attributes":{
				"POSITION":16,
				"NORMAL":17,
				"TEXCOORD_0":18
			},
			"indices":15,
			"material":0
		}]
	},
	{
		"name":"Capsule.5",
		"primitives":[{
			"attributes":{
				"POSITION":24,
				"NORMAL":25,
				"TEXCOORD_0":26
			},
			"indices":23,
			"material":0
		}]
	},
	{
		"name":"Capsule.4",
		"primitives":[{
			"attributes":{
				"POSITION":32,
				"NORMAL":33,
				"TEXCOORD_0":34
			},
			"indices":31,
			"material":0
		}]
	},
	{
		"name":"Capsule.3",
		"primitives":[{
			"attributes":{
				"POSITION":40,
				"NORMAL":41,
				"TEXCOORD_0":42
			},
			"indices":39,
			"material":0
		}]
	},
	{
		"name":"Capsule.2",
		"primitives":[{
			"attributes":{
				"POSITION":48,
				"NORMAL":49,
				"TEXCOORD_0":50
			},
			"indices":47,
			"material":0
		}]
	},
	{
		"name":"Capsule.1",
		"primitives":[{
			"attributes":{
				"POSITION":56,
				"NORMAL":57,
				"TEXCOORD_0":58
			},
			"indices":55,
			"material":0
		}]
	}],
	"accessors":[{
		"bufferView":0,
		"type":"SCALAR",
		"componentType":5126,
		"count":106,
		"byteOffset":0,
		"min":[0.0],
		"max":[3.5]
	},
	{
		"bufferView":0,
		"type":"VEC3",
		"componentType":5126,
		"count":106,
		"byteOffset":424,
		"min":[11.064743041992188,
		181.97328186035157,
		0.27354198694229128],
		"max":[11.064743041992188,
		181.97328186035157,
		0.27354198694229128]
	},
	{
		"bufferView":1,
		"type":"SCALAR",
		"componentType":5126,
		"count":106,
		"byteOffset":0,
		"min":[0.0],
		"max":[3.5]
	},
	{
		"bufferView":1,
		"type":"VEC3",
		"componentType":5126,
		"count":106,
		"byteOffset":424,
		"min":[1.0,
		1.0,
		1.0],
		"max":[1.0,
		1.0,
		1.0]
	},
	{
		"bufferView":2,
		"type":"SCALAR",
		"componentType":5123,
		"count":6012,
		"byteOffset":0,
		"min":[0],
		"max":[1003]
	},
	{
		"bufferView":3,
		"type":"VEC3",
		"componentType":5126,
		"count":1004,
		"byteOffset":0,
		"min":[-1.1533957719802857,
		-4.1356426001338579e-16,
		-0.4736310839653015],
		"max":[1.1533957719802857,
		1.0692088603973389,
		0.4736310839653015]
	},
	{
		"bufferView":3,
		"type":"VEC3",
		"componentType":5126,
		"count":1004,
		"byteOffset":12,
		"min":[-0.9930200576782227,
		-0.999419093132019,
		-0.9992272853851318],
		"max":[0.9959867596626282,
		0.998734712600708,
		0.9989279508590698]
	},
	{
		"bufferView":4,
		"type":"SCALAR",
		"componentType":5126,
		"count":106,
		"byteOffset":0,
		"min":[0.0],
		"max":[3.5]
	},
	{
		"bufferView":4,
		"type":"VEC3",
		"componentType":5126,
		"count":106,
		"byteOffset":424,
		"min":[-4.218481540679932,
		90.86575317382813,
		0.27354198694229128],
		"max":[-4.218481540679932,
		90.86575317382813,
		0.27354198694229128]
	},
	{
		"bufferView":5,
		"type":"SCALAR",
		"componentType":5126,
		"count":106,
		"byteOffset":0,
		"min":[0.0],
		"max":[3.5]
	},
	{
		"bufferView":5,
		"type":"VEC3",
		"componentType":5126,
		"count":106,
		"byteOffset":424,
		"min":[100.0,
		100.0,
		100.0],
		"max":[100.0,
		100.0,
		100.0]
	},
	{
		"bufferView":6,
		"type":"SCALAR",
		"componentType":5126,
		"count":106,
		"byteOffset":0,
		"min":[0.0],
		"max":[3.5]
	},
	{
		"bufferView":6,
		"type":"VEC3",
		"componentType":5126,
		"count":106,
		"byteOffset":424,
		"min":[4.218481540679932,
		-90.86575317382813,
		-0.27354198694229128],
		"max":[4.218481540679932,
		-90.86575317382813,
		-0.27354198694229128]
	},
	{
		"bufferView":7,
		"type":"SCALAR",
		"componentType":5126,
		"count":106,
		"byteOffset":0,
		"min":[0.0],
		"max":[3.5]
	},
	{
		"bufferView":7,
		"type":"VEC3",
		"componentType":5126,
		"count":106,
		"byteOffset":424,
		"min":[1.0,
		0.881924033164978,
		1.0],
		"max":[1.0,
		0.881924033164978,
		1.0]
	},
	{
		"bufferView":8,
		"type":"SCALAR",
		"componentType":5123,
		"count":1056,
		"byteOffset":0,
		"min":[0],
		"max":[218]
	},
	{
		"bufferView":9,
		"type":"VEC3",
		"componentType":5126,
		"count":219,
		"byteOffset":0,
		"min":[-3.232759714126587,
		0.0,
		-3.232759714126587],
		"max":[3.232759714126587,
		27.464805603027345,
		3.232759714126587]
	},
	{
		"bufferView":9,
		"type":"VEC3",
		"componentType":5126,
		"count":219,
		"byteOffset":12,
		"min":[-1.0,
		-1.0,
		-1.0],
		"max":[1.0,
		0.9999999403953552,
		1.0]
	},
	{
		"bufferView":9,
		"type":"VEC2",
		"componentType":5126,
		"count":219,
		"byteOffset":24,
		"min":[0.0,
		0.0],
		"max":[1.0,
		1.0]
	},
	{
		"bufferView":10,
		"type":"SCALAR",
		"componentType":5126,
		"count":106,
		"byteOffset":0,
		"min":[0.0],
		"max":[3.5]
	},
	{
		"bufferView":10,
		"type":"VEC3",
		"componentType":5126,
		"count":106,
		"byteOffset":424,
		"min":[-79.10013580322266,
		-153.63870239257813,
		0.0],
		"max":[-79.10013580322266,
		152.90240478515626,
		0.0]
	},
	{
		"bufferView":11,
		"type":"SCALAR",
		"componentType":5126,
		"count":106,
		"byteOffset":0,
		"min":[0.0],
		"max":[3.5]
	},
	{
		"bufferView":11,
		"type":"VEC3",
		"componentType":5126,
		"count":106,
		"byteOffset":424,
		"min":[1.0,
		1.0,
		1.0],
		"max":[1.0,
		1.0,
		1.0]
	},
	{
		"bufferView":12,
		"type":"SCALAR",
		"componentType":5123,
		"count":1056,
		"byteOffset":0,
		"min":[0],
		"max":[218]
	},
	{
		"bufferView":13,
		"type":"VEC3",
		"componentType":5126,
		"count":219,
		"byteOffset":0,
		"min":[-3.232759714126587,
		0.0,
		-3.232759714126587],
		"max":[3.232759714126587,
		27.464805603027345,
		3.232759714126587]
	},
	{
		"bufferView":13,
		"type":"VEC3",
		"componentType":5126,
		"count":219,
		"byteOffset":12,
		"min":[-1.0,
		-1.0,
		-1.0],
		"max":[1.0,
		0.9999999403953552,
		1.0]
	},
	{
		"bufferView":13,
		"type":"VEC2",
		"componentType":5126,
		"count":219,
		"byteOffset":24,
		"min":[0.0,
		0.0],
		"max":[1.0,
		1.0]
	},
	{
		"bufferView":14,
		"type":"SCALAR",
		"componentType":5126,
		"count":106,
		"byteOffset":0,
		"min":[0.0],
		"max":[3.5]
	},
	{
		"bufferView":14,
		"type":"VEC3",
		"componentType":5126,
		"count":106,
		"byteOffset":424,
		"min":[-47.06417465209961,
		-87.05767822265625,
		0.0],
		"max":[-47.06417465209961,
		219.48342895507813,
		0.0]
	},
	{
		"bufferView":15,
		"type":"SCALAR",
		"componentType":5126,
		"count":106,
		"byteOffset":0,
		"min":[0.0],
		"max":[3.5]
	},
	{
		"bufferView":15,
		"type":"VEC3",
		"componentType":5126,
		"count":106,
		"byteOffset":424,
		"min":[1.0,
		1.0,
		1.0],
		"max":[1.0,
		1.0,
		1.0]
	},
	{
		"bufferView":16,
		"type":"SCALAR",
		"componentType":5123,
		"count":1056,
		"byteOffset":0,
		"min":[0],
		"max":[218]
	},
	{
		"bufferView":17,
		"type":"VEC3",
		"componentType":5126,
		"count":219,
		"byteOffset":0,
		"min":[-3.232759714126587,
		0.0,
		-3.232759714126587],
		"max":[3.232759714126587,
		27.464805603027345,
		3.232759714126587]
	},
	{
		"bufferView":17,
		"type":"VEC3",
		"componentType":5126,
		"count":219,
		"byteOffset":12,
		"min":[-1.0,
		-1.0,
		-1.0],
		"max":[1.0,
		0.9999999403953552,
		1.0]
	},
	{
		"bufferView":17,
		"type":"VEC2",
		"componentType":5126,
		"count":219,
		"byteOffset":24,
		"min":[0.0,
		0.0],
		"max":[1.0,
		1.0]
	},
	{
		"bufferView":18,
		"type":"SCALAR",
		"componentType":5126,
		"count":106,
		"byteOffset":0,
		"min":[0.0],
		"max":[3.5]
	},
	{
		"bufferView":18,
		"type":"VEC3",
		"componentType":5126,
		"count":106,
		"byteOffset":424,
		"min":[56.694087982177737,
		-87.05767822265625,
		0.0],
		"max":[56.694087982177737,
		219.48342895507813,
		0.0]
	},
	{
		"bufferView":19,
		"type":"SCALAR",
		"componentType":5126,
		"count":106,
		"byteOffset":0,
		"min":[0.0],
		"max":[3.5]
	},
	{
		"bufferView":19,
		"type":"VEC3",
		"componentType":5126,
		"count":106,
		"byteOffset":424,
		"min":[1.0,
		1.0,
		1.0],
		"max":[1.0,
		1.0,
		1.0]
	},
	{
		"bufferView":20,
		"type":"SCALAR",
		"componentType":5123,
		"count":1056,
		"byteOffset":0,
		"min":[0],
		"max":[218]
	},
	{
		"bufferView":21,
		"type":"VEC3",
		"componentType":5126,
		"count":219,
		"byteOffset":0,
		"min":[-3.232759714126587,
		0.0,
		-3.232759714126587],
		"max":[3.232759714126587,
		27.464805603027345,
		3.232759714126587]
	},
	{
		"bufferView":21,
		"type":"VEC3",
		"componentType":5126,
		"count":219,
		"byteOffset":12,
		"min":[-1.0,
		-1.0,
		-1.0],
		"max":[1.0,
		0.9999999403953552,
		1.0]
	},
	{
		"bufferView":21,
		"type":"VEC2",
		"componentType":5126,
		"count":219,
		"byteOffset":24,
		"min":[0.0,
		0.0],
		"max":[1.0,
		1.0]
	},
	{
		"bufferView":22,
		"type":"SCALAR",
		"componentType":5126,
		"count":106,
		"byteOffset":0,
		"min":[0.0],
		"max":[3.5]
	},
	{
		"bufferView":22,
		"type":"VEC3",
		"componentType":5126,
		"count":106,
		"byteOffset":424,
		"min":[-3.8315646648406984,
		-87.05767822265625,
		0.0],
		"max":[-3.8315646648406984,
		219.48342895507813,
		0.0]
	},
	{
		"bufferView":23,
		"type":"SCALAR",
		"componentType":5126,
		"count":106,
		"byteOffset":0,
		"min":[0.0],
		"max":[3.5]
	},
	{
		"bufferView":23,
		"type":"VEC3",
		"componentType":5126,
		"count":106,
		"byteOffset":424,
		"min":[1.0,
		1.0,
		1.0],
		"max":[1.0,
		1.0,
		1.0]
	},
	{
		"bufferView":24,
		"type":"SCALAR",
		"componentType":5123,
		"count":1056,
		"byteOffset":0,
		"min":[0],
		"max":[218]
	},
	{
		"bufferView":25,
		"type":"VEC3",
		"componentType":5126,
		"count":219,
		"byteOffset":0,
		"min":[-3.232759714126587,
		0.0,
		-3.232759714126587],
		"max":[3.232759714126587,
		27.464805603027345,
		3.232759714126587]
	},
	{
		"bufferView":25,
		"type":"VEC3",
		"componentType":5126,
		"count":219,
		"byteOffset":12,
		"min":[-1.0,
		-1.0,
		-1.0],
		"max":[1.0,
		0.9999999403953552,
		1.0]
	},
	{
		"bufferView":25,
		"type":"VEC2",
		"componentType":5126,
		"count":219,
		"byteOffset":24,
		"min":[0.0,
		0.0],
		"max":[1.0,
		1.0]
	},
	{
		"bufferView":26,
		"type":"SCALAR",
		"componentType":5126,
		"count":106,
		"byteOffset":0,
		"min":[0.0],
		"max":[3.5]
	},
	{
		"bufferView":26,
		"type":"VEC3",
		"componentType":5126,
		"count":106,
		"byteOffset":424,
		"min":[-27.587583541870118,
		-87.05767822265625,
		0.0],
		"max":[-27.587583541870118,
		219.48342895507813,
		0.0]
	},
	{
		"bufferView":27,
		"type":"SCALAR",
		"componentType":5126,
		"count":106,
		"byteOffset":0,
		"min":[0.0],
		"max":[3.5]
	},
	{
		"bufferView":27,
		"type":"VEC3",
		"componentType":5126,
		"count":106,
		"byteOffset":424,
		"min":[1.0,
		1.0,
		1.0],
		"max":[1.0,
		1.0,
		1.0]
	},
	{
		"bufferView":28,
		"type":"SCALAR",
		"componentType":5123,
		"count":1056,
		"byteOffset":0,
		"min":[0],
		"max":[218]
	},
	{
		"bufferView":29,
		"type":"VEC3",
		"componentType":5126,
		"count":219,
		"byteOffset":0,
		"min":[-3.232759714126587,
		0.0,
		-3.232759714126587],
		"max":[3.232759714126587,
		27.464805603027345,
		3.232759714126587]
	},
	{
		"bufferView":29,
		"type":"VEC3",
		"componentType":5126,
		"count":219,
		"byteOffset":12,
		"min":[-1.0,
		-1.0,
		-1.0],
		"max":[1.0,
		0.9999999403953552,
		1.0]
	},
	{
		"bufferView":29,
		"type":"VEC2",
		"componentType":5126,
		"count":219,
		"byteOffset":24,
		"min":[0.0,
		0.0],
		"max":[1.0,
		1.0]
	},
	{
		"bufferView":30,
		"type":"SCALAR",
		"componentType":5126,
		"count":106,
		"byteOffset":0,
		"min":[0.0],
		"max":[3.5]
	},
	{
		"bufferView":30,
		"type":"VEC3",
		"componentType":5126,
		"count":106,
		"byteOffset":424,
		"min":[21.789234161376954,
		-87.05767822265625,
		0.0],
		"max":[21.789234161376954,
		219.48342895507813,
		0.0]
	},
	{
		"bufferView":31,
		"type":"SCALAR",
		"componentType":5126,
		"count":106,
		"byteOffset":0,
		"min":[0.0],
		"max":[3.5]
	},
	{
		"bufferView":31,
		"type":"VEC3",
		"componentType":5126,
		"count":106,
		"byteOffset":424,
		"min":[1.0,
		1.0,
		1.0],
		"max":[1.0,
		1.0,
		1.0]
	}],
	"bufferViews":[{
		"buffer":0,
		"byteOffset":0,
		"byteLength":1696
	},
	{
		"buffer":0,
		"byteOffset":1696,
		"byteLength":1696
	},
	{
		"buffer":1,
		"byteOffset":0,
		"byteLength":12024,
		"target":34963
	},
	{
		"buffer":1,
		"byteOffset":12024,
		"byteLength":24096,
		"target":34962,
		"byteStride":24
	},
	{
		"buffer":2,
		"byteOffset":0,
		"byteLength":1696
	},
	{
		"buffer":2,
		"byteOffset":1696,
		"byteLength":1696
	},
	{
		"buffer":3,
		"byteOffset":0,
		"byteLength":1696
	},
	{
		"buffer":3,
		"byteOffset":1696,
		"byteLength":1696
	},
	{
		"buffer":4,
		"byteOffset":0,
		"byteLength":2112,
		"target":34963
	},
	{
		"buffer":4,
		"byteOffset":2112,
		"byteLength":7008,
		"target":34962,
		"byteStride":32
	},
	{
		"buffer":5,
		"byteOffset":0,
		"byteLength":1696
	},
	{
		"buffer":5,
		"byteOffset":1696,
		"byteLength":1696
	},
	{
		"buffer":6,
		"byteOffset":0,
		"byteLength":2112,
		"target":34963
	},
	{
		"buffer":6,
		"byteOffset":2112,
		"byteLength":7008,
		"target":34962,
		"byteStride":32
	},
	{
		"buffer":7,
		"byteOffset":0,
		"byteLength":1696
	},
	{
		"buffer":7,
		"byteOffset":1696,
		"byteLength":1696
	},
	{
		"buffer":8,
		"byteOffset":0,
		"byteLength":2112,
		"target":34963
	},
	{
		"buffer":8,
		"byteOffset":2112,
		"byteLength":7008,
		"target":34962,
		"byteStride":32
	},
	{
		"buffer":9,
		"byteOffset":0,
		"byteLength":1696
	},
	{
		"buffer":9,
		"byteOffset":1696,
		"byteLength":1696
	},
	{
		"buffer":10,
		"byteOffset":0,
		"byteLength":2112,
		"target":34963
	},
	{
		"buffer":10,
		"byteOffset":2112,
		"byteLength":7008,
		"target":34962,
		"byteStride":32
	},
	{
		"buffer":11,
		"byteOffset":0,
		"byteLength":1696
	},
	{
		"buffer":11,
		"byteOffset":1696,
		"byteLength":1696
	},
	{
		"buffer":12,
		"byteOffset":0,
		"byteLength":2112,
		"target":34963
	},
	{
		"buffer":12,
		"byteOffset":2112,
		"byteLength":7008,
		"target":34962,
		"byteStride":32
	},
	{
		"buffer":13,
		"byteOffset":0,
		"byteLength":1696
	},
	{
		"buffer":13,
		"byteOffset":1696,
		"byteLength":1696
	},
	{
		"buffer":14,
		"byteOffset":0,
		"byteLength":2112,
		"target":34963
	},
	{
		"buffer":14,
		"byteOffset":2112,
		"byteLength":7008,
		"target":34962,
		"byteStride":32
	},
	{
		"buffer":15,
		"byteOffset":0,
		"byteLength":1696
	},
	{
		"buffer":15,
		"byteOffset":1696,
		"byteLength":1696
	}],
	"buffers":[{
		"uri":"data:application/octet-stream;base64,",
		"byteLength":3392
	},
	{
		"uri":"data:application/octet-stream;base64,",
		"byteLength":36120
	},
	{
		"uri":"data:application/octet-stream;base64,",
		"byteLength":3392
	},
	{
		"uri":"data:application/octet-stream;base64,",
		"byteLength":3392
	},
	{
		"uri":"data:application/octet-stream;base64,",
		"byteLength":9120
	},
	{
		"uri":"data:application/octet-stream;base64,",
		"byteLength":3392
	},
	{
		"uri":"data:application/octet-stream;base64,",
		"byteLength":9120
	},
	{
		"uri":"data:application/octet-stream;base64,",
		"byteLength":3392
	},
	{
		"uri":"data:application/octet-stream;base64,",
		"byteLength":9120
	},
	{
		"uri":"data:application/octet-stream;base64,",
		"byteLength":3392
	},
	{
		"uri":"data:application/octet-stream;base64,",
		"byteLength":9120
	},
	{
		"uri":"data:application/octet-stream;base64,",
		"byteLength":3392
	},
	{
		"uri":"data:application/octet-stream;base64,",
		"byteLength":9120
	},
	{
		"uri":"data:application/octet-stream;base64,",
		"byteLength":3392
	},
	{
		"uri":"data:application/octet-stream;base64,",
		"byteLength":9120
	},
	{
		"uri":"data:application/octet-stream;base64,",
		"byteLength":3392
	}],
	"materials":[{
		"pbrMetallicRoughness":{
			"baseColorFactor":[0.25,
			0.25,
			0.25,
			1.0],
			"metallicFactor":0.0,
			"roughnessFactor":0.5
		},
		"emissiveFactor":[0.0,
		0.0,
		0.0],
		"alphaMode":"OPAQUE",
		"doubleSided":false,
		"name":"Mat.1"
	}],
	"animations":[{
		"samplers":[{
			"input":0,
			"interpolation":"LINEAR",
			"output":1
		},
		{
			"input":2,
			"interpolation":"LINEAR",
			"output":3
		},
		{
			"input":7,
			"interpolation":"LINEAR",
			"output":8
		},
		{
			"input":9,
			"interpolation":"LINEAR",
			"output":10
		},
		{
			"input":11,
			"interpolation":"LINEAR",
			"output":12
		},
		{
			"input":13,
			"interpolation":"LINEAR",
			"output":14
		},
		{
			"input":19,
			"interpolation":"LINEAR",
			"output":20
		},
		{
			"input":21,
			"interpolation":"LINEAR",
			"output":22
		},
		{
			"input":27,
			"interpolation":"LINEAR",
			"output":28
		},
		{
			"input":29,
			"interpolation":"LINEAR",
			"output":30
		},
		{
			"input":35,
			"interpolation":"LINEAR",
			"output":36
		},
		{
			"input":37,
			"interpolation":"LINEAR",
			"output":38
		},
		{
			"input":43,
			"interpolation":"LINEAR",
			"output":44
		},
		{
			"input":45,
			"interpolation":"LINEAR",
			"output":46
		},
		{
			"input":51,
			"interpolation":"LINEAR",
			"output":52
		},
		{
			"input":53,
			"interpolation":"LINEAR",
			"output":54
		},
		{
			"input":59,
			"interpolation":"LINEAR",
			"output":60
		},
		{
			"input":61,
			"interpolation":"LINEAR",
			"output":62
		}],
		"channels":[{
			"sampler":0,
			"target":{
				"node":0,
				"path":"translation"
			}
		},
		{
			"sampler":1,
			"target":{
				"node":0,
				"path":"scale"
			}
		},
		{
			"sampler":2,
			"target":{
				"node":1,
				"path":"translation"
			}
		},
		{
			"sampler":3,
			"target":{
				"node":1,
				"path":"scale"
			}
		},
		{
			"sampler":4,
			"target":{
				"node":2,
				"path":"translation"
			}
		},
		{
			"sampler":5,
			"target":{
				"node":2,
				"path":"scale"
			}
		},
		{
			"sampler":6,
			"target":{
				"node":3,
				"path":"translation"
			}
		},
		{
			"sampler":7,
			"target":{
				"node":3,
				"path":"scale"
			}
		},
		{
			"sampler":8,
			"target":{
				"node":4,
				"path":"translation"
			}
		},
		{
			"sampler":9,
			"target":{
				"node":4,
				"path":"scale"
			}
		},
		{
			"sampler":10,
			"target":{
				"node":5,
				"path":"translation"
			}
		},
		{
			"sampler":11,
			"target":{
				"node":5,
				"path":"scale"
			}
		},
		{
			"sampler":12,
			"target":{
				"node":6,
				"path":"translation"
			}
		},
		{
			"sampler":13,
			"target":{
				"node":6,
				"path":"scale"
			}
		},
		{
			"sampler":14,
			"target":{
				"node":7,
				"path":"translation"
			}
		},
		{
			"sampler":15,
			"target":{
				"node":7,
				"path":"scale"
			}
		},
		{
			"sampler":16,
			"target":{
				"node":8,
				"path":"translation"
			}
		},
		{
			"sampler":17,
			"target":{
				"node":8,
				"path":"scale"
			}
		}]
	}]
}