{
	"asset":{
		"version":"2.0",
		"generator":"Created using the official Cinema 4D glTF Exporter 1.000x284978"
	},
	"scenes":[{
		"nodes":[0]
	}],
	"nodes":[{
		"name":"Surprised",
		"translation":[0.0,
		0.0,
		0.0],
		"rotation":[0.0,
		0.0,
		0.0,
		-1.0],
		"scale":[80.0,
		80.0,
		80.0],
		"mesh":0,
		"children":[1,
		3,
		4,
		7]
	},
	{
		"name":"Sweep",
		"translation":[-0.0007330793887376785,
		1.358856201171875,
		0.0047631957568228249],
		"rotation":[0.0,
		0.0,
		0.0,
		-1.0],
		"scale":[0.012500000186264515,
		0.012500000186264515,
		0.012500000186264515],
		"children":[2]
	},
	{
		"name":"Sweep",
		"translation":[0.0,
		0.0,
		0.0],
		"rotation":[0.0,
		0.0,
		0.0,
		-1.0],
		"scale":[1.0,
		1.0,
		1.0],
		"mesh":1
	},
	{
		"name":"Sweep",
		"translation":[-0.0007330793887376785,
		1.358856201171875,
		0.0047631957568228249],
		"rotation":[0.0,
		0.0,
		0.0,
		-1.0],
		"scale":[0.012500000186264515,
		0.012500000186264515,
		0.012500000186264515],
		"mesh":2
	},
	{
		"name":"Symmetry",
		"translation":[-0.0007330793887376785,
		1.9739139080047608,
		-0.4468722939491272],
		"rotation":[0.0,
		0.0,
		0.0,
		-1.0],
		"scale":[0.012500000186264515,
		0.012500000186264515,
		0.012500000186264515],
		"children":[5,
		6]
	},
	{
		"name":"Symmetry",
		"translation":[0.0,
		0.0,
		0.0],
		"rotation":[0.0,
		0.0,
		0.0,
		-1.0],
		"scale":[1.0,
		1.0,
		1.0],
		"mesh":3
	},
	{
		"name":"Symmetry-Mat.1",
		"translation":[0.0,
		0.0,
		0.0],
		"rotation":[0.0,
		0.0,
		0.0,
		-1.0],
		"scale":[1.0,
		1.0,
		1.0],
		"mesh":4
	},
	{
		"name":"Sweep",
		"translation":[-0.0007330793887376785,
		1.713515043258667,
		0.5507611632347107],
		"rotation":[0.14070066809654237,
		0.0,
		0.0,
		-0.9900521636009216],
		"scale":[0.012500000186264515,
		0.012500000186264515,
		0.012500000186264515],
		"children":[8]
	},
	{
		"name":"Sweep",
		"translation":[0.0,
		7.105427357601002e-15,
		-7.105427357601002e-15],
		"rotation":[0.0,
		0.0,
		0.0,
		-1.0],
		"scale":[1.0,
		1.0,
		1.0],
		"mesh":5
	}],
	"meshes":[{
		"name":"Surprised",
		"primitives":[{
			"attributes":{
				"POSITION":1,
				"NORMAL":2
			},
			"indices":0,
			"material":0
		}]
	},
	{
		"name":"Sweep",
		"primitives":[{
			"attributes":{
				"POSITION":10,
				"NORMAL":11,
				"TEXCOORD_0":12
			},
			"indices":9,
			"material":0
		}]
	},
	{
		"name":"Sweep",
		"primitives":[{
			"attributes":{
				"POSITION":16,
				"NORMAL":17,
				"TEXCOORD_0":18
			},
			"indices":15,
			"material":0
		}]
	},
	{
		"name":"Symmetry",
		"primitives":[{
			"attributes":{
				"POSITION":28,
				"NORMAL":29,
				"TEXCOORD_0":30
			},
			"indices":27,
			"material":0
		}]
	},
	{
		"name":"Symmetry-Mat.1",
		"primitives":[{
			"attributes":{
				"POSITION":34,
				"NORMAL":35,
				"TEXCOORD_0":36
			},
			"indices":33,
			"material":0
		}]
	},
	{
		"name":"Sweep",
		"primitives":[{
			"attributes":{
				"POSITION":46,
				"NORMAL":47,
				"TEXCOORD_0":48
			},
			"indices":45,
			"material":1
		}]
	}],
	"accessors":[{
		"bufferView":0,
		"type":"SCALAR",
		"componentType":5123,
		"count":6498,
		"byteOffset":0,
		"min":[0],
		"max":[1106]
	},
	{
		"bufferView":1,
		"type":"VEC3",
		"componentType":5126,
		"count":1107,
		"byteOffset":0,
		"min":[-0.7313166856765747,
		0.0,
		-0.7509129643440247],
		"max":[0.7313166856765747,
		3.7824816703796388,
		0.7509129643440247]
	},
	{
		"bufferView":1,
		"type":"VEC3",
		"componentType":5126,
		"count":1107,
		"byteOffset":12,
		"min":[-0.9994705319404602,
		-0.9975658059120178,
		-0.9994280338287354],
		"max":[0.9999963045120239,
		0.9962252974510193,
		0.9985788464546204]
	},
	{
		"bufferView":2,
		"type":"SCALAR",
		"componentType":5126,
		"count":106,
		"byteOffset":0,
		"min":[0.0],
		"max":[3.5]
	},
	{
		"bufferView":2,
		"type":"VEC3",
		"componentType":5126,
		"count":106,
		"byteOffset":424,
		"min":[80.0,
		80.0,
		80.0],
		"max":[80.0,
		80.0,
		80.0]
	},
	{
		"bufferView":3,
		"type":"SCALAR",
		"componentType":5126,
		"count":106,
		"byteOffset":0,
		"min":[0.0],
		"max":[3.5]
	},
	{
		"bufferView":3,
		"type":"VEC3",
		"componentType":5126,
		"count":106,
		"byteOffset":424,
		"min":[-0.0007330793887376785,
		1.358856201171875,
		0.0047631957568228249],
		"max":[-0.0007330793887376785,
		1.358856201171875,
		0.0047631957568228249]
	},
	{
		"bufferView":4,
		"type":"SCALAR",
		"componentType":5126,
		"count":106,
		"byteOffset":0,
		"min":[0.0],
		"max":[3.5]
	},
	{
		"bufferView":4,
		"type":"VEC3",
		"componentType":5126,
		"count":106,
		"byteOffset":424,
		"min":[0.012500000186264515,
		0.012500000186264515,
		0.012500000186264515],
		"max":[0.012500000186264515,
		0.012500000186264515,
		0.012500000186264515]
	},
	{
		"bufferView":5,
		"type":"SCALAR",
		"componentType":5123,
		"count":6816,
		"byteOffset":0,
		"min":[0],
		"max":[1246]
	},
	{
		"bufferView":6,
		"type":"VEC3",
		"componentType":5126,
		"count":1247,
		"byteOffset":0,
		"min":[-1.9734394550323487,
		-115.28018951416016,
		-60.56393051147461],
		"max":[105.42530059814453,
		-16.113759994506837,
		-21.169355392456056]
	},
	{
		"bufferView":6,
		"type":"VEC3",
		"componentType":5126,
		"count":1247,
		"byteOffset":12,
		"min":[-0.9917283058166504,
		-0.9960474371910095,
		-0.9999222755432129],
		"max":[0.977717399597168,
		0.9960476160049439,
		0.9999215006828308]
	},
	{
		"bufferView":6,
		"type":"VEC2",
		"componentType":5126,
		"count":1247,
		"byteOffset":24,
		"min":[0.0,
		0.0],
		"max":[1.0,
		1.0]
	},
	{
		"bufferView":7,
		"type":"SCALAR",
		"componentType":5126,
		"count":106,
		"byteOffset":0,
		"min":[0.0],
		"max":[3.5]
	},
	{
		"bufferView":7,
		"type":"VEC3",
		"componentType":5126,
		"count":106,
		"byteOffset":424,
		"min":[1.0,
		1.0,
		1.0],
		"max":[1.0,
		1.0,
		1.0]
	},
	{
		"bufferView":8,
		"type":"SCALAR",
		"componentType":5123,
		"count":6720,
		"byteOffset":0,
		"min":[0],
		"max":[1327]
	},
	{
		"bufferView":9,
		"type":"VEC3",
		"componentType":5126,
		"count":1328,
		"byteOffset":0,
		"min":[-23.111297607421876,
		-154.42466735839845,
		-10.393489837646485],
		"max":[23.111297607421876,
		-86.31952667236328,
		23.572433471679689]
	},
	{
		"bufferView":9,
		"type":"VEC3",
		"componentType":5126,
		"count":1328,
		"byteOffset":12,
		"min":[-0.9968212246894836,
		-0.9994334578514099,
		-0.9992103576660156],
		"max":[0.9968212246894836,
		0.9994101524353027,
		0.9972338080406189]
	},
	{
		"bufferView":9,
		"type":"VEC2",
		"componentType":5126,
		"count":1328,
		"byteOffset":24,
		"min":[0.0,
		0.0],
		"max":[1.0,
		1.0]
	},
	{
		"bufferView":10,
		"type":"SCALAR",
		"componentType":5126,
		"count":106,
		"byteOffset":0,
		"min":[0.0],
		"max":[3.5]
	},
	{
		"bufferView":10,
		"type":"VEC3",
		"componentType":5126,
		"count":106,
		"byteOffset":424,
		"min":[-0.0007330793887376785,
		1.358856201171875,
		0.0047631957568228249],
		"max":[-0.0007330793887376785,
		1.358856201171875,
		0.0047631957568228249]
	},
	{
		"bufferView":11,
		"type":"SCALAR",
		"componentType":5126,
		"count":106,
		"byteOffset":0,
		"min":[0.0],
		"max":[3.5]
	},
	{
		"bufferView":11,
		"type":"VEC3",
		"componentType":5126,
		"count":106,
		"byteOffset":424,
		"min":[0.012500000186264515,
		0.012500000186264515,
		0.012500000186264515],
		"max":[0.012500000186264515,
		0.012500000186264515,
		0.012500000186264515]
	},
	{
		"bufferView":12,
		"type":"SCALAR",
		"componentType":5126,
		"count":106,
		"byteOffset":0,
		"min":[0.0],
		"max":[3.5]
	},
	{
		"bufferView":12,
		"type":"VEC3",
		"componentType":5126,
		"count":106,
		"byteOffset":424,
		"min":[-0.0007330793887376785,
		1.9739139080047608,
		-0.4468722939491272],
		"max":[-0.0007330793887376785,
		1.9739139080047608,
		-0.4468722939491272]
	},
	{
		"bufferView":13,
		"type":"SCALAR",
		"componentType":5126,
		"count":106,
		"byteOffset":0,
		"min":[0.0],
		"max":[3.5]
	},
	{
		"bufferView":13,
		"type":"VEC3",
		"componentType":5126,
		"count":106,
		"byteOffset":424,
		"min":[0.012500000186264515,
		0.012500000186264515,
		0.012500000186264515],
		"max":[0.012500000186264515,
		0.012500000186264515,
		0.012500000186264515]
	},
	{
		"bufferView":14,
		"type":"SCALAR",
		"componentType":5123,
		"count":96,
		"byteOffset":0,
		"min":[0],
		"max":[33]
	},
	{
		"bufferView":15,
		"type":"VEC3",
		"componentType":5126,
		"count":34,
		"byteOffset":0,
		"min":[-12.54755973815918,
		26.86396598815918,
		67.54547882080078],
		"max":[12.54755973815918,
		37.86650466918945,
		67.54547882080078]
	},
	{
		"bufferView":15,
		"type":"VEC3",
		"componentType":5126,
		"count":34,
		"byteOffset":12,
		"min":[0.0,
		0.0,
		1.0],
		"max":[0.0,
		0.0,
		1.0]
	},
	{
		"bufferView":15,
		"type":"VEC2",
		"componentType":5126,
		"count":34,
		"byteOffset":24,
		"min":[0.0,
		0.0],
		"max":[1.0,
		1.0]
	},
	{
		"bufferView":16,
		"type":"SCALAR",
		"componentType":5126,
		"count":106,
		"byteOffset":0,
		"min":[0.0],
		"max":[3.5]
	},
	{
		"bufferView":16,
		"type":"VEC3",
		"componentType":5126,
		"count":106,
		"byteOffset":424,
		"min":[1.0,
		1.0,
		1.0],
		"max":[1.0,
		1.0,
		1.0]
	},
	{
		"bufferView":17,
		"type":"SCALAR",
		"componentType":5123,
		"count":96,
		"byteOffset":0,
		"min":[0],
		"max":[33]
	},
	{
		"bufferView":18,
		"type":"VEC3",
		"componentType":5126,
		"count":34,
		"byteOffset":0,
		"min":[-10.723913192749024,
		28.687610626220704,
		67.8041000366211],
		"max":[10.723913192749024,
		36.0428581237793,
		67.8041000366211]
	},
	{
		"bufferView":18,
		"type":"VEC3",
		"componentType":5126,
		"count":34,
		"byteOffset":12,
		"min":[0.0,
		0.0,
		1.0],
		"max":[0.0,
		0.0,
		1.0]
	},
	{
		"bufferView":18,
		"type":"VEC2",
		"componentType":5126,
		"count":34,
		"byteOffset":24,
		"min":[5.551115123125783e-17,
		5.551115123125783e-17],
		"max":[1.0,
		1.0]
	},
	{
		"bufferView":19,
		"type":"SCALAR",
		"componentType":5126,
		"count":106,
		"byteOffset":0,
		"min":[0.0],
		"max":[3.5]
	},
	{
		"bufferView":19,
		"type":"VEC3",
		"componentType":5126,
		"count":106,
		"byteOffset":424,
		"min":[1.0,
		1.0,
		1.0],
		"max":[1.0,
		1.0,
		1.0]
	},
	{
		"bufferView":20,
		"type":"SCALAR",
		"componentType":5126,
		"count":106,
		"byteOffset":0,
		"min":[0.0],
		"max":[3.5]
	},
	{
		"bufferView":20,
		"type":"VEC3",
		"componentType":5126,
		"count":106,
		"byteOffset":424,
		"min":[-0.0007330793887376785,
		1.713515043258667,
		0.5507611632347107],
		"max":[-0.0007330793887376785,
		1.713515043258667,
		0.5507611632347107]
	},
	{
		"bufferView":21,
		"type":"SCALAR",
		"componentType":5126,
		"count":106,
		"byteOffset":0,
		"min":[0.0],
		"max":[3.5]
	},
	{
		"bufferView":21,
		"type":"VEC4",
		"componentType":5126,
		"count":106,
		"byteOffset":424,
		"min":[0.14070066809654237,
		0.0,
		0.0,
		-0.9900521636009216],
		"max":[0.14070066809654237,
		0.0,
		0.0,
		-0.9900521636009216]
	},
	{
		"bufferView":22,
		"type":"SCALAR",
		"componentType":5126,
		"count":106,
		"byteOffset":0,
		"min":[0.0],
		"max":[3.5]
	},
	{
		"bufferView":22,
		"type":"VEC3",
		"componentType":5126,
		"count":106,
		"byteOffset":424,
		"min":[0.012500000186264515,
		0.012500000186264515,
		0.012500000186264515],
		"max":[0.012500000186264515,
		0.012500000186264515,
		0.012500000186264515]
	},
	{
		"bufferView":23,
		"type":"SCALAR",
		"componentType":5123,
		"count":7776,
		"byteOffset":0,
		"min":[0],
		"max":[1382]
	},
	{
		"bufferView":24,
		"type":"VEC3",
		"componentType":5126,
		"count":1383,
		"byteOffset":0,
		"min":[-6.771213054656982,
		-35.1004753112793,
		-2.0],
		"max":[6.771213054656982,
		35.1004753112793,
		2.0]
	},
	{
		"bufferView":24,
		"type":"VEC3",
		"componentType":5126,
		"count":1383,
		"byteOffset":12,
		"min":[-1.0,
		-0.9206058979034424,
		-1.0],
		"max":[1.0,
		0.9206058979034424,
		1.0]
	},
	{
		"bufferView":24,
		"type":"VEC2",
		"componentType":5126,
		"count":1383,
		"byteOffset":24,
		"min":[0.0,
		0.0],
		"max":[1.0,
		1.0]
	},
	{
		"bufferView":25,
		"type":"SCALAR",
		"componentType":5126,
		"count":106,
		"byteOffset":0,
		"min":[0.0],
		"max":[3.5]
	},
	{
		"bufferView":25,
		"type":"VEC3",
		"componentType":5126,
		"count":106,
		"byteOffset":424,
		"min":[1.0,
		1.0,
		1.0],
		"max":[1.0,
		1.0,
		1.0]
	}],
	"bufferViews":[{
		"buffer":0,
		"byteOffset":0,
		"byteLength":12996,
		"target":34963
	},
	{
		"buffer":0,
		"byteOffset":12996,
		"byteLength":26568,
		"target":34962,
		"byteStride":24
	},
	{
		"buffer":1,
		"byteOffset":0,
		"byteLength":1696
	},
	{
		"buffer":2,
		"byteOffset":0,
		"byteLength":1696
	},
	{
		"buffer":2,
		"byteOffset":1696,
		"byteLength":1696
	},
	{
		"buffer":3,
		"byteOffset":0,
		"byteLength":13632,
		"target":34963
	},
	{
		"buffer":3,
		"byteOffset":13632,
		"byteLength":39904,
		"target":34962,
		"byteStride":32
	},
	{
		"buffer":4,
		"byteOffset":0,
		"byteLength":1696
	},
	{
		"buffer":5,
		"byteOffset":0,
		"byteLength":13440,
		"target":34963
	},
	{
		"buffer":5,
		"byteOffset":13440,
		"byteLength":42496,
		"target":34962,
		"byteStride":32
	},
	{
		"buffer":6,
		"byteOffset":0,
		"byteLength":1696
	},
	{
		"buffer":6,
		"byteOffset":1696,
		"byteLength":1696
	},
	{
		"buffer":7,
		"byteOffset":0,
		"byteLength":1696
	},
	{
		"buffer":7,
		"byteOffset":1696,
		"byteLength":1696
	},
	{
		"buffer":8,
		"byteOffset":0,
		"byteLength":192,
		"target":34963
	},
	{
		"buffer":8,
		"byteOffset":192,
		"byteLength":1088,
		"target":34962,
		"byteStride":32
	},
	{
		"buffer":9,
		"byteOffset":0,
		"byteLength":1696
	},
	{
		"buffer":10,
		"byteOffset":0,
		"byteLength":192,
		"target":34963
	},
	{
		"buffer":10,
		"byteOffset":192,
		"byteLength":1088,
		"target":34962,
		"byteStride":32
	},
	{
		"buffer":11,
		"byteOffset":0,
		"byteLength":1696
	},
	{
		"buffer":12,
		"byteOffset":0,
		"byteLength":1696
	},
	{
		"buffer":12,
		"byteOffset":1696,
		"byteLength":2120
	},
	{
		"buffer":12,
		"byteOffset":3816,
		"byteLength":1696
	},
	{
		"buffer":13,
		"byteOffset":0,
		"byteLength":15552,
		"target":34963
	},
	{
		"buffer":13,
		"byteOffset":15552,
		"byteLength":44256,
		"target":34962,
		"byteStride":32
	},
	{
		"buffer":14,
		"byteOffset":0,
		"byteLength":1696
	}],
	"buffers":[{
		"uri":"data:application/octet-stream;base64,",
		"byteLength":39564
	},
	{
		"uri":"data:application/octet-stream;base64,",
		"byteLength":1696
	},
	{
		"uri":"data:application/octet-stream;base64,",
		"byteLength":3392
	},
	{
		"uri":"data:application/octet-stream;base64,",
		"byteLength":53536
	},
	{
		"uri":"data:application/octet-stream;base64,",
		"byteLength":1696
	},
	{
		"uri":"data:application/octet-stream;base64,",
		"byteLength":55936
	},
	{
		"uri":"data:application/octet-stream;base64,",
		"byteLength":3392
	},
	{
		"uri":"data:application/octet-stream;base64,",
		"byteLength":3392
	},
	{
		"uri":"data:application/octet-stream;base64,",
		"byteLength":1280
	},
	{
		"uri":"data:application/octet-stream;base64,",
		"byteLength":1696
	},
	{
		"uri":"data:application/octet-stream;base64,",
		"byteLength":1280
	},
	{
		"uri":"data:application/octet-stream;base64,",
		"byteLength":1696
	},
	{
		"uri":"data:application/octet-stream;base64,",
		"byteLength":5512
	},
	{
		"uri":"data:application/octet-stream;base64,",
		"byteLength":59808
	},
	{
		"uri":"data:application/octet-stream;base64,",
		"byteLength":1696
	}],
	"materials":[{
		"pbrMetallicRoughness":{
			"baseColorFactor":[0.25,
			0.25,
			0.25,
			1.0],
			"metallicFactor":0.0,
			"roughnessFactor":0.5
		},
		"emissiveFactor":[0.0,
		0.0,
		0.0],
		"alphaMode":"OPAQUE",
		"doubleSided":false,
		"name":"Mat.1"
	},
	{
		"pbrMetallicRoughness":{
			"baseColorFactor":[0.8,
			0.8,
			0.8,
			1.0],
			"metallicFactor":0.0,
			"roughnessFactor":0.5
		},
		"emissiveFactor":[0.0,
		0.0,
		0.0],
		"alphaMode":"OPAQUE",
		"doubleSided":false,
		"name":"Mat.1"
	}],
	"animations":[{
		"samplers":[{
			"input":3,
			"interpolation":"LINEAR",
			"output":4
		},
		{
			"input":5,
			"interpolation":"LINEAR",
			"output":6
		},
		{
			"input":7,
			"interpolation":"LINEAR",
			"output":8
		},
		{
			"input":13,
			"interpolation":"LINEAR",
			"output":14
		},
		{
			"input":19,
			"interpolation":"LINEAR",
			"output":20
		},
		{
			"input":21,
			"interpolation":"LINEAR",
			"output":22
		},
		{
			"input":23,
			"interpolation":"LINEAR",
			"output":24
		},
		{
			"input":25,
			"interpolation":"LINEAR",
			"output":26
		},
		{
			"input":31,
			"interpolation":"LINEAR",
			"output":32
		},
		{
			"input":37,
			"interpolation":"LINEAR",
			"output":38
		},
		{
			"input":39,
			"interpolation":"LINEAR",
			"output":40
		},
		{
			"input":41,
			"interpolation":"LINEAR",
			"output":42
		},
		{
			"input":43,
			"interpolation":"LINEAR",
			"output":44
		},
		{
			"input":49,
			"interpolation":"LINEAR",
			"output":50
		}],
		"channels":[{
			"sampler":0,
			"target":{
				"node":0,
				"path":"scale"
			}
		},
		{
			"sampler":1,
			"target":{
				"node":1,
				"path":"translation"
			}
		},
		{
			"sampler":2,
			"target":{
				"node":1,
				"path":"scale"
			}
		},
		{
			"sampler":3,
			"target":{
				"node":2,
				"path":"scale"
			}
		},
		{
			"sampler":4,
			"target":{
				"node":3,
				"path":"translation"
			}
		},
		{
			"sampler":5,
			"target":{
				"node":3,
				"path":"scale"
			}
		},
		{
			"sampler":6,
			"target":{
				"node":4,
				"path":"translation"
			}
		},
		{
			"sampler":7,
			"target":{
				"node":4,
				"path":"scale"
			}
		},
		{
			"sampler":8,
			"target":{
				"node":5,
				"path":"scale"
			}
		},
		{
			"sampler":9,
			"target":{
				"node":6,
				"path":"scale"
			}
		},
		{
			"sampler":10,
			"target":{
				"node":7,
				"path":"translation"
			}
		},
		{
			"sampler":11,
			"target":{
				"node":7,
				"path":"rotation"
			}
		},
		{
			"sampler":12,
			"target":{
				"node":7,
				"path":"scale"
			}
		},
		{
			"sampler":13,
			"target":{
				"node":8,
				"path":"scale"
			}
		}]
	}]
}