{
	"asset":{
		"version":"2.0",
		"generator":"Created using the official Cinema 4D glTF Exporter 1.000x284978"
	},
	"scenes":[{
		"nodes":[0]
	}],
	"nodes":[{
		"name":"Sweep",
		"translation":[-0.058646347373723987,
		108.70849609375,
		0.38105565309524538],
		"rotation":[0.0,
		0.0,
		0.0,
		-1.0],
		"scale":[1.0,
		1.0,
		1.0],
		"children":[1]
	},
	{
		"name":"Sweep",
		"translation":[0.0,
		0.0,
		0.0],
		"rotation":[0.0,
		0.0,
		0.0,
		-1.0],
		"scale":[1.0,
		1.0,
		1.0],
		"mesh":0
	}],
	"meshes":[{
		"name":"Sweep",
		"primitives":[{
			"attributes":{
				"POSITION":5,
				"NORMAL":6,
				"TEXCOORD_0":7
			},
			"indices":4,
			"material":0
		}]
	}],
	"accessors":[{
		"bufferView":0,
		"type":"SCALAR",
		"componentType":5126,
		"count":106,
		"byteOffset":0,
		"min":[0.0],
		"max":[3.5]
	},
	{
		"bufferView":0,
		"type":"VEC3",
		"componentType":5126,
		"count":106,
		"byteOffset":424,
		"min":[-0.058646347373723987,
		108.70849609375,
		0.38105565309524538],
		"max":[-0.058646347373723987,
		108.70849609375,
		0.38105565309524538]
	},
	{
		"bufferView":1,
		"type":"SCALAR",
		"componentType":5126,
		"count":106,
		"byteOffset":0,
		"min":[0.0],
		"max":[3.5]
	},
	{
		"bufferView":1,
		"type":"VEC3",
		"componentType":5126,
		"count":106,
		"byteOffset":424,
		"min":[1.0,
		1.0,
		1.0],
		"max":[1.0,
		1.0,
		1.0]
	},
	{
		"bufferView":2,
		"type":"SCALAR",
		"componentType":5123,
		"count":6816,
		"byteOffset":0,
		"min":[0],
		"max":[1246]
	},
	{
		"bufferView":3,
		"type":"VEC3",
		"componentType":5126,
		"count":1247,
		"byteOffset":0,
		"min":[-1.9734394550323487,
		-115.28018951416016,
		-60.56393051147461],
		"max":[105.42530059814453,
		-16.113759994506837,
		-21.169355392456056]
	},
	{
		"bufferView":3,
		"type":"VEC3",
		"componentType":5126,
		"count":1247,
		"byteOffset":12,
		"min":[-0.9917283058166504,
		-0.9960474371910095,
		-0.9999222755432129],
		"max":[0.977717399597168,
		0.9960476160049439,
		0.9999215006828308]
	},
	{
		"bufferView":3,
		"type":"VEC2",
		"componentType":5126,
		"count":1247,
		"byteOffset":24,
		"min":[0.0,
		0.0],
		"max":[1.0,
		1.0]
	},
	{
		"bufferView":4,
		"type":"SCALAR",
		"componentType":5126,
		"count":106,
		"byteOffset":0,
		"min":[0.0],
		"max":[3.5]
	},
	{
		"bufferView":4,
		"type":"VEC3",
		"componentType":5126,
		"count":106,
		"byteOffset":424,
		"min":[1.0,
		1.0,
		1.0],
		"max":[1.0,
		1.0,
		1.0]
	}],
	"bufferViews":[{
		"buffer":0,
		"byteOffset":0,
		"byteLength":1696
	},
	{
		"buffer":0,
		"byteOffset":1696,
		"byteLength":1696
	},
	{
		"buffer":1,
		"byteOffset":0,
		"byteLength":13632,
		"target":34963
	},
	{
		"buffer":1,
		"byteOffset":13632,
		"byteLength":39904,
		"target":34962,
		"byteStride":32
	},
	{
		"buffer":2,
		"byteOffset":0,
		"byteLength":1696
	}],
	"buffers":[{
		"uri":"data:application/octet-stream;base64,",
		"byteLength":3392
	},
	{
		"uri":"data:application/octet-stream;base64,",
		"byteLength":53536
	},
	{
		"uri":"data:application/octet-stream;base64,",
		"byteLength":1696
	}],
	"materials":[{
		"pbrMetallicRoughness":{
			"baseColorFactor":[0.25,
			0.25,
			0.25,
			1.0],
			"metallicFactor":0.0,
			"roughnessFactor":0.5
		},
		"emissiveFactor":[0.0,
		0.0,
		0.0],
		"alphaMode":"OPAQUE",
		"doubleSided":false,
		"name":"Mat.1"
	}],
	"animations":[{
		"samplers":[{
			"input":0,
			"interpolation":"LINEAR",
			"output":1
		},
		{
			"input":2,
			"interpolation":"LINEAR",
			"output":3
		},
		{
			"input":8,
			"interpolation":"LINEAR",
			"output":9
		}],
		"channels":[{
			"sampler":0,
			"target":{
				"node":0,
				"path":"translation"
			}
		},
		{
			"sampler":1,
			"target":{
				"node":0,
				"path":"scale"
			}
		},
		{
			"sampler":2,
			"target":{
				"node":1,
				"path":"scale"
			}
		}]
	}]
}